<svg width="16" height="16" viewBox="0 0 16 16" fill="none" xmlns="http://www.w3.org/2000/svg">
<path fill-rule="evenodd" clip-rule="evenodd" d="M8 15C11.866 15 15 11.866 15 8C15 4.13401 11.866 1 8 1C4.13401 1 1 4.13401 1 8C1 11.866 4.13401 15 8 15ZM11.6306 5.3579C11.276 5.00961 10.7062 5.01474 10.3579 5.36936L6.874 8.915L5.775 7.796L5.73875 7.73581C5.57612 7.50259 5.30588 7.35 5 7.35C4.50294 7.35 4.1 7.75294 4.1 8.25V8.29091L4.10763 8.40784C4.13289 8.60067 4.22016 8.7813 4.3579 8.92155L6.2329 10.8306L6.32553 10.9129C6.68052 11.1873 7.19376 11.1599 7.5171 10.8306L11.6421 6.63064L11.7218 6.53775C11.9871 6.18258 11.9557 5.67716 11.6306 5.3579Z" fill="currentcolor"/>
</svg>
