<svg width="135" height="134" viewBox="0 0 135 134" fill="none" xmlns="http://www.w3.org/2000/svg">
<rect x="0.608887" width="133.897" height="133.893" rx="66.9466" fill="#FFF4CD"/>
<g clip-path="url(#clip0_685_56485)">
<path d="M73.5039 100.698H66.5005V105.498C66.5005 107.432 68.0683 109 70.0023 109C71.9362 109 73.5041 107.432 73.5041 105.498L73.5039 100.698Z" fill="#DADFEA"/>
<path d="M70.3604 105.534V100.734H73.5039V100.698H66.5005V105.498C66.5005 107.432 68.0683 109 70.0023 109C70.7036 109 71.3589 108.793 71.9066 108.437C70.9759 107.808 70.3604 106.742 70.3604 105.534Z" fill="#C8CEDA"/>
<path d="M75.6625 95.8711H64.3413V102.219C64.3413 102.818 64.8271 103.304 65.4264 103.304H74.5774C75.1767 103.304 75.6625 102.818 75.6625 102.219V95.8711Z" fill="#DADFEA"/>
<path d="M70.0019 102.497V96.149H75.6625V95.8711H64.3413V102.219C64.3413 102.818 64.8271 103.304 65.4264 103.304H70.3637C70.1421 103.105 70.0019 102.818 70.0019 102.497Z" fill="#C8CEDA"/>
<path d="M78.4931 86.2852H61.5107V95.4824C61.5107 97.0457 62.778 98.313 64.3413 98.313H75.6625C77.2258 98.313 78.4931 97.0457 78.4931 95.4824V86.2852Z" fill="#C8CEDA"/>
<path d="M68.5296 95.843V86.3003H78.4931V86.2852H61.5107V95.4824C61.5107 97.0457 62.778 98.313 64.3413 98.313H69.9798C69.1151 97.8286 68.5296 96.9047 68.5296 95.843Z" fill="#B0B7C6"/>
<path d="M89.2333 37.1914C84.6671 31.5438 77.6663 27.9458 69.8252 28.0006C59.2648 28.0744 50.2382 34.8517 46.7839 44.2552L46.0332 47.1548L52.0766 43.9086L64.4417 38.5656L76.3024 44.986L91.2746 39.1913L89.2333 37.1914Z" fill="#4E4BC9"/>
<path d="M73.2583 28.2147C72.1357 28.0669 70.9901 27.9925 69.8252 28.0006C59.2648 28.0744 50.2382 34.8517 46.7839 44.2552L46.0332 47.1548L52.0766 43.9086L53.7033 43.2056C57.0448 35.258 64.4306 29.3853 73.2583 28.2147Z" fill="#4E4BC9"/>
<path d="M93.9391 47.5504C94.057 47.5079 94.1863 47.5792 94.2115 47.7018C94.5461 49.3232 94.7226 51.0018 94.7226 52.7202C94.7226 57.5295 93.3485 62.018 90.9731 65.8147H90.9748L81.0957 81.9813L80.5861 86.815C80.4917 87.717 79.7314 88.4008 78.8262 88.4008H61.178C60.2728 88.4008 59.5125 87.717 59.418 86.815L58.9085 81.9813L49.0294 65.8147H49.031C47.3465 63.1222 46.1694 60.081 45.6244 56.8263C45.5981 56.6689 45.6819 56.5129 45.827 56.4465L62.1255 48.9724L64.4422 48.2935L66.6515 49.1873L73.5561 53.233C74.6828 53.8924 76.0454 54.0177 77.273 53.5733L93.9391 47.5504Z" fill="#4E4BC9"/>
<path d="M68.0556 87.2822L67.6879 83.7944C67.5273 82.2714 67.0296 80.8032 66.2311 79.4964L55.5878 62.0792H55.5897C53.9753 59.499 52.7517 56.6512 51.9902 53.6201L45.746 56.4836C45.6485 56.5282 45.5923 56.633 45.6095 56.7388C46.1479 60.0265 47.3309 63.0982 49.0306 65.8148H49.029L58.908 81.9814L59.4176 86.8152C59.5121 87.7171 60.2724 88.4009 61.1776 88.4009H68.5216C68.2691 88.0904 68.1001 87.707 68.0556 87.2822Z" fill="#4E4BC9"/>
<path d="M64.442 50.4786C65.8435 50.4786 66.9796 49.3425 66.9796 47.941C66.9796 46.5395 65.8435 45.4033 64.442 45.4033C63.0404 45.4033 61.9043 46.5395 61.9043 47.941C61.9043 49.3425 63.0404 50.4786 64.442 50.4786Z" fill="#7BD5E1"/>
<path d="M46.0333 49.2169C47.4348 49.2169 48.5709 48.0808 48.5709 46.6793C48.5709 45.2778 47.4348 44.1416 46.0333 44.1416C44.6318 44.1416 43.4956 45.2778 43.4956 46.6793C43.4956 48.0808 44.6318 49.2169 46.0333 49.2169Z" fill="#7BD5E1"/>
<path d="M90.7921 41.7286C92.1936 41.7286 93.3297 40.5925 93.3297 39.191C93.3297 37.7895 92.1936 36.6533 90.7921 36.6533C89.3905 36.6533 88.2544 37.7895 88.2544 39.191C88.2544 40.5925 89.3905 41.7286 90.7921 41.7286Z" fill="#7BD5E1"/>
<path d="M30.9251 77.0513C30.4012 76.8767 29.8349 77.1598 29.6602 77.6838C29.4856 78.2077 29.7687 78.774 30.2927 78.9487L30.9251 77.0513ZM87.6089 56L76.9051 60.3316L86.0083 67.4355L87.6089 56ZM30.2927 78.9487C40.9261 82.4931 50.7386 82.4812 59.5738 79.6666C68.3995 76.8551 76.1875 71.2677 82.822 63.7565L81.323 62.4324C74.8741 69.7335 67.3782 75.0815 58.9668 77.761C50.565 80.4374 41.1874 80.4721 30.9251 77.0513L30.2927 78.9487Z" fill="#7BD5E1"/>
</g>
<defs>
<clipPath id="clip0_685_56485">
<rect width="81" height="81" fill="white" transform="translate(28.6089 28)"/>
</clipPath>
</defs>
</svg>
