<svg width="145" height="83" viewBox="0 0 145 83" fill="none" xmlns="http://www.w3.org/2000/svg">
<path d="M88.5773 35.8936H23.5004C17.9338 35.8936 12.8191 37.8291 8.79269 41.064C3.43183 45.3711 1.78613 59.3936 1.78613 59.3936C1.78613 72.3722 10.5218 81.6041 23.5004 81.6041H88.5773L101.106 79.2783C107.698 75.1159 112.077 67.7663 112.077 59.3936C112.077 46.4148 101.556 35.8936 88.5773 35.8936Z" fill="#7175DC"/>
<path d="M65 58.6399C65 60.5667 64.3776 62.3481 63.3231 63.7933C61.734 65.9714 56.2632 66.8936 56.2632 66.8936C51.438 66.8936 48 63.4704 48 58.6399C48 58.6399 48.9371 53.1678 51.1094 51.5767C52.5541 50.5183 54.3358 49.8936 56.2632 49.8936C61.0885 49.8936 65 53.8093 65 58.6399Z" fill="#C6F3F9"/>
<path d="M58.1061 65.0832C53.5242 65.0832 49.81 61.3678 49.81 56.7847C49.81 54.9555 50.4 53.2652 51.4023 51.8936C49.3379 53.4031 48 55.8412 48 58.5951C48 63.1782 51.7143 66.8936 56.2961 66.8936C59.0491 66.8936 61.4908 65.5497 63 63.4846C61.6287 64.4872 59.9349 65.0832 58.1061 65.0832Z" fill="#7BD5E1"/>
<path d="M87 58.6399C87 60.5667 86.3776 62.3481 85.3231 63.7933C83.734 65.9714 78.2632 66.8936 78.2632 66.8936C73.438 66.8936 70 63.4704 70 58.6399C70 58.6399 70.9371 53.1678 73.1094 51.5767C74.5541 50.5183 76.3358 49.8936 78.2632 49.8936C83.0884 49.8936 87 53.8093 87 58.6399Z" fill="#C6F3F9"/>
<path d="M80.7799 65.0832C75.8926 65.0832 71.9307 61.3678 71.9307 56.7847C71.9307 54.9555 72.56 53.2652 73.6292 51.8936C71.4271 53.4031 70 55.8412 70 58.5951C70 63.1782 73.962 66.8936 78.8492 66.8936C81.7859 66.8936 84.3903 65.5497 86 63.4846C84.5373 64.4872 82.7306 65.0832 80.7799 65.0832Z" fill="#7BD5E1"/>
<path d="M43 58.6399C43 60.5667 42.3776 62.3481 41.3231 63.7933C39.734 65.9714 34.2631 66.8936 34.2631 66.8936C29.4378 66.8936 26 63.4704 26 58.6399C26 58.6399 26.9371 53.1678 29.1094 51.5767C30.5541 50.5183 32.3358 49.8936 34.2632 49.8936C39.0884 49.8936 43 53.8093 43 58.6399Z" fill="#C6F3F9"/>
<path d="M27.1154 79.2778C14.1368 79.2778 3.61536 68.7563 3.61536 55.7777C3.61536 50.2098 5.55635 45.0899 8.79235 41.0635C3.43301 45.3706 0 51.9822 0 59.3931C0 72.3717 10.5214 82.8931 23.5 82.8931H88.5769C93.1696 82.8931 97.4859 81.5554 101.106 79.2778H27.1154Z" fill="#4E4BC9"/>
<path d="M36.1061 65.0832C31.5242 65.0832 27.81 61.3678 27.81 56.7847C27.81 54.9555 28.4 53.2652 29.4023 51.8936C27.3379 53.4031 26 55.8412 26 58.5951C26 63.1782 29.7143 66.8936 34.2961 66.8936C37.0491 66.8936 39.4908 65.5497 41 63.4846C39.6287 64.4872 37.9349 65.0832 36.1061 65.0832Z" fill="#7BD5E1"/>
<g clip-path="url(#clip0_1504_78622)">
<path d="M117.818 0.909187C110.992 1.14168 104.765 4.04767 100.192 8.61426C100.192 8.61426 94.1257 16.5827 93.2489 25.4185C92.6909 31.0411 94.6161 36.2293 97.2958 40.662L92.9116 51.4539L94.3955 52.9378L105.457 48.7558C109.89 51.4355 114.888 53.1431 120.526 52.769C127.037 52.3371 137.278 45.7024 137.278 45.7024C141.846 41.1291 144.752 34.902 144.985 28.0752C145.503 12.8446 133.049 0.390574 117.818 0.909187Z" fill="#DADFEA"/>
<path d="M99.0075 45.7553C98.7372 46.4623 99.431 47.1559 100.138 46.8857L103.604 45.5604C104.11 45.3672 104.639 45.2718 105.167 45.2718C105.956 45.2718 106.74 45.4848 107.432 45.9028C111.277 48.2266 115.704 49.2983 120.236 48.9948C131.283 48.2617 140.232 39.0071 140.61 27.9259C140.818 21.7848 138.547 16.0154 134.211 11.6807C129.877 7.34609 124.127 5.0732 117.967 5.28395C106.886 5.66137 97.6316 14.6103 96.8989 25.6573C96.5998 30.1612 97.6532 34.5614 99.9466 38.3888C100.656 39.5721 100.825 41.0008 100.332 42.2894L99.0075 45.7553Z" fill="#019AAF"/>
<path d="M101.922 43.0356C101.698 43.6208 102.272 44.195 102.857 43.9712L102.978 43.9251C103.681 43.6571 104.417 43.5212 105.168 43.5212C106.284 43.5212 107.38 43.8265 108.337 44.404C111.877 46.544 115.957 47.5306 120.119 47.2481C130.281 46.574 138.513 38.0607 138.86 27.8664C139.052 22.2151 136.962 16.9066 132.973 12.9195C128.985 8.93022 123.673 6.82834 118.027 7.03434C107.833 7.38142 99.3203 15.6126 98.6467 25.7735C98.3705 29.9192 99.34 33.97 101.449 37.4886C102.455 39.1691 102.644 41.1466 101.968 42.9147L101.922 43.0356Z" fill="#05BAD2"/>
<path d="M137.275 45.6973C136.588 45.0108 135.491 44.9843 134.76 45.6227C130.843 49.042 125.855 51.2546 120.409 51.616C115.339 51.9541 110.379 50.7542 106.073 48.1512L106.072 48.1511C105.611 47.8717 105.046 47.821 104.542 48.0137L97.4154 50.7387C96.0013 51.2794 94.6139 49.892 95.1546 48.4779L97.8797 41.3504C98.0721 40.847 98.0218 40.283 97.7434 39.8216L97.7428 39.8205C95.1393 35.5136 93.9407 30.556 94.2784 25.4836C94.6396 20.0374 96.8526 15.0496 100.272 11.1324C100.911 10.401 100.883 9.30553 100.196 8.61892L100.192 8.61426C95.8229 12.9773 92.9625 18.8564 92.5304 25.3678C92.1564 31.0058 93.5643 36.2935 96.2441 40.7261L92.1196 51.5131C91.5789 52.9272 92.9663 54.3146 94.3805 53.774L105.167 49.6495C109.6 52.3292 114.888 53.7371 120.526 53.363C127.037 52.931 132.915 50.0718 137.278 45.7026L137.275 45.6973Z" fill="#C8CEDA"/>
<path d="M123.661 33.3752L123.351 33.6853C122.601 34.4356 121.462 34.6854 120.492 34.256C118.587 33.413 116.802 32.216 115.239 30.6536C113.677 29.0913 112.48 27.306 111.637 25.4016C111.208 24.4312 111.457 23.2926 112.208 22.5422L112.518 22.2321C113.242 21.5076 113.477 20.4282 113.118 19.4688C112.626 18.1544 112.26 16.8037 112.02 15.4352C111.778 14.0582 110.054 13.5526 109.066 14.5412L107.097 16.5101L106.259 19.403C106.625 24.4624 108.738 29.4183 112.606 33.2866C116.475 37.155 121.431 39.268 126.49 39.6338L129.382 38.7967L131.352 36.8274C132.34 35.8388 131.835 34.1151 130.458 33.8733C129.089 33.633 127.739 33.2673 126.424 32.7751C125.465 32.4158 124.385 32.6508 123.661 33.3752Z" fill="white"/>
<path d="M126.028 40.0969C127.269 40.1866 128.482 39.6977 129.362 38.8182L129.383 38.7975L129.135 38.8017C123.171 38.9 117.619 36.6553 113.429 32.4651C109.239 28.2745 106.988 22.6971 107.093 16.7598L107.097 16.5107L107.076 16.5319C106.196 17.4114 105.707 18.6253 105.797 19.866C106.163 24.9253 108.276 29.8812 112.144 33.7496C116.013 37.6181 120.969 39.7311 126.028 40.0969Z" fill="#DADFEA"/>
</g>
<defs>
<clipPath id="clip0_1504_78622">
<rect width="53" height="53" fill="white" transform="translate(92 0.893555)"/>
</clipPath>
</defs>
</svg>
