<svg width="40" height="41" viewBox="0 0 40 41" fill="none" xmlns="http://www.w3.org/2000/svg">
<g clip-path="url(#clip0_1293_70252)">
<path d="M35.3652 31.857V7.969C35.3652 7.43744 35.1541 6.92767 34.7783 6.55181L29.9398 1.7133C29.5639 1.33744 29.0542 1.12634 28.5226 1.12634H12.6513C11.9133 1.12634 11.3152 1.72447 11.3152 2.46244V31.857C11.3152 32.595 11.9133 33.1931 12.6513 33.1931H34.0292C34.7671 33.1931 35.3652 32.5949 35.3652 31.857Z" fill="#C6F3F9"/>
<path d="M11.3152 5.80273H21.68C22.743 5.80273 23.7625 6.225 24.5142 6.9768L29.5148 11.9773C30.2665 12.7291 30.6889 13.7486 30.6889 14.8116V33.1931H12.6513C11.9133 33.1931 11.3152 32.595 11.3152 31.857V5.80273Z" fill="#7BD5E1"/>
<path d="M28.6848 38.5376V14.6495C28.6848 14.118 28.4737 13.6082 28.0979 13.2324L23.2594 8.39384C22.8835 8.01798 22.3737 7.80688 21.8422 7.80688H5.97086C5.23289 7.80688 4.63477 8.40501 4.63477 9.14298V38.5376C4.63477 39.2755 5.23289 39.8737 5.97086 39.8737H27.3487C28.0866 39.8737 28.6848 39.2755 28.6848 38.5376Z" fill="#E4EAF8"/>
<path d="M22.6305 8.22443H21.3779V10.7297H22.6305V8.22443Z" fill="#D5DCED"/>
<path d="M29.3109 1.37677H28.0583V4.04904H29.3109V1.37677Z" fill="#C6F3F9"/>
<path d="M23.702 7.95101C23.2052 7.45421 22.5446 7.18054 21.842 7.18054H5.97072C4.88861 7.18054 4.0083 8.06085 4.0083 9.14296V38.5376C4.0083 39.6197 4.88861 40.5 5.97072 40.5H27.3486C28.4307 40.5 29.311 39.6197 29.311 38.5376V14.6495C29.311 13.9469 29.0374 13.2863 28.5406 12.7895L23.702 7.95101ZM27.3486 39.2474H5.97072C5.57932 39.2474 5.26088 38.929 5.26088 38.5376V9.14296C5.26088 8.75156 5.57932 8.43312 5.97072 8.43312H21.842C22.2101 8.43312 22.5561 8.5764 22.8163 8.83671L27.6549 13.6752C27.8865 13.9069 28.0248 14.2066 28.0526 14.5291H23.3402C22.9488 14.5291 22.6304 14.2107 22.6304 13.8193V10.479C22.6304 10.133 22.3501 9.85265 22.0041 9.85265C21.6581 9.85265 21.3777 10.133 21.3777 10.479V13.8193C21.3777 14.9014 22.2581 15.7817 23.3402 15.7817H28.0583V38.5374C28.0584 38.929 27.74 39.2474 27.3486 39.2474Z" fill="black"/>
<path d="M35.2212 6.10891L30.3828 1.27047C29.8859 0.773594 29.2254 0.5 28.5227 0.5H12.6514C11.5693 0.5 10.689 1.38031 10.689 2.46242V5.13469C10.689 5.48063 10.9694 5.76102 11.3153 5.76102C11.6612 5.76102 11.9416 5.4807 11.9416 5.13469V2.46242C11.9416 2.07102 12.2601 1.75258 12.6515 1.75258H28.5227C28.8908 1.75258 29.2368 1.89586 29.497 2.15617L34.3355 6.99469C34.5672 7.22633 34.7054 7.52602 34.7333 7.84867H30.0209C29.6295 7.84867 29.3111 7.53023 29.3111 7.13883V3.79852C29.3111 3.45258 29.0308 3.17219 28.6847 3.17219C28.3388 3.17219 28.0584 3.4525 28.0584 3.79852V7.13883C28.0584 8.22094 28.9387 9.10125 30.0208 9.10125H34.739V31.857C34.739 32.2484 34.4205 32.5669 34.0291 32.5669H31.3567C31.0108 32.5669 30.7304 32.8472 30.7304 33.1932C30.7304 33.5392 31.0107 33.8195 31.3567 33.8195H34.0291C35.1112 33.8195 35.9915 32.9392 35.9915 31.8571V7.96898C35.9917 7.26633 35.7181 6.60578 35.2212 6.10891Z" fill="black"/>
<path d="M19.9369 22.4528C19.5825 22.0983 19.1162 21.8966 18.6178 21.8795C18.6006 21.401 18.4118 20.9276 18.0473 20.5631L14.2682 16.7839C13.5031 16.0189 12.2581 16.0188 11.4929 16.7839L9.60333 18.6735C9.2327 19.0442 9.02856 19.537 9.02856 20.0612C9.02856 20.5854 9.2327 21.0782 9.60333 21.4488L13.3824 25.2279C13.7368 25.5824 14.2031 25.7841 14.7015 25.8011C14.7187 26.2796 14.9075 26.7531 15.272 27.1176L19.0511 30.8967C19.4338 31.2793 19.9362 31.4705 20.4388 31.4705C20.9414 31.4705 21.4438 31.2792 21.8264 30.8967L23.7161 29.0071C24.4811 28.242 24.4811 26.997 23.7161 26.2318L19.9369 22.4528ZM14.2682 24.3422L10.489 20.5631C10.355 20.429 10.2811 20.2508 10.2811 20.0612C10.2811 19.8716 10.3549 19.6935 10.489 19.5593L12.3786 17.6697C12.5169 17.5313 12.6986 17.4621 12.8804 17.4621C13.0622 17.4621 13.244 17.5313 13.3824 17.6697L17.1615 21.4488C17.4382 21.7255 17.4382 22.176 17.1615 22.4526L16.6596 22.9545L15.2129 21.5078C14.9682 21.2632 14.5717 21.2632 14.3272 21.5078C14.0825 21.7524 14.0825 22.1489 14.3272 22.3935L15.7739 23.8401L15.272 24.342C15.1379 24.476 14.9597 24.5498 14.7701 24.5498C14.5806 24.5501 14.4023 24.4763 14.2682 24.3422ZM22.8303 28.1213L20.9407 30.011C20.664 30.2877 20.2136 30.2877 19.9368 30.011L16.1578 26.2319C15.8811 25.9552 15.8811 25.5047 16.1578 25.2281L16.6597 24.7262L18.1064 26.1729C18.2286 26.2952 18.389 26.3563 18.5492 26.3563C18.7094 26.3563 18.8697 26.2952 18.992 26.1729C19.2366 25.9282 19.2366 25.5317 18.992 25.2871L17.5454 23.8403L18.0473 23.3385C18.1814 23.2044 18.3597 23.1306 18.5492 23.1306C18.7387 23.1306 18.9169 23.2045 19.0511 23.3386L22.8302 27.1178C23.107 27.3943 23.107 27.8445 22.8303 28.1213Z" fill="black"/>
</g>
<defs>
<clipPath id="clip0_1293_70252">
<rect width="40" height="40" fill="white" transform="translate(0 0.5)"/>
</clipPath>
</defs>
</svg>
