<svg width="60" height="60" viewBox="0 0 60 60" fill="none" xmlns="http://www.w3.org/2000/svg">
<path d="M46.1109 17.7594V48.6914C46.1109 51.2802 44.0122 53.3789 41.4234 53.3789H9.19678C6.60799 53.3789 4.50928 51.2802 4.50928 48.6914V5.56641C4.50928 2.97762 6.60799 0.878906 9.19678 0.878906H29.2589C30.1927 0.878906 31.088 1.25039 31.7475 1.91121L45.0838 15.2761C45.7415 15.9353 46.1109 16.8284 46.1109 17.7594Z" fill="#F9F8F9"/>
<path d="M46.111 17.7598V18.6492H33.886C30.8462 18.6492 28.3735 16.173 28.3735 13.1297V0.878906H29.2595C30.1923 0.878906 31.0876 1.25039 31.7474 1.91133L45.0845 15.2766C45.7419 15.9352 46.111 16.8281 46.111 17.7598Z" fill="#F9F8F9"/>
<path d="M12.7124 53.3789H9.19677C6.6081 53.3789 4.50928 51.2801 4.50928 48.6914V5.56641C4.50928 2.97773 6.6081 0.878906 9.19677 0.878906H12.7124C10.1237 0.878906 8.0249 2.97773 8.0249 5.56641V48.6914C8.0249 51.2801 10.1237 53.3789 12.7124 53.3789Z" fill="#E3E0E4"/>
<path d="M25.7329 18.457H11.2368C10.7514 18.457 10.3579 18.0635 10.3579 17.5781C10.3579 17.0927 10.7514 16.6992 11.2368 16.6992H25.7329C26.2183 16.6992 26.6118 17.0927 26.6118 17.5781C26.6118 18.0635 26.2183 18.457 25.7329 18.457Z" fill="#A29AA5"/>
<path d="M25.7329 39.5508H11.2368C10.7514 39.5508 10.3579 39.1573 10.3579 38.6719C10.3579 38.1865 10.7514 37.793 11.2368 37.793H25.7329C26.2183 37.793 26.6118 38.1865 26.6118 38.6719C26.6118 39.1573 26.2183 39.5508 25.7329 39.5508Z" fill="#A29AA5"/>
<path d="M37.2524 25.4883H11.0024C10.5171 25.4883 10.1235 25.0948 10.1235 24.6094C10.1235 24.124 10.5171 23.7305 11.0024 23.7305H37.2524C37.7378 23.7305 38.1313 24.124 38.1313 24.6094C38.1313 25.0948 37.7378 25.4883 37.2524 25.4883Z" fill="#A29AA5"/>
<path d="M37.2524 32.5195H11.0024C10.5171 32.5195 10.1235 32.126 10.1235 31.6406C10.1235 31.1552 10.5171 30.7617 11.0024 30.7617H37.2524C37.7378 30.7617 38.1313 31.1552 38.1313 31.6406C38.1313 32.126 37.7378 32.5195 37.2524 32.5195Z" fill="#A29AA5"/>
<path d="M43.5806 59.1211C50.1497 59.1211 55.4751 53.7957 55.4751 47.2266C55.4751 40.6574 50.1497 35.332 43.5806 35.332C37.0114 35.332 31.686 40.6574 31.686 47.2266C31.686 53.7957 37.0114 59.1211 43.5806 59.1211Z" fill="#70DAE9"/>
<path d="M53.081 54.3828C50.9106 57.2609 47.463 59.1207 43.5806 59.1207C37.011 59.1207 31.686 53.7957 31.686 47.2262C31.686 43.3437 33.5458 39.8961 36.4239 37.7246C34.9204 39.7156 34.0298 42.1953 34.0298 44.8824C34.0298 51.452 39.3548 56.777 45.9243 56.777C48.6114 56.777 51.0899 55.8863 53.081 54.3828Z" fill="#0097AB"/>
<path d="M46.111 17.7598V19.8211H33.886C30.2005 19.8211 27.2017 16.8188 27.2017 13.1297V0.878906H29.2595C30.1923 0.878906 31.0876 1.25039 31.7474 1.91133L45.0845 15.2766C45.7419 15.9352 46.111 16.8281 46.111 17.7598Z" fill="#E3E0E4"/>
<path d="M45.7958 16.3051H33.886C32.1364 16.3051 30.7173 14.8824 30.7173 13.1293V1.19727C31.097 1.36836 31.4474 1.60977 31.7474 1.91094L45.0845 15.2762C45.3833 15.5762 45.6247 15.9254 45.7958 16.3051Z" fill="#A29AA5"/>
<path d="M43.5913 53.7305C42.621 53.7305 41.8335 52.943 41.8335 51.9727V48.9844H38.8452C37.8749 48.9844 37.0874 48.1969 37.0874 47.2266C37.0874 46.2562 37.8749 45.4688 38.8452 45.4688H41.8335V42.4805C41.8335 41.5102 42.621 40.7227 43.5913 40.7227C44.5616 40.7227 45.3491 41.5102 45.3491 42.4805V45.4688H48.3374C49.3077 45.4688 50.0952 46.2562 50.0952 47.2266C50.0952 48.1969 49.3077 48.9844 48.3374 48.9844H45.3491V51.9727C45.3491 52.943 44.5616 53.7305 43.5913 53.7305Z" fill="#F9F8F9"/>
<path d="M25.7789 1.75781H29.2644C29.4621 1.75781 29.6557 1.7816 29.8439 1.82367V13.1292C29.8439 15.3652 31.6599 17.1843 33.8918 17.1843H45.1726C45.2141 17.3712 45.2374 17.5634 45.2374 17.7594V23.6719C45.2374 24.1573 45.631 24.5508 46.1163 24.5508C46.6017 24.5508 46.9953 24.1573 46.9953 23.6719V17.7594C46.9953 16.5874 46.5393 15.485 45.7115 14.6554L32.3751 1.29047C31.5447 0.45832 30.4399 0 29.2643 0H25.7788C25.2934 0 24.8999 0.393516 24.8999 0.878906C24.8999 1.3643 25.2935 1.75781 25.7789 1.75781ZM43.9977 15.4264H33.8918C32.6291 15.4264 31.6017 14.396 31.6017 13.1292V3.0041L43.9977 15.4264Z" fill="black"/>
<path d="M4.51465 13.1836C5.00004 13.1836 5.39356 12.7901 5.39356 12.3047V5.56641C5.39356 3.46641 7.10215 1.75781 9.20215 1.75781H21.6772C22.1626 1.75781 22.5562 1.3643 22.5562 0.878906C22.5562 0.393516 22.1626 0 21.6772 0H9.20215C6.13289 0 3.63574 2.49715 3.63574 5.56641V12.3047C3.63574 12.7901 4.02926 13.1836 4.51465 13.1836Z" fill="black"/>
<path d="M11.2422 18.457H25.7384C26.2238 18.457 26.6173 18.0635 26.6173 17.5781C26.6173 17.0927 26.2238 16.6992 25.7384 16.6992H11.2422C10.7568 16.6992 10.3633 17.0927 10.3633 17.5781C10.3633 18.0635 10.7568 18.457 11.2422 18.457Z" fill="black"/>
<path d="M11.2422 37.793C10.7568 37.793 10.3633 38.1864 10.3633 38.6719C10.3633 39.1574 10.7568 39.5508 11.2422 39.5508H25.7384C26.2238 39.5508 26.6173 39.1574 26.6173 38.6719C26.6173 38.1864 26.2238 37.793 25.7384 37.793H11.2422Z" fill="black"/>
<path d="M37.2578 23.7305H11.0078C10.5224 23.7305 10.1289 24.124 10.1289 24.6094C10.1289 25.0948 10.5224 25.4883 11.0078 25.4883H37.2578C37.7432 25.4883 38.1367 25.0948 38.1367 24.6094C38.1367 24.124 37.7433 23.7305 37.2578 23.7305Z" fill="black"/>
<path d="M38.1367 31.6406C38.1367 31.1551 37.7432 30.7617 37.2578 30.7617H11.0078C10.5224 30.7617 10.1289 31.1551 10.1289 31.6406C10.1289 32.1261 10.5224 32.5195 11.0078 32.5195H37.2578C37.7433 32.5195 38.1367 32.1261 38.1367 31.6406Z" fill="black"/>
<path d="M46.9951 34.9144V27.7734C46.9951 27.288 46.6016 26.8945 46.1162 26.8945C45.6308 26.8945 45.2373 27.288 45.2373 27.7734V34.5589C44.6982 34.4893 44.1488 34.4531 43.5913 34.4531C41.9142 34.4531 40.2836 34.7733 38.745 35.4048C38.2959 35.589 38.0812 36.1025 38.2656 36.5516C38.4499 37.0005 38.9631 37.2153 39.4124 37.031C40.7383 36.4868 42.1443 36.2109 43.5914 36.2109C44.3961 36.2109 45.1806 36.2985 45.9366 36.4631C45.9381 36.4634 45.9393 36.4637 45.9408 36.4641C50.8897 37.5435 54.607 41.9588 54.607 47.2267C54.607 53.3007 49.6654 58.2423 43.5914 58.2423C37.5173 58.2423 32.5758 53.3007 32.5758 47.2267C32.5758 44.1217 33.8967 41.1445 36.2 39.0588C36.5598 38.733 36.5874 38.1772 36.2615 37.8173C35.9358 37.4577 35.3801 37.4299 35.0201 37.7558C32.3495 40.1742 30.8178 43.6262 30.8178 47.2267C30.8178 49.106 31.226 50.8917 31.9581 52.5001H9.20214C7.10215 52.5001 5.39355 50.7916 5.39355 48.6915V16.4062C5.39355 15.9209 5.00004 15.5273 4.51465 15.5273C4.02926 15.5273 3.63574 15.9209 3.63574 16.4062V48.6914C3.63574 51.7607 6.13289 54.2578 9.20214 54.2578H32.9327C35.2209 57.715 39.144 60 43.5911 60C50.6345 60 56.3646 54.2699 56.3646 47.2266C56.3647 41.3617 52.3912 36.408 46.9951 34.9144Z" fill="black"/>
<path d="M43.5913 39.8438C42.1374 39.8438 40.9546 41.0266 40.9546 42.4805V44.5898H38.8452C37.3913 44.5898 36.2085 45.7727 36.2085 47.2266C36.2085 48.6804 37.3913 49.8633 38.8452 49.8633H40.9546V51.9727C40.9546 53.4265 42.1374 54.6094 43.5913 54.6094C45.0453 54.6094 46.228 53.4265 46.228 51.9727V49.8633H48.3374C49.7913 49.8633 50.9741 48.6804 50.9741 47.2266C50.9741 45.7727 49.7913 44.5898 48.3374 44.5898H46.228V42.4805C46.228 41.0266 45.0453 39.8438 43.5913 39.8438ZM48.3374 46.3477C48.8221 46.3477 49.2163 46.7419 49.2163 47.2266C49.2163 47.7112 48.8221 48.1055 48.3374 48.1055H45.3491C44.8637 48.1055 44.4702 48.4989 44.4702 48.9844V51.9727C44.4702 52.4573 44.076 52.8516 43.5913 52.8516C43.1066 52.8516 42.7124 52.4573 42.7124 51.9727V48.9844C42.7124 48.4989 42.3189 48.1055 41.8335 48.1055H38.8452C38.3605 48.1055 37.9663 47.7112 37.9663 47.2266C37.9663 46.7419 38.3605 46.3477 38.8452 46.3477H41.8335C42.3189 46.3477 42.7124 45.9543 42.7124 45.4688V42.4805C42.7124 41.9958 43.1066 41.6016 43.5913 41.6016C44.076 41.6016 44.4702 41.9958 44.4702 42.4805V45.4688C44.4702 45.9543 44.8637 46.3477 45.3491 46.3477H48.3374Z" fill="black"/>
</svg>
