<svg width="16" height="16" viewBox="0 0 16 16" fill="none" xmlns="http://www.w3.org/2000/svg">
<path d="M7.52152 3.14645C7.34401 2.96894 7.06624 2.9528 6.87049 3.09803L6.81442 3.14645L2.14775 7.81311C1.97024 7.99062 1.9541 8.2684 2.09934 8.46414L2.14775 8.52022L6.81442 13.1869C7.00968 13.3821 7.32626 13.3821 7.52152 13.1869C7.69903 13.0094 7.71517 12.7316 7.56993 12.5359L7.52152 12.4798L3.20864 8.16667L7.52152 3.85355C7.69903 3.67604 7.71517 3.39827 7.56993 3.20253L7.52152 3.14645Z" fill="currentcolor"/>
<path d="M13.6895 3.31344C13.512 3.13593 13.2342 3.11979 13.0385 3.26503L12.9824 3.31344L8.31572 7.98011C8.13821 8.15762 8.12207 8.43539 8.26731 8.63113L8.31572 8.68721L12.9824 13.3539C13.1776 13.5491 13.4942 13.5491 13.6895 13.3539C13.867 13.1764 13.8831 12.8986 13.7379 12.7029L13.6895 12.6468L9.3766 8.33366L13.6895 4.02055C13.867 3.84303 13.8831 3.56526 13.7379 3.36952L13.6895 3.31344Z" fill="currentcolor"/>
</svg>
