<svg width="14" height="14" viewBox="0 0 14 14" fill="none" xmlns="http://www.w3.org/2000/svg">
<g clip-path="url(#clip0_935_28508)">
<path d="M8.64577 2.35144L0.942759 10.055C0.904005 10.0938 0.876023 10.1429 0.862698 10.1957L0.00889326 13.6227C-0.0166465 13.7258 0.0136681 13.8355 0.0889548 13.9108C0.145919 13.9678 0.223538 13.9993 0.302933 13.9993C0.327252 13.9993 0.352125 13.9963 0.376332 13.9902L3.80332 13.1363C3.85673 13.123 3.90526 13.0951 3.94401 13.0563L11.6477 5.35335L8.64577 2.35144Z" fill="currentcolor"/>
<path d="M13.556 1.30111L12.6986 0.443647C12.1255 -0.129442 11.1267 -0.128887 10.5543 0.443647L9.50391 1.49399L12.5057 4.4958L13.556 3.44545C13.8423 3.15929 14 2.77842 14 2.37334C14 1.96826 13.8423 1.58738 13.556 1.30111Z" fill="currentcolor"/>
</g>
<defs>
<clipPath id="clip0_935_28508">
<rect width="14" height="14" fill="white"/>
</clipPath>
</defs>
</svg>
