<svg width="80" height="80" fill="none" xmlns="http://www.w3.org/2000/svg"><g clip-path="url(#a)"><path d="M63.081 16.825V5.762c0-1.109-.893-2.016-1.983-2.016H9.12c-1.091 0-1.984.907-1.984 2.016v11.063H63.08Z" fill="#F4B537"/><path d="M13.807 3.746H9.12c-1.091 0-1.984.907-1.984 2.016v11.063h4.688V5.762c0-1.109.892-2.016 1.983-2.016Z" fill="#EAA01C"/><path d="m7.136 5.762 4.688 4.618V5.761c0-1.109.893-2.016 1.983-2.016H9.12c-1.091 0-1.984.907-1.984 2.016Z" fill="#F4B537"/><path d="M50.625 62.575c0-7.754 6.286-14.04 14.041-14.04 1.574 0 3.087.258 4.5.735V19.03a2.422 2.422 0 0 0-2.416-2.415H3.467a2.423 2.423 0 0 0-2.415 2.415v42.035a2.422 2.422 0 0 0 2.415 2.416h47.188c-.02-.3-.03-.6-.03-.906Z" fill="#FECA57"/><path d="M5.74 61.066V19.03a2.422 2.422 0 0 1 2.414-2.414H3.467a2.422 2.422 0 0 0-2.415 2.414v42.036a2.422 2.422 0 0 0 2.415 2.415h4.687a2.422 2.422 0 0 1-2.415-2.415Z" fill="#F4B537"/><path d="M50.625 62.576c0-5.334 2.974-9.974 7.356-12.35L47.479 40.047l-5.128 4.972a10.406 10.406 0 0 1-14.485 0l-5.129-4.972L1.052 61.066a2.422 2.422 0 0 0 2.415 2.415h47.188c-.02-.3-.03-.6-.03-.905Z" fill="#F4B537"/><path d="m26.002 43.212-3.264-3.164L1.052 61.066a2.422 2.422 0 0 0 2.415 2.415h1.622l20.913-20.269Z" fill="#EAA01C"/><path d="M66.75 16.616H3.467a2.422 2.422 0 0 0-2.415 2.414l26.814 26.302a10.405 10.405 0 0 0 14.485 0L69.165 19.03a2.422 2.422 0 0 0-2.415-2.414Z" fill="#FCD486"/><path d="m1.052 19.03 4.687 4.599V19.03a2.422 2.422 0 0 1 2.415-2.414H3.467a2.422 2.422 0 0 0-2.415 2.414Z" fill="#FECA57"/><path d="M78.708 62.492c0 7.802-6.325 14.126-14.126 14.126-7.801 0-14.125-6.324-14.125-14.126 0-7.801 6.324-14.125 14.125-14.125 7.802 0 14.126 6.324 14.126 14.125Z" fill="#60D04E"/><path d="M55.144 62.492c0-7.002 5.096-12.814 11.782-13.93a14.184 14.184 0 0 0-2.344-.195c-7.801 0-14.125 6.324-14.125 14.125s6.324 14.126 14.125 14.126c.799 0 1.581-.068 2.344-.195-6.686-1.117-11.782-6.928-11.782-13.93Z" fill="#499B3C"/><path d="M70.301 48.386v-9.149a1.172 1.172 0 1 0-2.344 0v8.416a15.51 15.51 0 0 0-3.327-.365c-2.202 0-4.405.473-6.466 1.444l-9.036-8.758 18.83-18.25v12.044a1.172 1.172 0 1 0 2.343 0V18.956a3.591 3.591 0 0 0-3.587-3.587h-2.497V5.656A3.159 3.159 0 0 0 61.062 2.5H9.084a3.16 3.16 0 0 0-3.156 3.156v9.713H3.43a3.591 3.591 0 0 0-3.587 3.587v42.036a3.59 3.59 0 0 0 3.587 3.587h28.907a1.172 1.172 0 1 0 0-2.344H3.43c-.514 0-.989-.325-1.168-.82l20.439-19.809 4.313 4.18c4.513 4.375 11.644 4.335 16.116 0l4.313-4.18 8.6 8.335a15.218 15.218 0 0 0-6.625 12.294H37.807a1.172 1.172 0 1 0 0 2.344H49.56c1.016 7.41 7.387 13.137 15.071 13.137 8.389 0 15.214-6.825 15.214-15.214 0-6.385-3.955-11.864-9.543-14.116ZM9.084 4.844h51.978c.262 0 .543.14.703.42L51.34 15.37H18.806L8.38 5.264a.816.816 0 0 1 .704-.42Zm52.79 3.58v6.945h-7.168l7.167-6.946Zm-53.602 0 7.166 6.945H8.272V8.423Zm-6.085 49.8v-36.5l18.83 18.25-18.83 18.25ZM41.5 44.104a9.192 9.192 0 0 1-12.853 0L2.263 18.533c.188-.508.665-.821 1.168-.821h63.283c.505 0 .984.316 1.168.82l-26.383 25.57ZM64.63 75.37c-6.842 0-12.548-5.393-12.856-12.312-.313-7.357 5.584-13.427 12.856-13.427 7.089 0 12.87 5.767 12.87 12.87 0 7.096-5.773 12.87-12.87 12.87Z" fill="#020202"/><path d="m70.038 58.18-6.794 6.794-3.442-3.44a1.172 1.172 0 0 0-1.657 1.657l4.27 4.27c.458.457 1.2.457 1.657 0l7.624-7.623a1.173 1.173 0 0 0-1.658-1.658Z" fill="#020202"/></g><defs><clipPath id="a"><path fill="#fff" d="M0 0h80v80H0z"/></clipPath></defs></svg>