<svg width="16" height="16" viewBox="0 0 16 16" fill="none" xmlns="http://www.w3.org/2000/svg">
<path d="M8.00001 0.5C6.51665 0.5 5.0666 0.939867 3.83323 1.76398C2.59986 2.58809 1.63856 3.75943 1.07091 5.12987C0.50325 6.50032 0.354725 8.00832 0.644114 9.46318C0.933503 10.918 1.64781 12.2544 2.6967 13.3033C3.7456 14.3522 5.08197 15.0665 6.53683 15.3559C7.99169 15.6453 9.49969 15.4968 10.8701 14.9291C12.2406 14.3614 13.4119 13.4001 14.236 12.1668C15.0601 10.9334 15.5 9.48336 15.5 8C15.4978 6.01157 14.7069 4.10522 13.3008 2.69918C11.8948 1.29315 9.98844 0.50225 8.00001 0.5ZM5.84651 5.4465L7.64651 3.6465C7.69295 3.59994 7.74813 3.56299 7.80887 3.53779C7.86962 3.51258 7.93474 3.49961 8.00051 3.49961C8.06627 3.49961 8.1314 3.51258 8.19214 3.53779C8.25289 3.56299 8.30806 3.59994 8.35451 3.6465L10.1545 5.4465C10.2023 5.49262 10.2404 5.5478 10.2666 5.6088C10.2928 5.6698 10.3066 5.73541 10.3071 5.8018C10.3077 5.86819 10.2951 5.93403 10.2699 5.99548C10.2448 6.05693 10.2077 6.11275 10.1607 6.1597C10.1138 6.20664 10.0579 6.24377 9.99649 6.26891C9.93504 6.29405 9.8692 6.3067 9.80281 6.30613C9.73642 6.30555 9.67081 6.29176 9.60981 6.26555C9.5488 6.23935 9.49363 6.20126 9.44751 6.1535L8.50001 5.207V9.6C8.50001 9.73261 8.44733 9.85979 8.35356 9.95355C8.25979 10.0473 8.13262 10.1 8.00001 10.1C7.8674 10.1 7.74022 10.0473 7.64645 9.95355C7.55269 9.85979 7.50001 9.73261 7.50001 9.6V5.207L6.55351 6.1535C6.50738 6.20126 6.45221 6.23935 6.39121 6.26555C6.33021 6.29176 6.2646 6.30555 6.19821 6.30613C6.13182 6.3067 6.06598 6.29405 6.00453 6.26891C5.94308 6.24377 5.88726 6.20664 5.84031 6.1597C5.79336 6.11275 5.75624 6.05693 5.7311 5.99548C5.70596 5.93403 5.6933 5.86819 5.69388 5.8018C5.69446 5.73541 5.70825 5.6698 5.73446 5.6088C5.76066 5.5478 5.79875 5.49262 5.84651 5.4465ZM11.65 11C11.65 11.1326 11.5973 11.2598 11.5036 11.3536C11.4098 11.4473 11.2826 11.5 11.15 11.5H4.85001C4.7174 11.5 4.59022 11.4473 4.49645 11.3536C4.40268 11.2598 4.35001 11.1326 4.35001 11V9.6C4.35001 9.46739 4.40268 9.34021 4.49645 9.24645C4.59022 9.15268 4.7174 9.1 4.85001 9.1C4.98261 9.1 5.10979 9.15268 5.20356 9.24645C5.29733 9.34021 5.35001 9.46739 5.35001 9.6V10.5H10.65V9.6C10.65 9.46739 10.7027 9.34021 10.7965 9.24645C10.8902 9.15268 11.0174 9.1 11.15 9.1C11.2826 9.1 11.4098 9.15268 11.5036 9.24645C11.5973 9.34021 11.65 9.46739 11.65 9.6V11Z" fill="#60D04E"/>
</svg>
