<svg viewBox="0 0 16 16" fill="none" xmlns="http://www.w3.org/2000/svg">
  <path d="M8.00009 10.4645C9.3605 10.4645 10.4633 9.36172 10.4633 8.00132C10.4633 6.64091 9.3605 5.53809 8.00009 5.53809C6.63969 5.53809 5.53687 6.64091 5.53687 8.00132C5.53687 9.36172 6.63969 10.4645 8.00009 10.4645Z" fill="currentcolor" />
  <path d="M15.7546 7.31908C13.8612 5.03105 10.995 2.82861 8.00003 2.82861C5.00444 2.82861 2.13764 5.03259 0.245476 7.31908C-0.0818254 7.71442 -0.0818254 8.28836 0.245476 8.6837C0.721187 9.25856 1.71849 10.3682 3.05048 11.3378C6.40506 13.7799 9.58761 13.7853 12.9496 11.3378C14.2816 10.3682 15.2789 9.25856 15.7546 8.6837C16.0809 8.28913 16.0826 7.71572 15.7546 7.31908V7.31908ZM8.00003 4.55287C9.90164 4.55287 11.4486 6.09978 11.4486 8.00139C11.4486 9.903 9.90164 11.4499 8.00003 11.4499C6.09842 11.4499 4.55151 9.903 4.55151 8.00139C4.55151 6.09978 6.09842 4.55287 8.00003 4.55287Z" fill="currentcolor" />
</svg>