<svg width="80" height="80" viewBox="0 0 80 80" fill="none" xmlns="http://www.w3.org/2000/svg">
<path d="M61.6678 20.5212H36.9877C36.642 20.5212 36.3613 20.247 36.3613 19.9092V17.4608C36.3613 15.7702 34.9594 14.4004 33.2293 14.4004H11.9318C10.2017 14.4004 8.7998 15.7702 8.7998 17.4608V62.1431C8.7998 64.4097 10.6697 65.6004 12.3998 65.6004L61.6678 62.7551C63.3976 62.7551 64.7998 61.3849 64.7998 59.6947V23.5817C64.7998 21.8911 63.3979 20.5212 61.6678 20.5212Z" fill="#019AAF"/>
<path d="M62.5126 20.5212H38.1851C37.8443 20.5212 37.5677 20.247 37.5677 19.9092V17.4608C37.5677 15.7702 36.1858 14.4004 34.4804 14.4004H13.4872C11.7818 14.4004 10.3999 15.7702 10.3999 17.4608V62.1431C10.3999 63.8336 11.7818 65.2035 13.4872 65.2035L62.5126 62.7551C64.2177 62.7551 65.5999 61.3849 65.5999 59.6947V23.5817C65.5999 21.8911 64.218 20.5212 62.5126 20.5212Z" fill="#05BAD2"/>
<g filter="url(#filter0_d_726_57328)">
<path d="M71.1998 35.4643V62.4414C71.1998 64.1426 69.8128 65.521 68.1012 65.521H12.6982C13.5535 65.521 14.3293 65.1761 14.8896 64.6193C15.4498 64.0625 15.7968 63.2914 15.7968 62.4414V35.4643C15.7968 33.7632 17.1838 32.3848 18.8954 32.3848H68.1012C69.8128 32.3848 71.1998 33.7632 71.1998 35.4643Z" fill="#7BD5E1"/>
</g>
<path d="M34.1493 58.4784C33.237 58.4767 31.6668 58.2328 30.9 57.736C29.5313 56.8493 28.625 55.304 28.625 53.5455C28.625 51.0346 30.473 48.9583 32.8763 48.6135C32.9501 43.2781 37.2754 38.9756 42.6012 38.9756C46.849 38.9756 50.4601 41.7128 51.7857 45.5279C51.8248 45.5272 51.8635 45.525 51.9028 45.525C55.4753 45.525 58.3714 48.436 58.3714 52.0269C58.3714 55.4049 55.8083 58.1794 52.5304 58.4969C52.3957 58.5098 34.1493 58.4784 34.1493 58.4784Z" fill="white"/>
<path d="M49.5244 41.8863C48.1871 41.2063 46.6712 40.8232 45.0649 40.8232C39.8417 40.8232 35.5702 44.8774 35.2642 49.993C35.2481 50.262 35.0614 50.4918 34.798 50.556C32.6552 51.0782 31.0655 52.9997 31.0655 55.2912C31.0655 56.3764 31.4224 57.3791 32.026 58.1897C31.5885 58.0739 31.1882 57.9236 30.9006 57.7364C29.531 56.8494 28.625 55.3047 28.625 53.5457C28.625 51.0352 30.473 48.9583 32.8763 48.6134C32.9506 43.2784 37.275 38.9756 42.6009 38.9756C45.3103 38.9755 47.7619 40.089 49.5244 41.8863Z" fill="#EBEEF5"/>
<defs>
<filter id="filter0_d_726_57328" x="10.6982" y="32.3848" width="60.5015" height="33.1357" filterUnits="userSpaceOnUse" color-interpolation-filters="sRGB">
<feFlood flood-opacity="0" result="BackgroundImageFix"/>
<feColorMatrix in="SourceAlpha" type="matrix" values="0 0 0 0 0 0 0 0 0 0 0 0 0 0 0 0 0 0 127 0" result="hardAlpha"/>
<feOffset dx="-2"/>
<feComposite in2="hardAlpha" operator="out"/>
<feColorMatrix type="matrix" values="0 0 0 0 0 0 0 0 0 0 0 0 0 0 0 0 0 0 0.15 0"/>
<feBlend mode="normal" in2="BackgroundImageFix" result="effect1_dropShadow_726_57328"/>
<feBlend mode="normal" in="SourceGraphic" in2="effect1_dropShadow_726_57328" result="shape"/>
</filter>
</defs>
</svg>
