<svg width="1em" height="1em" strokeWidth="2" viewBox="0 0 24 24" fill="none" xmlns="http://www.w3.org/2000/svg">
  <path d="M14.8021 11.8477L13.3606 10.4062L14.8021 8.96478C15.1808 8.58612 15.4811 8.13658 15.6861 7.64184C15.891 7.1471 15.9965 6.61684 15.9965 6.08133C15.9965 5.54583 15.891 5.01556 15.6861 4.52082C15.4811 4.02608 15.1808 3.57655 14.8021 3.19789C14.4235 2.81923 13.9739 2.51886 13.4792 2.31393C12.9844 2.109 12.4542 2.00352 11.9187 2.00352C11.3832 2.00352 10.8529 2.109 10.3582 2.31393C9.86342 2.51886 9.41388 2.81923 9.03522 3.19789L7.59375 4.63935L6.15229 3.19789L7.59375 1.75642C8.74398 0.624773 10.2948 -0.00651952 11.9084 5.07768e-05C13.5219 0.00662108 15.0675 0.650522 16.2085 1.7915C17.3495 2.93247 17.9934 4.47808 18 6.09165C18.0065 7.70522 17.3752 9.25602 16.2436 10.4062L14.8021 11.8477ZM11.9182 14.7317L10.4767 16.1731C9.91042 16.7487 9.2358 17.2065 8.49173 17.52C7.74766 17.8335 6.94888 17.9967 6.14146 18C5.33404 18.0032 4.53396 17.8466 3.78736 17.5392C3.04077 17.2317 2.36244 16.7794 1.7915 16.2085C1.22056 15.6376 0.768311 14.9592 0.460841 14.2126C0.153371 13.466 -0.00323703 12.666 5.07114e-05 11.8585C0.00333846 11.0511 0.166457 10.2523 0.479997 9.50827C0.793537 8.7642 1.25129 8.08958 1.82686 7.52331L3.26833 6.08184L4.7098 7.52331L3.26833 8.96478C2.88967 9.34344 2.5893 9.79297 2.38437 10.2877C2.17944 10.7825 2.07397 11.3127 2.07397 11.8482C2.07397 12.3837 2.17944 12.914 2.38437 13.4087C2.5893 13.9035 2.88967 14.353 3.26833 14.7317C3.64699 15.1103 4.09652 15.4107 4.59127 15.6156C5.08601 15.8206 5.61627 15.926 6.15178 15.926C6.68728 15.926 7.21754 15.8206 7.71229 15.6156C8.20703 15.4107 8.65656 15.1103 9.03522 14.7317L10.4767 13.2902L11.9182 14.7317ZM11.9182 4.63935L13.3606 6.08184L6.15229 13.2892L4.7098 11.8477L11.9182 4.64037V4.63935Z" fill="currentColor" />
</svg>