<svg width="16" height="11" viewBox="0 0 16 11" fill="none" xmlns="http://www.w3.org/2000/svg">
<path d="M15.3125 1.25C15.3125 0.93934 15.0607 0.6875 14.75 0.6875H1.25L1.17367 0.692635C0.899115 0.729882 0.6875 0.965228 0.6875 1.25C0.6875 1.56066 0.93934 1.8125 1.25 1.8125H14.75L14.8263 1.80736C15.1009 1.77012 15.3125 1.53477 15.3125 1.25Z" fill="currentcolor"/>
<path d="M12.5 4.8125C12.8107 4.8125 13.0625 5.06434 13.0625 5.375C13.0625 5.65977 12.8509 5.89512 12.5763 5.93237L12.5 5.9375H3.5C3.18934 5.9375 2.9375 5.68566 2.9375 5.375C2.9375 5.09023 3.14912 4.85488 3.42367 4.81763L3.5 4.8125H12.5Z" fill="currentcolor"/>
<path d="M10.25 8.9375C10.5607 8.9375 10.8125 9.18934 10.8125 9.5C10.8125 9.78477 10.6009 10.0201 10.3263 10.0574L10.25 10.0625H5.75C5.43934 10.0625 5.1875 9.81066 5.1875 9.5C5.1875 9.21523 5.39912 8.97988 5.67367 8.94263L5.75 8.9375H10.25Z" fill="currentcolor"/>
</svg>
