<svg width="40" height="40" viewBox="0 0 40 40" fill="none" xmlns="http://www.w3.org/2000/svg">
<path d="M34.6897 12.4619H5.31021C4.18076 12.4619 3.26514 13.3775 3.26514 14.507V27.8815H36.7347V14.507C36.7347 13.3775 35.8192 12.4619 34.6897 12.4619Z" fill="#FF9A00"/>
<path d="M8.43727 0.585938C6.99625 0.585938 5.82812 1.75414 5.82812 3.19508V36.8045C5.82812 38.2455 6.99633 39.4137 8.43727 39.4137H31.5623C33.0033 39.4137 34.1714 38.2455 34.1714 36.8045V8.63164C34.1714 8.10742 33.9631 7.60461 33.5925 7.23398L27.5234 1.16492C27.1527 0.794219 26.65 0.586016 26.1258 0.586016H8.43727V0.585938Z" fill="#F5F5F5"/>
<path d="M33.5927 7.23391L29.5697 3.21094L29.5554 9.95914C29.5545 10.3827 29.8977 10.7266 30.3213 10.7266C30.7443 10.7266 31.0872 11.0695 31.0872 11.4925V36.8045C31.0872 38.2455 29.919 39.4137 28.478 39.4137H31.5625C33.0035 39.4137 34.1716 38.2455 34.1716 36.8045V11.2772V8.63156C34.1716 8.10734 33.9634 7.60461 33.5927 7.23391Z" fill="#EAEAEA"/>
<path d="M33.5923 7.23408L27.5232 1.16502C27.3543 0.996035 27.1577 0.86127 26.9443 0.76416V5.20385C26.9443 6.64486 28.1125 7.81307 29.5535 7.81307H33.9932C33.8961 7.59963 33.7613 7.40307 33.5923 7.23408Z" fill="#A8D0D5"/>
<path d="M14.9914 19.9627L14.452 18.742C14.1247 18.0012 13.3912 17.5234 12.5814 17.5234H5.31021C4.18076 17.5234 3.26514 18.4391 3.26514 19.5685V37.369C3.26514 38.4984 4.18076 39.414 5.31021 39.414H34.6897C35.8191 39.414 36.7347 38.4984 36.7347 37.369V23.2262C36.7347 22.0968 35.8191 21.1812 34.6897 21.1812H16.8619C16.0522 21.1812 15.3187 20.7034 14.9914 19.9627Z" fill="#FFB541"/>
<path d="M11.3402 18.742L11.8796 19.9627C12.2068 20.7034 12.9404 21.1812 13.7502 21.1812H16.8617C16.0519 21.1811 15.3185 20.7033 14.9912 19.9627L14.4518 18.742C14.1246 18.0012 13.3911 17.5234 12.5812 17.5234H9.46973C10.2795 17.5235 11.0129 18.0013 11.3402 18.742Z" fill="#FFA812"/>
<path d="M34.6894 21.1812H31.5779C32.7072 21.1812 33.6227 22.0968 33.6227 23.2262V37.369C33.6227 38.4984 32.7071 39.414 31.5776 39.414H34.6893C35.8187 39.414 36.7344 38.4984 36.7344 37.369V23.2262C36.7344 22.0968 35.8188 21.1812 34.6894 21.1812Z" fill="#FFA812"/>
<path d="M15.2504 4.88117H9.45475C9.13107 4.88117 8.86865 4.61883 8.86865 4.29508C8.86865 3.97133 9.13107 3.70898 9.45475 3.70898H15.2504C15.5741 3.70898 15.8365 3.97133 15.8365 4.29508C15.8365 4.61883 15.5741 4.88117 15.2504 4.88117Z" fill="#2A2424"/>
<path d="M15.2504 8.40559H9.45475C9.13107 8.40559 8.86865 8.14324 8.86865 7.81949C8.86865 7.49574 9.13107 7.2334 9.45475 7.2334H15.2504C15.5741 7.2334 15.8365 7.49574 15.8365 7.81949C15.8365 8.14324 15.5741 8.40559 15.2504 8.40559Z" fill="#2A2424"/>
<path d="M34.7578 11.878V8.63188C34.7578 7.94734 34.4912 7.30383 34.0072 6.81969L27.9381 0.750703C27.454 0.266563 26.8105 0 26.126 0H8.43756C6.67568 0 5.24232 1.43336 5.24232 3.19531V11.878C3.82295 11.9143 2.6792 13.0794 2.6792 14.5073V37.3688C2.6792 38.8197 3.85951 40 5.31029 40H34.6898C36.1406 40 37.3209 38.8197 37.3209 37.3688C37.3209 36.3065 37.3209 15.5705 37.3209 14.5073C37.3209 13.0794 36.1772 11.9142 34.7578 11.878ZM32.7568 7.22695H29.554C28.4384 7.22695 27.5308 6.31945 27.5308 5.20391V2.00109L32.7568 7.22695ZM5.24232 13.0518V14.7833C5.24232 15.107 5.50475 15.3694 5.82842 15.3694C6.15209 15.3694 6.41451 15.107 6.41451 14.7833V3.19531C6.41451 2.07977 7.32209 1.17219 8.43756 1.17219H26.126C26.2049 1.17219 26.2824 1.18008 26.3586 1.19289V5.20391C26.3586 6.9657 27.7921 8.39914 29.554 8.39914H33.565C33.5778 8.47547 33.5857 8.55297 33.5857 8.63188V18.441C33.5857 18.7648 33.8481 19.0271 34.1718 19.0271C34.4954 19.0271 34.7579 18.7648 34.7579 18.441V13.0518C35.5307 13.0877 36.1488 13.7258 36.1488 14.5073V21.0379C35.731 20.7584 35.2292 20.5951 34.6899 20.5951H16.862C16.2847 20.5951 15.7608 20.2539 15.5275 19.7258C15.2173 19.2717 14.8513 16.9373 12.5815 16.9373H5.31029C4.771 16.9373 4.2692 17.1007 3.85139 17.3802V14.5073C3.85139 13.7258 4.46951 13.0877 5.24232 13.0518ZM36.1487 37.3688C36.1487 38.1733 35.4942 38.8278 34.6898 38.8278H5.31029C4.50584 38.8278 3.85139 38.1733 3.85139 37.3688V19.5684C3.85139 18.7639 4.50592 18.1095 5.31029 18.1095H12.5815C13.9411 18.1095 14.0883 19.608 14.4553 20.1995C14.8761 21.1519 15.8208 21.7672 16.862 21.7672H34.6897C35.4942 21.7672 36.1486 22.4217 36.1486 23.2262V37.3688H36.1487Z" fill="#2A2424"/>
</svg>
