<svg width="16" height="16" viewBox="0 0 16 16" fill="none" xmlns="http://www.w3.org/2000/svg">
<path d="M8.31442 13.3536C8.49193 13.5311 8.7697 13.5472 8.96544 13.402L9.02152 13.3536L13.6882 8.68689C13.8657 8.50938 13.8818 8.2316 13.7366 8.03586L13.6882 7.97978L9.02152 3.31311C8.82626 3.11785 8.50968 3.11785 8.31441 3.31311C8.1369 3.49062 8.12077 3.7684 8.266 3.96414L8.31441 4.02022L12.6273 8.33333L8.31442 12.6464C8.1369 12.824 8.12077 13.1017 8.266 13.2975L8.31442 13.3536Z" fill="currentcolor"/>
<path d="M2.14645 13.187C2.32396 13.3646 2.60173 13.3807 2.79747 13.2355L2.85355 13.187L7.52022 8.52038C7.69773 8.34287 7.71387 8.0651 7.56863 7.86935L7.52022 7.81328L2.85355 3.14661C2.65829 2.95135 2.34171 2.95135 2.14645 3.14661C1.96893 3.32412 1.9528 3.6019 2.09803 3.79764L2.14645 3.85372L6.45933 8.16683L2.14645 12.4799C1.96894 12.6575 1.9528 12.9352 2.09803 13.131L2.14645 13.187Z" fill="currentcolor"/>
</svg>
