<svg width="81" height="80" viewBox="0 0 81 80" fill="none" xmlns="http://www.w3.org/2000/svg">
<g clip-path="url(#clip0_726_57309)">
<path d="M23.1914 41.5001C22.3164 41.3248 21.4046 41.4015 20.5714 41.7202C19.146 42.2656 17.6022 42.5712 15.9838 42.5712C14.3654 42.5712 12.8214 42.2656 11.396 41.7202C10.5391 41.3923 9.60082 41.3285 8.70223 41.5153C6.48395 41.9765 4.52629 43.1448 3.08066 44.774L1.60254 51.5713V56.8621C1.60254 58.9924 3.33566 60.7192 5.47348 60.7192H31.4677V51.5713C31.4677 46.5897 27.9113 42.4453 23.1914 41.5001Z" fill="#7BD5E1"/>
<path d="M4.37094 59.286C3.65828 59.286 3.08062 58.7104 3.08062 58.0003V44.7744C1.47828 46.5836 0.499844 48.9672 0.5 51.5718V58.0003C0.5 60.1305 2.23312 61.8574 4.37094 61.8574H27.5967C29.2797 61.8574 30.6973 60.7807 31.2306 59.286H4.37094Z" fill="#05BAD2"/>
<path d="M22.4355 29.7147C22.4355 30.9941 22.0603 32.1864 21.4136 33.188C20.266 34.9657 18.2628 35.7616 15.9838 35.7616C12.4207 35.7616 9.81738 33.2651 9.81738 29.7147C9.81738 28.745 10.7104 25.454 12.4899 24.3095C13.4968 23.662 14.6963 23.2861 15.9838 23.2861C19.5471 23.286 22.4355 26.1641 22.4355 29.7147Z" fill="#7BD5E1"/>
<path d="M17.9193 34.2147C14.3561 34.2147 11.4677 31.3366 11.4677 27.7862C11.4677 26.5055 11.8421 25.3118 12.4899 24.3096C10.7074 25.4536 9.53223 27.4452 9.53223 29.7147C9.53223 33.2651 12.4207 36.1433 15.9838 36.1433C18.2616 36.1433 20.2655 34.9642 21.4136 33.1881C20.4077 33.8336 19.2046 34.2147 17.9193 34.2147Z" fill="#05BAD2"/>
<path d="M72.1843 41.4925C71.3218 41.3233 70.4191 41.4089 69.5983 41.7226C68.1744 42.2666 66.6325 42.5715 65.0161 42.5715C63.3999 42.5715 61.858 42.2666 60.4339 41.7226C59.6132 41.4089 58.7105 41.3233 57.848 41.4925C53.1085 42.4225 49.5321 46.576 49.5322 51.5714V57.9999C49.5322 60.1301 51.2653 61.8571 53.4032 61.8571H76.6289C78.7668 61.8571 80.4999 60.1301 80.4999 57.9999V51.5714C80.5 46.576 76.9236 42.4225 72.1843 41.4925Z" fill="#7BD5E1"/>
<path d="M49.5324 22C49.5324 23.9112 48.9344 25.6835 47.9148 27.1409C46.2829 29.4736 43.5704 30.4016 40.5002 30.4016C35.5118 30.4016 32.0801 26.9706 32.0801 22C32.0801 18.9425 32.9982 16.241 35.337 14.6145C36.8004 13.5969 38.5804 13 40.5002 13C45.4887 13 49.5324 17.0293 49.5324 22Z" fill="#05BAD2"/>
<path d="M50.8804 36.4829C50.0187 36.2565 49.0879 36.3657 48.3003 36.7807C45.9696 38.0088 43.3201 38.7141 40.5001 38.7141C37.6801 38.7141 35.0304 38.0088 32.7 36.7807C31.9123 36.3657 30.9814 36.2565 30.1198 36.4829C28.1157 37.0093 26.3481 38.1231 25.0164 39.6256L23.3584 46.4285V60.6972C23.3584 63.5375 25.6692 65.8401 28.5196 65.8401H53.4034L57.8742 64.4286C58.3134 63.6721 58.5646 62.794 58.5646 61.8572V46.4284C58.5645 41.6566 55.3031 37.6445 50.8804 36.4829Z" fill="#05BAD2"/>
<path d="M27.5968 64.429C26.1715 64.429 25.0162 63.2777 25.0162 61.8576V39.626C23.4129 41.4382 22.4355 43.823 22.4355 46.429V61.8576C22.4355 64.6979 24.7463 67.0004 27.5968 67.0004H53.4032C55.3088 67.0004 56.9799 65.9598 57.874 64.429H27.5968Z" fill="#019AAF"/>
<path d="M42.7507 28.7569C37.7625 28.7569 33.7186 24.7274 33.7186 19.7569C33.7186 17.8447 34.3164 16.072 35.3368 14.6143C32.997 16.2406 31.4678 18.9414 31.4678 21.9997C31.4678 26.9702 35.5117 30.9996 40.5 30.9996C43.5693 30.9996 46.2824 29.4721 47.9146 27.1405C46.4515 28.1576 44.6699 28.7569 42.7507 28.7569Z" fill="#019AAF"/>
<path d="M71.4677 29.7147C71.4677 30.9941 71.0926 32.1864 70.4459 33.188C69.2982 34.9657 67.2951 35.7616 65.016 35.7616C61.4529 35.7616 58.8496 33.2651 58.8496 29.7147C58.8496 28.745 59.7426 25.454 61.5221 24.3095C62.529 23.662 63.7285 23.2861 65.016 23.2861C68.5792 23.286 71.4677 26.1641 71.4677 29.7147Z" fill="#7BD5E1"/>
<path d="M66.9515 34.2147C63.3884 34.2147 60.4999 31.3366 60.4999 27.7862C60.4999 26.5055 60.8743 25.3118 61.5221 24.3096C59.7396 25.4536 58.5645 27.4452 58.5645 29.7147C58.5645 33.2651 61.4529 36.1433 65.016 36.1433C67.2938 36.1433 69.2977 34.9642 70.4459 33.1881C69.4399 33.8336 68.237 34.2147 66.9515 34.2147Z" fill="#05BAD2"/>
</g>
<defs>
<clipPath id="clip0_726_57309">
<rect width="80" height="80" fill="white" transform="translate(0.5)"/>
</clipPath>
</defs>
</svg>
