<svg width="186" height="204" viewBox="0 0 186 204" fill="none" xmlns="http://www.w3.org/2000/svg">
<rect x="113.519" y="18" width="134.398" height="134.398" rx="67.1988" transform="rotate(57.6341 113.519 18)" fill="#F6F7FB"/>
<g clip-path="url(#clip0_726_57364)">
<path d="M92.7325 92.1354L92.2242 87.8359L80.1239 90.7322L75.3848 97.1239L76.5601 101.68L69.9487 106.566L70.957 118.9L76.6264 120.031L84.1574 120.732L91.2158 115.482L92.7325 110.729L96.2576 108.949L96.7161 97.8572L92.7325 92.1354Z" fill="#40C7DA"/>
<path d="M112.391 118.901C112.394 118.885 112.393 118.871 112.389 118.858C112.386 118.911 112.387 118.929 112.391 118.901Z" fill="#05BAD2"/>
<path d="M108.839 101.435L111.03 94.8837L95.9894 89.4971L92.7324 92.136V110.73L92.2334 116.279L101.66 121.753L108.839 120.032C108.882 119.958 112.259 118.479 112.389 118.858C112.443 117.926 113.675 105.191 113.675 105.191L108.839 101.435Z" fill="#05BAD2"/>
<path d="M92.7324 129.331C92.6467 129.331 92.5611 129.308 92.4851 129.264L93.1514 124.009L81.9982 118.914L76.6265 120.032C76.5828 119.958 76.5602 119.874 76.5602 119.785V101.681C76.5602 101.593 76.5828 101.509 76.6265 101.435V101.433V97.1705L63.1417 89.4971L58.0921 90.7328C58.0565 90.7942 58.0371 90.8637 58.0371 90.9365V130.53C58.0371 130.676 58.1147 130.81 58.2392 130.881L92.5287 150.679C92.5918 150.715 92.6613 150.733 92.7324 150.733L94.7076 147.024L96.0717 133.278L92.7324 129.331Z" fill="#05BAD2"/>
<path d="M127.373 90.7329L119.665 88.3721L106.45 97.7983L108.905 101.681V119.785C108.905 119.874 108.882 119.958 108.839 120.032L102.318 120.115L92.2334 126.147L92.7324 129.331V150.733C92.8036 150.733 92.8731 150.715 92.9361 150.68L127.226 130.881C127.35 130.81 127.428 130.676 127.428 130.53V90.9368C127.428 90.8639 127.408 90.7944 127.373 90.7329Z" fill="#B0E6ED"/>
<path d="M65.5782 94.9946C65.5782 94.9194 65.5976 94.8478 65.6332 94.7843L70.3428 93.595L63.1417 89.4971L58.0921 90.7328C58.0565 90.7942 58.0371 90.8637 58.0371 90.9365V130.53C58.0371 130.676 58.1147 130.81 58.2392 130.881L65.5782 135.118V94.9946Z" fill="#019AAF"/>
<path d="M92.9363 70.787L127.226 90.5838C127.289 90.6193 127.339 90.6711 127.373 90.7325L108.839 101.434C108.797 101.36 108.735 101.297 108.658 101.253L92.98 92.202C92.904 92.1583 92.8183 92.1357 92.7326 92.1357C92.647 92.1357 92.5613 92.1583 92.4853 92.202L76.8076 101.253C76.7316 101.297 76.6686 101.36 76.6265 101.433L58.0923 90.7325C58.1262 90.6711 58.1763 90.6193 58.2394 90.5838L92.5289 70.787C92.655 70.7142 92.8102 70.7142 92.9363 70.787Z" fill="#69D6E4"/>
<path opacity="0.4" d="M99.1065 74.3493L92.9363 70.787C92.8102 70.7142 92.655 70.7142 92.5289 70.787L58.2394 90.5838C58.1763 90.6193 58.1262 90.6711 58.0923 90.7325L65.5889 95.0604L99.1065 74.3493Z" fill="#019AAF"/>
<path d="M92.7326 129.33C92.6469 129.33 92.5612 129.307 92.4852 129.264L76.8075 120.212C76.7315 120.167 76.6685 120.106 76.6265 120.031L92.7326 110.729L108.839 120.031C108.797 120.106 108.734 120.167 108.658 120.212L92.9799 129.264C92.9039 129.307 92.8183 129.33 92.7326 129.33Z" fill="#8EDDE8"/>
</g>
<path d="M147.742 11.2002H100.258C97.7917 11.2002 95.5777 12.2586 94.0645 13.937L93.2642 19.2849V48.5979C93.2642 53.0628 95.6973 56.6824 100.258 56.6824H111.436C112.258 56.6824 113.045 58.0061 113.626 58.5747L123.339 68.0837L125.429 68.3612C125.548 68.28 125.661 68.1875 125.767 68.0837L135.48 58.5747C136.061 58.0061 136.849 57.6867 137.67 57.6867H147.742C152.303 57.6867 156 54.0672 156 49.6022V19.2849C156 14.8198 152.303 11.2002 147.742 11.2002Z" fill="#7175DC"/>
<path d="M112.52 58.5743L122.233 68.0833C123.103 68.9349 124.455 69.0273 125.429 68.3608L113.98 57.1452C113.019 56.2047 111.689 55.6653 110.33 55.6653H100.258C96.8427 55.6653 94.0646 52.9454 94.0646 49.6019V13.9365C92.7834 15.3608 92 17.2373 92 19.2844V49.6017C92 54.0667 95.6972 57.6864 100.258 57.6864H110.33C111.151 57.6863 111.939 58.0057 112.52 58.5743Z" fill="#4E4BC9"/>
<path d="M140.453 30.4487C139.953 26.0827 136.183 22.6179 131.704 22.3334C128.992 22.1611 126.512 23.1172 124.691 24.7629C124.299 25.1171 123.7 25.1171 123.308 24.7629C121.487 23.1172 119.008 22.1611 116.295 22.3334C115.213 22.4022 114.173 22.6564 113.21 23.0641C110.186 24.3443 108.128 30.4487 108.128 30.4487C107.068 39.7041 119.845 47.1756 123.644 49.3863L126.27 49.2874C131.004 46.3519 141.419 38.8794 140.453 30.4487Z" fill="white"/>
<path d="M109.779 29.1199C110.057 26.6947 111.353 24.5429 113.21 23.0645C110.191 24.3463 107.926 27.1409 107.546 30.449C106.486 39.7045 119.141 47.8053 122.94 50.016C123.595 50.3974 124.404 50.3974 125.059 50.016C125.397 49.8195 125.807 49.5742 126.269 49.2879C123.848 47.9517 108.631 39.1354 109.779 29.1199Z" fill="#DADFEA"/>
<defs>
<clipPath id="clip0_726_57364">
<rect width="80" height="80" fill="white" transform="translate(52.7324 70.7324)"/>
</clipPath>
</defs>
</svg>
