<svg width="19" height="18" viewBox="0 0 19 18" fill="none" xmlns="http://www.w3.org/2000/svg">
<path d="M9.50001 0.5625C7.83123 0.5625 6.19992 1.05735 4.81238 1.98448C3.42484 2.9116 2.34339 4.22936 1.70477 5.77111C1.06616 7.31286 0.899065 9.00936 1.22463 10.6461C1.55019 12.2828 2.35379 13.7862 3.53379 14.9662C4.7138 16.1462 6.21722 16.9498 7.85393 17.2754C9.49065 17.6009 11.1872 17.4338 12.7289 16.7952C14.2707 16.1566 15.5884 15.0752 16.5155 13.6876C17.4427 12.3001 17.9375 10.6688 17.9375 9C17.935 6.76301 17.0452 4.61837 15.4634 3.03658C13.8816 1.45479 11.737 0.565031 9.50001 0.5625ZM7.07732 6.12731L9.10232 4.10231C9.15457 4.04993 9.21664 4.00837 9.28498 3.98001C9.35332 3.95165 9.42658 3.93706 9.50057 3.93706C9.57456 3.93706 9.64782 3.95165 9.71616 3.98001C9.7845 4.00837 9.84657 4.04993 9.89882 4.10231L11.9238 6.12731C11.9775 6.1792 12.0204 6.24127 12.0499 6.3099C12.0794 6.37852 12.0949 6.45234 12.0955 6.52702C12.0962 6.60171 12.0819 6.67578 12.0537 6.74491C12.0254 6.81404 11.9836 6.87684 11.9308 6.92966C11.878 6.98247 11.8152 7.02424 11.746 7.05252C11.6769 7.08081 11.6028 7.09504 11.5282 7.09439C11.4535 7.09374 11.3797 7.07822 11.311 7.04874C11.2424 7.01926 11.1803 6.97641 11.1284 6.92269L10.0625 5.85787V10.8C10.0625 10.9492 10.0032 11.0923 9.89776 11.1977C9.79227 11.3032 9.64919 11.3625 9.50001 11.3625C9.35082 11.3625 9.20775 11.3032 9.10226 11.1977C8.99677 11.0923 8.93751 10.9492 8.93751 10.8V5.85787L7.87269 6.92269C7.82081 6.97641 7.75874 7.01926 7.69011 7.04874C7.62148 7.07822 7.54767 7.09374 7.47298 7.09439C7.39829 7.09504 7.32422 7.08081 7.2551 7.05252C7.18597 7.02424 7.12316 6.98247 7.07035 6.92966C7.01753 6.87684 6.97577 6.81404 6.94748 6.74491C6.9192 6.67578 6.90497 6.60171 6.90562 6.52702C6.90627 6.45234 6.92178 6.37852 6.95126 6.3099C6.98074 6.24127 7.02359 6.1792 7.07732 6.12731ZM13.6063 12.375C13.6063 12.5242 13.547 12.6673 13.4415 12.7727C13.336 12.8782 13.1929 12.9375 13.0438 12.9375H5.95626C5.80707 12.9375 5.664 12.8782 5.55851 12.7727C5.45302 12.6673 5.39376 12.5242 5.39376 12.375V10.8C5.39376 10.6508 5.45302 10.5077 5.55851 10.4023C5.664 10.2968 5.80707 10.2375 5.95626 10.2375C6.10544 10.2375 6.24851 10.2968 6.354 10.4023C6.45949 10.5077 6.51876 10.6508 6.51876 10.8V11.8125H12.4813V10.8C12.4813 10.6508 12.5405 10.5077 12.646 10.4023C12.7515 10.2968 12.8946 10.2375 13.0438 10.2375C13.1929 10.2375 13.336 10.2968 13.4415 10.4023C13.547 10.5077 13.6063 10.6508 13.6063 10.8V12.375Z" fill="#05BAD2"/>
</svg>
