<svg width="40" height="41" viewBox="0 0 40 41" fill="none" xmlns="http://www.w3.org/2000/svg">
<g clip-path="url(#clip0_1293_70290)">
<path d="M30.1553 8.98999V35.3364C30.1553 36.1641 29.4843 36.8342 28.656 36.8342H4.74121C3.91296 36.8342 3.24219 36.1641 3.24219 35.3364V2.58374C3.24219 1.7561 3.91418 1.08594 4.74121 1.08594H22.3251C22.5739 1.08594 22.8168 1.13995 23.0392 1.24341C23.2245 1.32733 23.3951 1.44635 23.5406 1.59406L29.6622 7.79156C29.8065 7.93683 29.9219 8.1062 30.0037 8.28992C30.1035 8.50842 30.1553 8.74615 30.1553 8.98999Z" fill="#E9EDF1"/>
<path d="M30.0037 8.28992H24.5386C23.7101 8.28992 23.0393 7.61975 23.0393 6.79211V1.24341C23.2245 1.32733 23.3951 1.44635 23.5407 1.59406L29.6622 7.79156C29.8066 7.93683 29.9222 8.1062 30.0037 8.28992Z" fill="#A7C7D3"/>
<path d="M6.75879 12.2737H27.0261V15.6633H6.75879V12.2737Z" fill="#3DC5A1"/>
<path d="M9.38452 6.39752C9.38452 5.67334 8.79675 5.08618 8.07166 5.08618C7.34656 5.08618 6.75879 5.67334 6.75879 6.39752C6.75879 7.12201 7.34656 7.70917 8.07166 7.70917C8.79675 7.70917 9.38452 7.12201 9.38452 6.39752Z" fill="#3DC5A1"/>
<path d="M22.0106 33.9814C22.0106 35.6306 21.338 37.1226 20.2506 38.1978V38.1987C19.1794 39.2585 17.7051 39.9138 16.0786 39.9138C14.4581 39.9138 12.9886 39.2634 11.9184 38.21C10.8246 37.1339 10.1462 35.637 10.1462 33.9814C10.1462 30.7054 12.8025 28.0491 16.0786 28.0491C19.3546 28.0491 22.0106 30.7054 22.0106 33.9814Z" fill="#FDB659"/>
<path d="M16.0784 28.0491C15.6938 28.0491 15.3182 28.0873 14.9541 28.1572C17.6924 28.6827 19.7621 31.0899 19.7621 33.9814C19.7621 35.6309 19.0892 37.1226 18.0022 38.1981V38.1987C17.184 39.008 16.1309 39.5802 14.9541 39.806C15.3182 39.8759 15.6938 39.9138 16.0784 39.9138C17.705 39.9138 19.1793 39.2585 20.2504 38.1987V38.1978C21.3378 37.1226 22.0104 35.6306 22.0104 33.9814C22.0104 30.7054 19.3544 28.0491 16.0784 28.0491Z" fill="#FD9E28"/>
<path d="M20.2507 38.1978V38.1987C19.1795 39.2585 17.7052 39.9138 16.0786 39.9138C14.4581 39.9138 12.9887 39.2634 11.9185 38.21C11.9963 37.8718 12.1867 37.5612 12.462 37.3091C12.8499 36.9523 13.3687 36.7717 13.8954 36.7717H18.2762C18.8038 36.7717 19.3217 36.9523 19.7102 37.3091C19.9818 37.5587 20.171 37.8639 20.2507 38.1978Z" fill="#FF7E09"/>
<path d="M20.2504 38.1978C20.1711 37.8639 19.9816 37.5587 19.71 37.3091C19.5037 37.1196 19.2601 36.9813 18.9986 36.8919C18.7273 37.3726 18.3919 37.8123 18.0022 38.1978V38.1987C17.184 39.008 16.1309 39.5802 14.9541 39.806C15.1354 39.8408 15.3197 39.8677 15.5065 39.8857C15.5211 39.8872 15.5361 39.8878 15.5507 39.889C15.6295 39.8961 15.7082 39.9025 15.7878 39.9064C15.884 39.911 15.981 39.9135 16.0784 39.9135C16.8917 39.9135 17.6671 39.7499 18.3727 39.4536C19.0786 39.1572 19.7148 38.7285 20.2504 38.1987V38.1978Z" fill="#EA6A0A"/>
<path d="M17.1552 34.1633L16.4872 34.5704C16.2406 34.7209 15.9312 34.7209 15.6843 34.5704L15.0162 34.1633C14.7861 34.0229 14.6458 33.7727 14.6458 33.5029V31.7137C14.6458 31.2217 15.044 30.8229 15.5353 30.8229H16.6364C17.1277 30.8229 17.526 31.2217 17.526 31.7137V33.5029C17.526 33.7727 17.3856 34.0229 17.1552 34.1633Z" fill="white"/>
<path d="M29.3771 33.9814C29.3771 35.6306 28.7042 37.1226 27.6168 38.1978V38.1987C26.5457 39.2585 25.0717 39.9138 23.4448 39.9138C21.8243 39.9138 20.3549 39.2634 19.2846 38.21C18.1912 37.1339 17.5125 35.637 17.5125 33.9814C17.5125 30.7054 20.1687 28.0491 23.4448 28.0491C26.7211 28.0491 29.3771 30.7054 29.3771 33.9814Z" fill="#83D9FF"/>
<path d="M23.4448 28.0491C23.0603 28.0491 22.6846 28.0873 22.3206 28.1572C25.0589 28.6827 27.1286 31.0899 27.1286 33.9814C27.1286 35.6309 26.4557 37.1226 25.3687 38.1981V38.1987C24.5505 39.008 23.4973 39.5802 22.3206 39.806C22.6846 39.8759 23.0603 39.9138 23.4448 39.9138C25.0714 39.9138 26.5457 39.2585 27.6169 38.1987V38.1978C28.7042 37.1226 29.3768 35.6306 29.3768 33.9814C29.3771 30.7054 26.7209 28.0491 23.4448 28.0491Z" fill="#5FC9ED"/>
<path d="M27.6169 38.1978V38.1987C26.5457 39.2585 25.0714 39.9138 23.4448 39.9138C21.8243 39.9138 20.3549 39.2634 19.2847 38.21C19.3625 37.8718 19.5529 37.5612 19.8282 37.3091C20.2161 36.9523 20.7349 36.7717 21.2616 36.7717H25.6424C26.17 36.7717 26.6879 36.9523 27.0764 37.3091C27.348 37.5587 27.5375 37.8639 27.6169 38.1978Z" fill="#5186FF"/>
<path d="M27.6169 38.1978C27.5375 37.8639 27.348 37.5587 27.0764 37.3091C26.8701 37.1196 26.6266 36.9813 26.3651 36.8919C26.0938 37.3726 25.7584 37.8123 25.3687 38.1978V38.1987C24.5505 39.008 23.4973 39.5802 22.3206 39.806C22.5018 39.8408 22.6862 39.8677 22.8729 39.8857C22.8876 39.8872 22.9025 39.8878 22.9172 39.889C22.9959 39.8961 23.0746 39.9025 23.1543 39.9064C23.2504 39.911 23.3475 39.9135 23.4448 39.9135C24.2581 39.9135 25.0336 39.7499 25.7391 39.4536C26.445 39.1572 27.0813 38.7285 27.6169 38.1987V38.1978Z" fill="#476EEA"/>
<path d="M24.5217 34.1633L23.8537 34.5704C23.6071 34.7209 23.2974 34.7209 23.0508 34.5704L22.3828 34.1633C22.1526 34.0229 22.012 33.7727 22.012 33.5029V31.7137C22.012 31.2217 22.4102 30.8229 22.9016 30.8229H24.0029C24.4943 30.8229 24.8925 31.2217 24.8925 31.7137V33.5029C24.8922 33.7727 24.7518 34.0229 24.5217 34.1633Z" fill="white"/>
<path d="M36.7769 33.9814C36.7769 35.6306 36.104 37.1226 35.017 38.1978V38.1987C33.9458 39.2585 32.4715 39.9138 30.8449 39.9138C29.2244 39.9138 27.755 39.2634 26.6848 38.21C25.591 37.1339 24.9126 35.637 24.9126 33.9814C24.9126 30.7054 27.5688 28.0491 30.8449 28.0491C34.121 28.0491 36.7769 30.7054 36.7769 33.9814Z" fill="#FFB8D5"/>
<path d="M30.8447 28.0491C30.4601 28.0491 30.0848 28.0873 29.7207 28.1572C32.459 28.6827 34.5287 31.0899 34.5287 33.9814C34.5287 35.6309 33.8558 37.1226 32.7688 38.1981V38.1987C31.9506 39.008 30.8972 39.5802 29.7207 39.806C30.0848 39.8759 30.4604 39.9138 30.8447 39.9138C32.4716 39.9138 33.9459 39.2585 35.017 38.1987V38.1978C36.1041 37.1226 36.777 35.6306 36.777 33.9814C36.777 30.7054 34.121 28.0491 30.8447 28.0491Z" fill="#F49DC4"/>
<path d="M35.017 38.1978V38.1987C33.9459 39.2585 32.4716 39.9138 30.845 39.9138C29.2245 39.9138 27.7551 39.2634 26.6848 38.21C26.7626 37.8718 26.9531 37.5612 27.2283 37.3091C27.6162 36.9523 28.135 36.7717 28.6617 36.7717H33.0425C33.5702 36.7717 34.0881 36.9523 34.4766 37.3091C34.7482 37.5587 34.9374 37.8639 35.017 38.1978Z" fill="#FF84A7"/>
<path d="M35.017 38.1978C34.9377 37.8639 34.7482 37.5587 34.4766 37.3091C34.2703 37.1196 34.0267 36.9813 33.7652 36.8919C33.4939 37.3726 33.1585 37.8123 32.7688 38.1978V38.1987C31.9506 39.008 30.8972 39.5802 29.7207 39.806C29.9023 39.8408 30.0863 39.8677 30.2731 39.8857C30.2877 39.8872 30.3027 39.8878 30.3173 39.889C30.3958 39.8961 30.4748 39.9025 30.5544 39.9064C30.6506 39.911 30.7473 39.9135 30.845 39.9135C31.6583 39.9135 32.4337 39.7499 33.1393 39.4536C33.8452 39.1572 34.4814 38.7285 35.017 38.1987V38.1978Z" fill="#EF6085"/>
<path d="M31.9216 34.1633L31.2535 34.5704C31.007 34.7209 30.6975 34.7209 30.4506 34.5704L29.7826 34.1633C29.5525 34.0229 29.4121 33.7727 29.4121 33.5029V31.7137C29.4121 31.2217 29.8104 30.8229 30.3017 30.8229H31.4028C31.8941 30.8229 32.2924 31.2217 32.2924 31.7137V33.5029C32.2924 33.7727 32.152 34.0229 31.9216 34.1633Z" fill="white"/>
<path d="M8.07166 8.2951C9.11841 8.2951 9.97046 7.44397 9.97046 6.39752C9.97046 5.35138 9.11841 4.50024 8.07166 4.50024C7.0246 4.50024 6.17285 5.35138 6.17285 6.39752C6.17285 7.44397 7.0246 8.2951 8.07166 8.2951ZM8.07166 5.67212C8.47235 5.67212 8.79858 5.99774 8.79858 6.39783C8.79858 6.79791 8.47235 7.12323 8.07166 7.12323C7.67065 7.12323 7.34473 6.79791 7.34473 6.39783C7.34473 5.99774 7.67065 5.67212 8.07166 5.67212Z" fill="black"/>
<path d="M8.14117 36.2483H4.74152C4.23767 36.2483 3.82812 35.8394 3.82812 35.3367V2.58374C3.82812 2.08081 4.23767 1.67188 4.74152 1.67188H17.6724C17.9959 1.67188 18.2584 1.40942 18.2584 1.08594C18.2584 0.762451 17.9959 0.5 17.6724 0.5H4.74152C3.59161 0.5 2.65625 1.43475 2.65625 2.58374V35.3367C2.65625 36.4857 3.59161 37.4202 4.74152 37.4202H8.14117C8.46466 37.4202 8.72711 37.158 8.72711 36.8342C8.72711 36.5107 8.46466 36.2483 8.14117 36.2483Z" fill="black"/>
<path d="M35.4672 38.5688C36.6373 37.39 37.3615 35.7689 37.3615 33.9814C37.3615 30.3874 34.4348 27.4632 30.8374 27.4632C30.8054 27.4632 30.7733 27.4653 30.7413 27.4656V8.98999C30.7413 8.66101 30.6723 8.34363 30.5392 8.05157C30.4276 7.80072 30.2725 7.57428 30.0793 7.37958L23.9581 1.18268C23.7622 0.983704 23.5345 0.824402 23.2861 0.711792C23.2849 0.711182 23.284 0.710876 23.2831 0.710266C23.2825 0.710266 23.2822 0.709961 23.2816 0.709656C23.2806 0.709351 23.28 0.709045 23.2794 0.70874C22.9785 0.570496 22.6575 0.5 22.3251 0.5H20.2704C19.9466 0.5 19.6844 0.762451 19.6844 1.08594C19.6844 1.40942 19.9466 1.67188 20.2704 1.67188H22.3251C22.3682 1.67188 22.4109 1.67462 22.4533 1.6795V6.79211C22.4533 7.9411 23.3887 8.87585 24.5383 8.87585H29.5633C29.5673 8.91339 29.5691 8.95154 29.5691 8.98999V27.588C28.6844 27.7629 27.8638 28.1169 27.1463 28.611C26.058 27.8596 24.79 27.4635 23.4506 27.4635C22.1152 27.4635 20.8502 27.8572 19.7644 28.6042C18.678 27.8572 17.413 27.4635 16.0779 27.4635C12.4811 27.4635 9.55444 30.3874 9.55444 33.9814C9.55444 35.0779 9.83215 36.1622 10.3577 37.1168C10.6635 37.6732 11.0489 38.1816 11.503 38.6281C11.5103 38.6351 11.5179 38.6415 11.525 38.6485C11.5253 38.6488 11.5259 38.6491 11.5262 38.6494C12.7512 39.8427 14.3661 40.5 16.0779 40.5C17.413 40.5 18.678 40.1063 19.7644 39.3593C20.8505 40.1063 22.1152 40.5 23.4503 40.5C24.79 40.5 26.0583 40.1039 27.1463 39.3522C28.197 40.0752 29.4684 40.4997 30.8374 40.4997C32.5992 40.4997 34.1986 39.7975 35.3735 38.6598C35.408 38.6329 35.4395 38.6024 35.4672 38.5688ZM24.5386 7.70398C24.0347 7.70398 23.6252 7.29474 23.6252 6.79211V2.51355L28.7524 7.70398H24.5386ZM36.1896 33.9814C36.1896 35.1722 35.7974 36.2733 35.1358 37.1632C35.0552 37.0628 34.9664 36.967 34.8685 36.877C34.3823 36.4311 33.732 36.1857 33.0374 36.1857H28.652C27.9568 36.1857 27.3068 36.4314 26.8219 36.8766C26.7206 36.9694 26.629 37.0689 26.5463 37.173C25.8801 36.2816 25.4852 35.1768 25.4852 33.9814C25.4852 31.2449 27.5546 28.9836 30.2118 28.6729C30.2161 28.6723 30.2203 28.6717 30.2249 28.6711C30.426 28.6482 30.6302 28.6351 30.8374 28.6351C33.7888 28.6351 36.1896 31.0334 36.1896 33.9814ZM24.2236 33.6628L23.555 34.0699C23.4952 34.1066 23.4207 34.1066 23.3609 34.0699L22.6923 33.6628C22.6367 33.629 22.6022 33.5676 22.6022 33.5029V31.7137C22.6022 31.5455 22.739 31.4088 22.9068 31.4088H24.0091C24.1769 31.4088 24.3134 31.5455 24.3134 31.7137V33.5029C24.3137 33.5679 24.2792 33.629 24.2236 33.6628ZM26.2057 29.3965C25.7965 29.8091 25.4431 30.276 25.1553 30.7847C24.8843 30.4509 24.4714 30.2369 24.0091 30.2369H22.9068C22.0929 30.2369 21.4307 30.8995 21.4307 31.7137V33.5029C21.4307 33.9738 21.6806 34.4188 22.0828 34.6638L22.7515 35.0709C22.9694 35.2037 23.2138 35.2699 23.4579 35.2699C23.7024 35.2699 23.9468 35.2037 24.1647 35.0709L24.3845 34.9373C24.4482 35.3685 24.5541 35.7863 24.6985 36.186H21.2656C20.5719 36.186 19.9231 36.4302 19.4379 36.8736C19.4101 36.8983 19.3832 36.924 19.3594 36.9478C19.2868 37.0201 19.2197 37.0961 19.1574 37.1748C18.9975 36.9603 18.8531 36.7335 18.7262 36.4958C18.7259 36.4955 18.7256 36.4949 18.7253 36.4946C18.725 36.4937 18.7247 36.4927 18.7241 36.4921C18.3148 35.7252 18.0984 34.857 18.0984 33.9814C18.0984 32.339 18.8382 30.8113 20.1288 29.7899C21.0818 29.0345 22.2305 28.6354 23.4506 28.6354C24.4379 28.6354 25.3778 28.8969 26.2057 29.3965ZM16.8515 33.6628L16.1829 34.0699C16.123 34.1066 16.0486 34.1066 15.9888 34.0699L15.3198 33.6628C15.2646 33.629 15.2301 33.5676 15.2301 33.5029V31.7137C15.2301 31.5455 15.3668 31.4088 15.5347 31.4088H16.6367C16.8045 31.4088 16.9412 31.5455 16.9412 31.7137V33.5029C16.9412 33.5679 16.907 33.629 16.8515 33.6628ZM16.0779 28.6354C17.0596 28.6354 17.9953 28.8942 18.8208 29.3889C18.4067 29.8042 18.0548 30.2684 17.7704 30.7692C17.4994 30.4442 17.092 30.2369 16.637 30.2369H15.5347C14.7205 30.2369 14.0582 30.8995 14.0582 31.7137V33.5026C14.0582 33.9738 14.3082 34.4188 14.7104 34.6635L15.3793 35.0709C15.5972 35.2037 15.8414 35.2699 16.0858 35.2699C16.33 35.2699 16.5744 35.2037 16.7923 35.0709L16.9986 34.9452C17.0618 35.3685 17.1667 35.7844 17.3108 36.186H13.8928C13.1979 36.186 12.5479 36.4314 12.063 36.8763C11.9611 36.9697 11.8692 37.0698 11.7859 37.1745C11.6382 36.9764 11.5036 36.7689 11.3843 36.5519C10.954 35.7698 10.7266 34.8811 10.7266 33.9814C10.7266 31.0334 13.1271 28.6354 16.0779 28.6354ZM12.6047 38.047C12.6685 37.9377 12.7521 37.8343 12.8546 37.7403C13.1235 37.4937 13.4921 37.3579 13.8928 37.3579H17.8705C18.139 37.8007 18.4583 38.2084 18.8223 38.5734C17.9965 39.0687 17.0602 39.3281 16.0779 39.3281C14.7919 39.3281 13.5727 38.8749 12.6047 38.047ZM20.1279 38.173C20.0763 38.1321 20.0262 38.0891 19.9762 38.0464C20.0311 37.9521 20.1016 37.8621 20.1862 37.7784C20.1965 37.7681 20.2072 37.7574 20.2188 37.7473C20.2213 37.7452 20.224 37.7427 20.2264 37.7403C20.4953 37.4937 20.8643 37.3579 21.2656 37.3579H25.2588C25.5264 37.7977 25.845 38.2029 26.2057 38.5667C25.3778 39.0666 24.4379 39.3281 23.4506 39.3281C22.2305 39.3281 21.0818 38.929 20.1279 38.173ZM27.3648 38.0446C27.4286 37.9365 27.5116 37.834 27.6138 37.7406C27.8824 37.4937 28.2513 37.3576 28.652 37.3576H33.0374C33.4381 37.3576 33.8071 37.4937 34.0762 37.7403C34.1754 37.8315 34.2569 37.9313 34.3198 38.0363C33.3832 38.8405 32.1664 39.3278 30.8374 39.3278C29.5129 39.3278 28.3005 38.8438 27.3648 38.0446Z" fill="black"/>
<path d="M28.8174 31.7137V33.5029C28.8174 33.9738 29.0673 34.4188 29.4695 34.6638L30.1382 35.0709C30.3564 35.2037 30.6005 35.2699 30.845 35.2699C31.0891 35.2699 31.3336 35.2037 31.5515 35.0709L32.2201 34.6638C32.6223 34.4188 32.8723 33.9738 32.8723 33.5029V31.7137C32.8723 30.8995 32.21 30.2369 31.3958 30.2369H30.2938C29.4796 30.2369 28.8174 30.8995 28.8174 31.7137ZM31.7004 31.7137V33.5029C31.7004 33.5679 31.6659 33.629 31.6107 33.6628L30.942 34.0699C30.8822 34.1066 30.8077 34.1066 30.7476 34.0699L30.079 33.6628C30.0237 33.629 29.9893 33.5679 29.9893 33.5029V31.7137C29.9893 31.5455 30.126 31.4088 30.2938 31.4088H31.3958C31.564 31.4088 31.7004 31.5455 31.7004 31.7137Z" fill="black"/>
<path d="M27.0261 27.1245C27.3499 27.1245 27.6121 26.862 27.6121 26.5385V12.3661C27.6121 12.0427 27.3499 11.7802 27.0261 11.7802H6.75879C6.4353 11.7802 6.17285 12.0427 6.17285 12.3661V26.5385C6.17285 26.862 6.4353 27.1245 6.75879 27.1245C7.08228 27.1245 7.34473 26.862 7.34473 26.5385V22.8428H12.9285V26.5385C12.9285 26.862 13.191 27.1245 13.5145 27.1245C13.8383 27.1245 14.1004 26.862 14.1004 26.5385V22.8428H19.6845V26.5385C19.6845 26.862 19.9467 27.1245 20.2704 27.1245C20.5939 27.1245 20.8564 26.862 20.8564 26.5385V22.8428H26.4402V26.5385C26.4402 26.862 26.7026 27.1245 27.0261 27.1245ZM26.4402 15.0773H20.8564V12.9521H26.4402V15.0773ZM19.6845 15.0773H14.1004V12.9521H19.6845V15.0773ZM12.9288 15.0773H7.34473V12.9521H12.9285V15.0773H12.9288ZM7.34473 16.2492H12.9285V18.3741H7.34473V16.2492ZM14.1007 16.2492H19.6845V18.3741H14.1007V16.2492ZM20.8564 16.2492H26.4402V18.3741H20.8564V16.2492ZM7.34473 21.671V19.546H12.9285V21.671H7.34473ZM14.1007 21.671V19.546H19.6845V21.671H14.1007ZM20.8564 21.671V19.546H26.4402V21.671H20.8564Z" fill="black"/>
</g>
<defs>
<clipPath id="clip0_1293_70290">
<rect width="40" height="40" fill="white" transform="translate(0 0.5)"/>
</clipPath>
</defs>
</svg>
