<svg width="40" height="41" viewBox="0 0 40 41" fill="none" xmlns="http://www.w3.org/2000/svg">
<g clip-path="url(#clip0_1293_70265)">
<path d="M38.5775 14.1706L23.8338 2.75612C21.5766 1.00862 18.4234 1.00862 16.1662 2.75612L1.4225 14.1706C0.894844 14.5791 0.585938 15.2089 0.585938 15.8763V38.1165C0.585938 38.9107 1.22977 39.5546 2.02406 39.5546H37.976C38.7702 39.5546 39.4141 38.9108 39.4141 38.1165V15.8763C39.4141 15.2089 39.1052 14.5791 38.5775 14.1706Z" fill="#F0C382"/>
<path d="M35.0302 4.48401H4.96976C4.6239 4.48401 4.34351 4.7644 4.34351 5.11026V29.5344H35.6565V5.11026C35.6565 4.7644 35.3761 4.48401 35.0302 4.48401Z" fill="#EDEBED"/>
<path d="M22.6836 26.4028C21.9084 27.003 20.9804 27.3203 20 27.3203C19.0196 27.3203 18.0916 27.003 17.3164 26.4028L4.34351 16.3593V29.5344H35.6565V16.3593L22.6836 26.4028Z" fill="#DBD9DC"/>
<path d="M2.02406 39.5546H37.976C38.7702 39.5546 39.4141 38.9108 39.4141 38.1165V15.8763C39.4141 15.8606 39.4092 15.8459 39.4088 15.8304L23.8338 27.8884C21.5766 29.6359 18.4234 29.6359 16.1662 27.8884L0.59125 15.8303C0.590937 15.8459 0.585938 15.8606 0.585938 15.8762V38.1164C0.585938 38.9107 1.22977 39.5546 2.02406 39.5546Z" fill="#F7D291"/>
<path d="M38.9362 13.7072L36.2425 11.6217V5.11023C36.2425 4.44179 35.6987 3.89804 35.0303 3.89804H26.2659L24.1925 2.29273C21.7241 0.381792 18.2761 0.381714 15.8075 2.29273L13.734 3.89804H4.96977C4.30133 3.89804 3.75758 4.44179 3.75758 5.11023V11.6217L1.06391 13.7072C0.397734 14.223 0 15.0337 0 15.8762V38.1165C0 39.2326 0.907969 40.1405 2.02398 40.1405H37.976C39.092 40.1405 40 39.2326 40 38.1165V15.8762C40 15.0337 39.6023 14.223 38.9362 13.7072ZM38.2188 14.6339C38.5169 14.8647 38.7205 15.1988 38.7956 15.5641L36.2424 17.5407V13.1037L38.2188 14.6339ZM16.5249 3.21937C18.571 1.63523 21.4291 1.63531 23.4752 3.21937L24.3518 3.89812H15.6483L16.5249 3.21937ZM4.96977 5.06992H35.0302C35.0525 5.06992 35.0705 5.08796 35.0705 5.11023V18.448L29.5966 22.6859H27.5149C27.1913 22.6859 26.929 22.9482 26.929 23.2718C26.929 23.5954 27.1913 23.8577 27.5149 23.8577H28.0829L23.4751 27.4251C21.429 29.0091 18.5709 29.0091 16.5248 27.4251L11.917 23.8577H25.0102C25.3337 23.8577 25.5961 23.5953 25.5961 23.2717C25.5961 22.9481 25.3337 22.6858 25.0102 22.6858H10.4034L4.92945 18.4479V5.11023C4.92945 5.08804 4.9475 5.06992 4.96977 5.06992ZM1.78125 14.6338L3.75758 13.1037V17.5407L1.20438 15.5641C1.27945 15.1988 1.48312 14.8647 1.78125 14.6338ZM37.976 38.9687H2.02398C1.55414 38.9687 1.17188 38.5864 1.17188 38.1165V37.9632L13.0784 28.7452C13.3343 28.5471 13.3812 28.1791 13.183 27.9232C12.9849 27.6673 12.6169 27.6204 12.361 27.8186L1.17188 36.4811V17.0209L15.8075 28.3517C17.0417 29.3072 18.5209 29.785 20 29.785C21.4791 29.785 22.9583 29.3073 24.1925 28.3517L38.8281 17.0209V36.4811L27.639 27.8186C27.3831 27.6205 27.0151 27.6673 26.817 27.9232C26.6188 28.1791 26.6657 28.5471 26.9216 28.7452L38.8281 37.9631V38.1164C38.8281 38.5863 38.4459 38.9687 37.976 38.9687Z" fill="black"/>
<path d="M13.1111 11.9587H26.8887C27.2123 11.9587 27.4747 11.6964 27.4747 11.3728C27.4747 11.0492 27.2123 10.7869 26.8887 10.7869H13.1111C12.7875 10.7869 12.5251 11.0492 12.5251 11.3728C12.5251 11.6964 12.7875 11.9587 13.1111 11.9587Z" fill="black"/>
<path d="M9.35352 20.7265H30.6464C30.97 20.7265 31.2323 20.4642 31.2323 20.1406C31.2323 19.817 30.97 19.5546 30.6464 19.5546H9.35352C9.02992 19.5546 8.76758 19.817 8.76758 20.1406C8.76758 20.4642 9.02984 20.7265 9.35352 20.7265Z" fill="black"/>
<path d="M9.35352 17.5952H10.606C10.9296 17.5952 11.192 17.3328 11.192 17.0092C11.192 16.6856 10.9296 16.4233 10.606 16.4233H9.35352C9.02992 16.4233 8.76758 16.6856 8.76758 17.0092C8.76758 17.3328 9.02984 17.5952 9.35352 17.5952Z" fill="black"/>
<path d="M12.5254 17.0092C12.5254 17.3328 12.7877 17.5952 13.1113 17.5952H30.6466C30.9702 17.5952 31.2325 17.3328 31.2325 17.0092C31.2325 16.6856 30.9702 16.4233 30.6466 16.4233H13.1113C12.7877 16.4233 12.5254 16.6856 12.5254 17.0092Z" fill="black"/>
</g>
<defs>
<clipPath id="clip0_1293_70265">
<rect width="40" height="40" fill="white" transform="translate(0 0.5)"/>
</clipPath>
</defs>
</svg>
