<svg width="80" height="80" viewBox="0 0 80 80" fill="none" xmlns="http://www.w3.org/2000/svg">
<g clip-path="url(#clip0_5040_23250)">
<path opacity="0.6" d="M69.9543 56.4171L59.3774 51.3195L53.3641 50.5166H33.7955L20.621 51.3676L10.1454 56.4171C9.62342 56.669 9.62342 57.4117 10.1454 57.6636L39.7493 71.9306C39.9388 72.0228 40.1609 72.0228 40.3504 71.9306L69.9543 57.6636C70.4763 57.4117 70.4763 56.669 69.9543 56.4171Z" fill="#7BD5E1"/>
<path opacity="0.2" d="M59.3774 51.3195L53.3641 50.5166H33.7955L20.621 51.3676L10.1454 56.4171C9.62342 56.669 9.62342 57.4117 10.1454 57.6636L15.6277 60.3058L20.9605 57.4426C22.3837 56.6785 24.0867 56.6414 25.5419 57.3426L38.2297 63.4577C38.7625 63.7167 39.3572 63.8535 39.9492 63.8535C40.5413 63.8535 41.136 63.7167 41.6585 63.4626L63.1157 53.1214L59.3774 51.3195Z" fill="#05BAD2"/>
<path d="M69.8546 45.025L59.3777 39.9754L46.6025 33.8105H33.8806L20.5212 39.9754L10.0443 45.025C9.52364 45.2756 9.52364 46.0196 10.0443 46.2702L20.6212 51.3677L45.4042 52.0093L59.3777 51.3197L69.8546 46.2702C70.3753 46.0196 70.3753 45.2756 69.8546 45.025Z" fill="#40C7DA"/>
<path d="M59.3777 39.9754L46.6025 33.8105H33.8806L20.5212 39.9754L10.0443 45.025C9.52364 45.2756 9.52364 46.0196 10.0443 46.2702L14.9827 48.6503L21.0338 45.5386C22.1167 44.9817 23.3983 44.9652 24.4952 45.4938L37.5946 51.8071L42.0644 51.9228L63.1158 41.777L59.3777 39.9754Z" fill="#05BAD2"/>
<path d="M59.3775 51.3199L40.2493 60.5387C40.0597 60.6309 39.839 60.6309 39.6494 60.5387L20.6211 51.368L39.7494 42.1492C39.9389 42.0583 40.161 42.0583 40.3505 42.1492L59.3775 51.3199Z" fill="#35C4D8"/>
<path opacity="0.4" d="M40.3505 42.1492C40.1609 42.0583 39.9389 42.0583 39.7493 42.1492L28.6519 47.4975L39.6327 52.7721C39.8961 52.8986 40.203 52.8975 40.4654 52.7692L51.3466 47.4494L40.3505 42.1492Z" fill="#019AAF"/>
<path opacity="0.8" d="M59.3777 28.6317L40.2494 19.4129C40.0598 19.3207 39.8391 19.3207 39.6495 19.4129L20.5212 28.6317L10.0443 33.6812C9.52364 33.9318 9.52364 34.6758 10.0443 34.9264L39.6495 49.1947C39.8391 49.2869 40.0598 49.2869 40.2494 49.1947L69.8546 34.9264C70.3753 34.6758 70.3753 33.9318 69.8546 33.6812L59.3777 28.6317Z" fill="#019AAF"/>
<g opacity="0.8">
<path d="M40.2494 19.4129C40.0598 19.3207 39.8391 19.3207 39.6495 19.4129L29.6334 24.24L29.5965 24.2578L10.0443 33.6812C9.52364 33.9318 9.52364 34.6758 10.0443 34.9264L15.5574 37.5835L21.7116 34.4961C22.7933 33.9533 24.0657 33.9433 25.1559 34.4687L38.23 40.7696C38.7627 41.0287 39.3574 41.1655 39.9494 41.1655C40.5415 41.1655 41.1362 41.0287 41.6587 40.7746L63.1159 30.4333L40.2494 19.4129Z" fill="#019AAF"/>
<path d="M69.8546 22.3365L40.2494 8.06817C40.0598 7.97728 39.8391 7.97728 39.6495 8.06817L10.0443 22.3365C9.52364 22.5871 9.52364 23.3311 10.0443 23.5816L20.5212 28.6312H59.3777L69.8546 23.5816C70.3753 23.3311 70.3753 22.5871 69.8546 22.3365Z" fill="#7175DC"/>
<path d="M45.3423 10.5227L40.2494 8.06817C40.0598 7.97728 39.8391 7.97728 39.6495 8.06817L10.0443 22.3365C9.52364 22.5871 9.52364 23.331 10.0443 23.5816L15.1999 26.0666L45.3423 10.5227Z" fill="#4E4BC9"/>
<path d="M39.7497 42.1492L32.3906 45.6958L39.6497 49.1944C39.8393 49.2866 40.06 49.2866 40.2496 49.1944L47.609 45.6475L40.3508 42.1492C40.1613 42.0583 39.9392 42.0583 39.7497 42.1492Z" fill="#019AAF"/>
</g>
<path d="M59.3774 28.6316L40.2491 37.8504C40.0596 37.9426 39.8388 37.9426 39.6493 37.8504L20.521 28.6316L39.6493 19.4129C39.8388 19.3207 40.0596 19.3207 40.2491 19.4129L59.3774 28.6316Z" fill="#7175DC"/>
</g>
<defs>
<clipPath id="clip0_5040_23250">
<rect width="64" height="64" fill="white" transform="translate(8 8)"/>
</clipPath>
</defs>
</svg>
