<svg width="98" height="79" viewBox="0 0 98 79" fill="none" xmlns="http://www.w3.org/2000/svg">
<path d="M55.2 51.3C55.2 69.3 65.7 78.3 78 78.3C90.6 78.3 97.8 69 97.8 58.5C97.8 46.8 89.1 39.3 79.5 39.3C78.6 39.3 78 39.3 76.2 39.6C75.9 39.6 75.6 39.6 75.3 39.6C74.4 39.6 73.8 39.3 73.8 38.1C73.8 37.8 73.8 37.5 73.8 37.5C74.1 33 76.5 28.5 79.2 25.5C82.8 21.6 87.6 17.7 92.4 14.7C94.5 13.2 95.4 10.8 95.4 8.4C95.4 6.59999 94.8 5.09999 94.2 3.59999C92.7 1.5 90 0 87.3 0C85.8 0 84.6 0.299996 83.4 1.19998C75.9 6.29999 67.8 12.9 62.7 21.9C58.2 29.4 55.2 39.9 55.2 51.3ZM0 51.3C0 69.3 10.5 78.3 22.8 78.3C35.4 78.3 42.6 69 42.6 58.5C42.6 46.8 33.9 39.3 24.3 39.3C23.4 39.3 22.8 39.3 21 39.6C20.7 39.6 20.4 39.6 20.1 39.6C19.2 39.6 18.6 39.3 18.6 38.1C18.6 37.8 18.6 37.5 18.6 37.5C18.9 33 21.3 28.5 24 25.5C27.6 21.6 32.4 17.7 37.2 14.7C39.3 13.2 40.2 10.8 40.2 8.4C40.2 6.59999 39.6 5.09999 39 3.59999C37.5 1.5 34.8 0 32.1 0C30.6 0 29.4 0.299996 28.2 1.19998C20.7 6.29999 12.6 12.9 7.5 21.9C3 29.4 0 39.9 0 51.3Z" fill="white" fill-opacity="0.1"/>
</svg>
