<svg width="80" height="80" viewBox="0 0 80 80" fill="none" xmlns="http://www.w3.org/2000/svg">
<path d="M75.9997 45.3333H3.99967C2.52692 45.3333 1.33301 46.5273 1.33301 48V61.3333C1.33301 62.8061 2.52692 64 3.99967 64H75.9997C77.4725 64 78.6664 62.8061 78.6664 61.3333V48C78.6664 46.5273 77.4725 45.3333 75.9997 45.3333Z" fill="#7BD5E1"/>
<path d="M76 45.3333H72C73.4709 45.3377 74.6623 46.5291 74.6667 48V61.3333C74.6623 62.8043 73.4709 63.9956 72 64H76C77.471 63.9956 78.6623 62.8043 78.6667 61.3333V48C78.6623 46.5291 77.471 45.3377 76 45.3333Z" fill="#05BAD2"/>
<path d="M68 36V45.3333H12V36C12 33.0545 14.3878 30.6667 17.3333 30.6667H62.6667C65.6122 30.6667 68 33.0545 68 36Z" fill="#FECA57"/>
<path d="M68 64V73.3333C68 76.2789 65.6122 78.6667 62.6667 78.6667H17.3333C14.3878 78.6667 12 76.2789 12 73.3333V64H68Z" fill="#FECA57"/>
<path d="M61.3327 22.6667V30.6667H53.3327V22.6667C53.3327 15.3029 47.3631 9.33334 39.9993 9.33334C32.6355 9.33334 26.666 15.3029 26.666 22.6667V30.6667H18.666V22.6667C18.666 10.8846 28.2173 1.33334 39.9993 1.33334C51.7814 1.33334 61.3327 10.8846 61.3327 22.6667Z" fill="#9E9E9E"/>
<path d="M35.9994 9.33337C28.6404 9.34512 22.6778 15.3078 22.666 22.6667V30.6667H26.666V22.6667C26.6817 16.0842 31.4925 10.4952 37.9994 9.50004C37.3378 9.39446 36.6693 9.33875 35.9994 9.33337Z" fill="#707070"/>
<path d="M55.0924 7.57336C51.0892 3.57198 45.6591 1.327 39.999 1.33336C39.3244 1.33336 38.6577 1.37336 37.999 1.43469C48.9658 2.44466 57.3512 11.6535 57.3324 22.6667V30.6667H61.3324V22.6667C61.3387 17.0067 59.0937 11.5765 55.0924 7.57336Z" fill="#707070"/>
<path d="M4 65.3333H10.6667V73.3333C10.6711 77.0134 13.6533 79.9956 17.3333 80H62.6667C66.3467 79.9956 69.3289 77.0134 69.3333 73.3333V65.3333H76C78.2091 65.3333 80 63.5425 80 61.3333V48C80 45.7909 78.2091 44 76 44H69.3333V36C69.3289 32.3199 66.3467 29.3377 62.6667 29.3333V22.6667C62.6667 10.1482 52.5185 0 40 0C27.4815 0 17.3333 10.1482 17.3333 22.6667V29.3333C13.6533 29.3377 10.6711 32.3199 10.6667 36V44H4C1.79086 44 0 45.7909 0 48V61.3333C0 63.5425 1.79086 65.3333 4 65.3333ZM66.6667 73.3333C66.6667 75.5425 64.8758 77.3333 62.6667 77.3333H17.3333C15.1242 77.3333 13.3333 75.5425 13.3333 73.3333V65.3333H66.6667V73.3333ZM20 22.6667C20 11.621 28.9543 2.66667 40 2.66667C51.0457 2.66667 60 11.621 60 22.6667V29.3333H54.6667V22.6667C54.6667 14.5665 48.1002 8 40 8C31.8998 8 25.3333 14.5665 25.3333 22.6667V29.3333H20V22.6667ZM28 29.3333V22.6667C28 16.0392 33.3726 10.6667 40 10.6667C46.6274 10.6667 52 16.0392 52 22.6667V29.3333H28ZM13.3333 36C13.3333 33.7909 15.1242 32 17.3333 32H62.6667C64.8758 32 66.6667 33.7909 66.6667 36V44H13.3333V36ZM2.66667 48C2.66667 47.2636 3.26362 46.6667 4 46.6667H76C76.7364 46.6667 77.3333 47.2636 77.3333 48V61.3333C77.3333 62.0697 76.7364 62.6667 76 62.6667H4C3.26362 62.6667 2.66667 62.0697 2.66667 61.3333V48Z" fill="black"/>
<path d="M5.55732 58.0734C5.75355 58.3676 6.05865 58.5718 6.40548 58.6411C6.75231 58.7104 7.11245 58.639 7.40665 58.4427L9.33332 57.1574V58.6667C9.33332 59.4031 9.93027 60 10.6666 60C11.403 60 12 59.4031 12 58.6667V57.1574L13.9266 58.4427C14.323 58.7071 14.8302 58.7399 15.2574 58.5289C15.6845 58.3178 15.9666 57.895 15.9974 57.4195C16.0282 56.9441 15.803 56.4884 15.4066 56.224L13.0666 54.6667L15.4026 53.1093C15.799 52.845 16.0242 52.3892 15.9934 51.9138C15.9626 51.4384 15.6805 51.0155 15.2534 50.8045C14.8262 50.5934 14.319 50.6263 13.9226 50.8907L12 52.176V50.6667C12 49.9303 11.403 49.3333 10.6666 49.3333C9.93027 49.3333 9.33332 49.9303 9.33332 50.6667V52.176L7.40665 50.8907C6.79398 50.482 5.96601 50.6473 5.55732 51.26C5.14862 51.8727 5.31398 52.7007 5.92665 53.1093L8.26665 54.6667L5.92665 56.224C5.6324 56.4202 5.42817 56.7254 5.3589 57.0722C5.28964 57.419 5.36101 57.7792 5.55732 58.0734Z" fill="black"/>
<path d="M20.2243 58.0734C20.4205 58.3676 20.7256 58.5718 21.0725 58.6411C21.4193 58.7104 21.7794 58.639 22.0736 58.4427L24.0003 57.1574V58.6667C24.0003 59.4031 24.5973 60 25.3336 60C26.07 60 26.667 59.4031 26.667 58.6667V57.1574L28.5936 58.4427C28.99 58.7071 29.4972 58.7399 29.9244 58.5289C30.3515 58.3178 30.6336 57.895 30.6644 57.4195C30.6951 56.9441 30.47 56.4884 30.0736 56.224L27.7336 54.6667L30.0696 53.1093C30.466 52.845 30.6911 52.3892 30.6604 51.9138C30.6296 51.4384 30.3475 51.0155 29.9204 50.8045C29.4932 50.5934 28.986 50.6263 28.5896 50.8907L26.667 52.176V50.6667C26.667 49.9303 26.07 49.3333 25.3336 49.3333C24.5973 49.3333 24.0003 49.9303 24.0003 50.6667V52.176L22.0736 50.8907C21.461 50.482 20.633 50.6473 20.2243 51.26C19.8156 51.8727 19.981 52.7007 20.5936 53.1093L22.9336 54.6667L20.5976 56.224C20.3027 56.4196 20.0977 56.7244 20.0277 57.0713C19.9576 57.4182 20.0284 57.7787 20.2243 58.0734Z" fill="black"/>
<path d="M49.5573 58.0734C49.7535 58.3676 50.0586 58.5718 50.4055 58.6411C50.7523 58.7104 51.1124 58.639 51.4067 58.4427L53.3333 57.1574V58.6667C53.3333 59.4031 53.9303 60 54.6667 60C55.403 60 56 59.4031 56 58.6667V57.1574L57.9267 58.4427C58.323 58.7071 58.8302 58.7399 59.2574 58.5289C59.6845 58.3178 59.9666 57.895 59.9974 57.4195C60.0282 56.9441 59.803 56.4884 59.4067 56.224L57.0666 54.6667L59.4026 53.1093C59.799 52.845 60.0242 52.3892 59.9934 51.9138C59.9626 51.4384 59.6805 51.0155 59.2534 50.8045C58.8262 50.5934 58.319 50.6263 57.9227 50.8907L56 52.176V50.6667C56 49.9303 55.403 49.3333 54.6667 49.3333C53.9303 49.3333 53.3333 49.9303 53.3333 50.6667V52.176L51.4067 50.8907C50.794 50.482 49.966 50.6473 49.5573 51.26C49.1486 51.8727 49.314 52.7007 49.9266 53.1093L52.2667 54.6667L49.9307 56.224C49.6358 56.4196 49.4307 56.7244 49.3607 57.0713C49.2907 57.4182 49.3614 57.7787 49.5573 58.0734Z" fill="black"/>
<path d="M34.8903 58.0734C35.0866 58.3676 35.3917 58.5718 35.7385 58.6411C36.0853 58.7104 36.4455 58.639 36.7397 58.4427L38.6663 57.1574V58.6667C38.6663 59.4031 39.2633 60 39.9996 60C40.736 60 41.333 59.4031 41.333 58.6667V57.1574L43.2596 58.4427C43.656 58.7071 44.1632 58.7399 44.5903 58.5289C45.0175 58.3178 45.2995 57.895 45.3303 57.4195C45.3611 56.9441 45.136 56.4884 44.7396 56.224L42.3996 54.6667L44.7356 53.1093C45.132 52.845 45.3571 52.3892 45.3263 51.9138C45.2955 51.4384 45.0135 51.0155 44.5863 50.8045C44.1592 50.5934 43.652 50.6263 43.2556 50.8907L41.333 52.176V50.6667C41.333 49.9303 40.736 49.3333 39.9996 49.3333C39.2633 49.3333 38.6663 49.9303 38.6663 50.6667V52.176L36.7397 50.8907C36.127 50.482 35.299 50.6473 34.8903 51.26C34.4816 51.8727 34.647 52.7007 35.2597 53.1093L37.5997 54.6667L35.2637 56.224C34.9688 56.4196 34.7637 56.7244 34.6937 57.0713C34.6237 57.4182 34.6944 57.7787 34.8903 58.0734Z" fill="black"/>
<path d="M21.3333 34.6667H17.3333C16.597 34.6667 16 35.2636 16 36V40C16 40.7364 16.597 41.3333 17.3333 41.3333C18.0697 41.3333 18.6667 40.7364 18.6667 40V37.3333H21.3333C22.0697 37.3333 22.6667 36.7364 22.6667 36C22.6667 35.2636 22.0697 34.6667 21.3333 34.6667Z" fill="black"/>
<path d="M65.3333 60H73.3333C74.0697 60 74.6667 59.403 74.6667 58.6667C74.6667 57.9303 74.0697 57.3333 73.3333 57.3333H65.3333C64.597 57.3333 64 57.9303 64 58.6667C64 59.403 64.597 60 65.3333 60Z" fill="black"/>
</svg>
