<svg width="150" height="62" viewBox="0 0 150 62" fill="none" xmlns="http://www.w3.org/2000/svg">
<path d="M22.617 52.9712C22.617 50.938 21.3828 49.8228 19.4753 49.8228C17.5678 49.8228 16.3256 50.938 16.3256 52.9712V61.4077H11.3245V52.9712C11.3245 50.938 10.0903 49.8228 8.17481 49.8228C6.25933 49.8228 5.03313 50.938 5.03313 52.9712V61.4077H0V45.87H5.03313V47.8198C5.59838 47.1297 6.32975 46.5775 7.16624 46.2094C8.00273 45.8411 8.92011 45.6675 9.84188 45.7032C10.9682 45.6503 12.0881 45.8929 13.078 46.4043C14.068 46.9157 14.8896 47.6759 15.4521 48.6013C16.0454 47.72 16.8622 46.9932 17.8281 46.4871C18.7939 45.9809 19.8781 45.7114 20.982 45.7032C25.0374 45.7032 27.6581 48.1537 27.6581 52.334V61.4381H22.657L22.617 52.9712Z" fill="#424B55"/>
<path d="M37.556 61.6276C32.7473 61.6276 29.261 58.5929 29.261 53.6388C29.261 48.6846 32.6672 45.6499 37.556 45.6499C42.4449 45.6499 45.7309 48.6846 45.7309 53.3884C45.7285 53.8549 45.699 54.3209 45.6427 54.7843H34.2621C34.4384 56.8176 35.7608 57.7583 37.3797 57.7583C37.9271 57.7902 38.4716 57.6617 38.9392 57.3901C39.4066 57.1186 39.7744 56.7174 39.9925 56.241H45.3461C44.5527 59.2909 41.6434 61.6276 37.556 61.6276ZM34.2861 52.1745H40.5855C40.5855 50.4751 39.167 49.5039 37.492 49.5039C36.6989 49.4793 35.9258 49.7419 35.3302 50.2381C34.7345 50.7343 34.3612 51.4268 34.2861 52.1745Z" fill="#424B55"/>
<path d="M52.5192 61.4077H47.4941V45.8701H52.5192V48.4647C53.0602 47.63 53.8159 46.9388 54.7158 46.4559C55.6156 45.9729 56.6302 45.7139 57.6646 45.7031V50.7483H56.2861C53.8817 50.7483 52.5192 51.507 52.5192 54.2003V61.4077Z" fill="#424B55"/>
<path d="M66.4325 45.6499C70.5439 45.6499 73.4613 47.7969 74.3108 51.4992H68.9571C68.7984 50.9664 68.4538 50.5001 67.9793 50.1764C67.5049 49.8526 66.9286 49.6905 66.3444 49.7164C64.5491 49.7164 63.3149 51.0517 63.3149 53.6388C63.3149 56.2258 64.5491 57.5687 66.3444 57.5687C66.9298 57.6002 67.509 57.4403 67.9846 57.1157C68.4603 56.791 68.8037 56.3216 68.9571 55.7858H74.3108C73.4613 59.3743 70.5439 61.6276 66.4325 61.6276C61.6238 61.6276 58.1936 58.5929 58.1936 53.6388C58.1936 48.6846 61.6078 45.6499 66.4325 45.6499Z" fill="#424B55"/>
<path d="M76.106 40.7943H81.1311V47.9486C81.719 47.2126 82.4855 46.6214 83.3657 46.2252C84.246 45.8291 85.2141 45.6395 86.1883 45.6726C89.923 45.6726 92.4236 48.1231 92.4236 52.3034V61.4075H87.4225V52.971C87.4225 50.8544 86.1883 49.6859 84.2809 49.6859C82.3733 49.6859 81.1311 50.8544 81.1311 52.971V61.4075H76.106V40.7943Z" fill="#424B55"/>
<path d="M101.272 45.65C102.264 45.6023 103.253 45.8005 104.139 46.2249C105.026 46.6493 105.781 47.2854 106.329 48.0702V45.87H111.362V61.4077H106.329V59.2075C105.774 59.991 105.014 60.6254 104.124 61.0494C103.234 61.4734 102.243 61.6726 101.247 61.6277C97.2404 61.6277 94.0342 58.5095 94.0342 53.6161C94.0342 48.7227 97.2489 45.65 101.272 45.65ZM102.746 49.7999C100.863 49.7999 99.1557 51.1352 99.1557 53.5933C99.1557 56.0514 100.863 57.4626 102.746 57.4626C104.63 57.4626 106.329 56.0969 106.329 53.6161C106.329 51.1352 104.654 49.7999 102.746 49.7999Z" fill="#424B55"/>
<path d="M113.654 41.6972C113.596 41.1275 113.721 40.5546 114.013 40.0535C114.305 39.5525 114.75 39.1466 115.29 38.8894C115.83 38.6322 116.44 38.5356 117.039 38.6123C117.638 38.6888 118.199 38.9353 118.647 39.319C119.096 39.7027 119.411 40.2058 119.553 40.7623C119.693 41.3188 119.653 41.9027 119.438 42.4373C119.222 42.9719 118.84 43.4321 118.343 43.7577C117.846 44.0832 117.256 44.2589 116.651 44.2615C116.274 44.2894 115.896 44.2443 115.537 44.1289C115.179 44.0135 114.85 43.8301 114.57 43.5901C114.289 43.3501 114.063 43.0585 113.906 42.733C113.749 42.4075 113.662 42.0551 113.654 41.6972ZM114.127 45.8699H119.153V61.4076H114.151L114.127 45.8699Z" fill="#424B55"/>
<path d="M133.241 52.9712C133.241 50.8545 131.999 49.6861 130.092 49.6861C128.184 49.6861 126.942 50.8545 126.942 52.9712V61.4077H121.917V45.87H126.974V47.9336C127.556 47.2158 128.311 46.6392 129.174 46.2514C130.039 45.8636 130.988 45.6757 131.943 45.7031C135.743 45.7031 138.266 48.1536 138.266 52.3339V61.438H133.274L133.241 52.9712Z" fill="#424B55"/>
<path d="M141.649 49.8227H139.645V45.8699H141.649V42.0765H146.674V45.8699H149.968V49.8227H146.674V56.059C146.674 56.9845 147.091 57.3715 148.205 57.3715H150V61.4076H147.443C144.029 61.4076 141.649 60.042 141.649 56.0058V49.8227Z" fill="#424B55"/>
<path d="M82.8223 4.03649V27.8968L91.6863 31.5688V0.364502L82.8223 4.03649Z" fill="#0CBAD2"/>
<path d="M70.4316 4.23375V22.2598L79.2957 25.9319V0.561768L70.4316 4.23375Z" fill="#5356A5"/>
<path d="M58.3057 4.03649V27.8968L67.1697 31.5688V0.364502L58.3057 4.03649Z" fill="#0CBAD2"/>
</svg>
