<svg width="150" height="62" viewBox="0 0 150 62" fill="none" xmlns="http://www.w3.org/2000/svg">
<path d="M22.617 52.971C22.617 50.9377 21.3828 49.8225 19.4753 49.8225C17.5678 49.8225 16.3256 50.9377 16.3256 52.971V61.4074H11.3245V52.971C11.3245 50.9377 10.0903 49.8225 8.17481 49.8225C6.25933 49.8225 5.03313 50.9377 5.03313 52.971V61.4074H0V45.8698H5.03313V47.8196C5.59838 47.1295 6.32975 46.5773 7.16624 46.2091C8.00273 45.8409 8.92011 45.6673 9.84188 45.7029C10.9682 45.65 12.0881 45.8927 13.078 46.4041C14.068 46.9155 14.8896 47.6757 15.4521 48.6011C16.0454 47.7197 16.8622 46.993 17.8281 46.4869C18.7939 45.9806 19.8781 45.7111 20.982 45.7029C25.0374 45.7029 27.6581 48.1535 27.6581 52.3337V61.4379H22.657L22.617 52.971Z" fill="white"/>
<path d="M37.5562 61.6276C32.7475 61.6276 29.2612 58.5929 29.2612 53.6388C29.2612 48.6846 32.6674 45.6499 37.5562 45.6499C42.4451 45.6499 45.7311 48.6846 45.7311 53.3884C45.7287 53.8549 45.6993 54.3209 45.6429 54.7843H34.2623C34.4387 56.8176 35.761 57.7583 37.38 57.7583C37.9274 57.7902 38.4719 57.6617 38.9394 57.3901C39.4069 57.1186 39.7746 56.7174 39.9927 56.241H45.3464C44.553 59.2909 41.6436 61.6276 37.5562 61.6276ZM34.2863 52.1745H40.5858C40.5858 50.4751 39.1672 49.5039 37.4922 49.5039C36.6992 49.4793 35.926 49.7419 35.3304 50.2381C34.7347 50.7343 34.3614 51.4268 34.2863 52.1745Z" fill="white"/>
<path d="M52.5192 61.4077H47.4941V45.8701H52.5192V48.4647C53.0602 47.63 53.8159 46.9388 54.7158 46.4559C55.6156 45.9729 56.6302 45.7139 57.6646 45.7031V50.7483H56.2861C53.8817 50.7483 52.5192 51.507 52.5192 54.2003V61.4077Z" fill="white"/>
<path d="M66.4323 45.6499C70.5437 45.6499 73.461 47.7969 74.3106 51.4992H68.9569C68.7982 50.9664 68.4535 50.5001 67.9791 50.1764C67.5046 49.8526 66.9283 49.6905 66.3442 49.7164C64.5489 49.7164 63.3146 51.0517 63.3146 53.6388C63.3146 56.2258 64.5489 57.5687 66.3442 57.5687C66.9295 57.6002 67.5087 57.4403 67.9843 57.1157C68.46 56.791 68.8034 56.3216 68.9569 55.7858H74.3106C73.461 59.3743 70.5437 61.6276 66.4323 61.6276C61.6236 61.6276 58.1934 58.5929 58.1934 53.6388C58.1934 48.6846 61.6075 45.6499 66.4323 45.6499Z" fill="white"/>
<path d="M76.106 40.7944H81.1311V47.9487C81.719 47.2127 82.4855 46.6215 83.3657 46.2254C84.246 45.8292 85.2141 45.6396 86.1883 45.6727C89.923 45.6727 92.4236 48.1232 92.4236 52.3035V61.4076H87.4225V52.9711C87.4225 50.8545 86.1883 49.6861 84.2809 49.6861C82.3733 49.6861 81.1311 50.8545 81.1311 52.9711V61.4076H76.106V40.7944Z" fill="white"/>
<path d="M101.272 45.65C102.264 45.6023 103.253 45.8005 104.139 46.2249C105.026 46.6493 105.781 47.2854 106.329 48.0702V45.87H111.362V61.4077H106.329V59.2075C105.774 59.991 105.014 60.6254 104.124 61.0494C103.234 61.4734 102.243 61.6726 101.247 61.6277C97.2404 61.6277 94.0342 58.5095 94.0342 53.6161C94.0342 48.7227 97.2489 45.65 101.272 45.65ZM102.746 49.7999C100.863 49.7999 99.1557 51.1352 99.1557 53.5933C99.1557 56.0514 100.863 57.4626 102.746 57.4626C104.63 57.4626 106.329 56.0969 106.329 53.6161C106.329 51.1352 104.654 49.7999 102.746 49.7999Z" fill="white"/>
<path d="M113.654 41.697C113.596 41.1273 113.721 40.5543 114.013 40.0532C114.305 39.5522 114.75 39.1464 115.29 38.8892C115.83 38.632 116.44 38.5353 117.039 38.612C117.638 38.6886 118.199 38.935 118.647 39.3187C119.096 39.7025 119.411 40.2056 119.553 40.762C119.693 41.3186 119.653 41.9025 119.438 42.437C119.222 42.9716 118.84 43.4319 118.343 43.7575C117.846 44.083 117.256 44.2587 116.651 44.2613C116.274 44.2892 115.896 44.2441 115.537 44.1286C115.179 44.0132 114.85 43.8299 114.57 43.5899C114.289 43.3498 114.063 43.0582 113.906 42.7327C113.749 42.4072 113.662 42.0548 113.654 41.697ZM114.127 45.8697H119.153V61.4073H114.151L114.127 45.8697Z" fill="white"/>
<path d="M133.241 52.9709C133.241 50.8543 131.999 49.6859 130.092 49.6859C128.184 49.6859 126.942 50.8543 126.942 52.9709V61.4074H121.917V45.8697H126.974V47.9333C127.556 47.2155 128.311 46.639 129.174 46.2511C130.039 45.8634 130.987 45.6755 131.943 45.7028C135.742 45.7028 138.266 48.1534 138.266 52.3337V61.4378H133.274L133.241 52.9709Z" fill="white"/>
<path d="M141.649 49.8228H139.646V45.8701H141.649V42.0767H146.674V45.8701H149.968V49.8228H146.674V56.0591C146.674 56.9847 147.091 57.3716 148.205 57.3716H150V61.4077H147.444C144.029 61.4077 141.649 60.0421 141.649 56.006V49.8228Z" fill="white"/>
<path d="M82.8223 4.03673V27.897L91.6863 31.5691V0.364746L82.8223 4.03673Z" fill="#0CBAD2"/>
<path d="M70.4316 4.234V22.2601L79.2957 25.9321V0.562012L70.4316 4.234Z" fill="#7175DC"/>
<path d="M58.3057 4.03673V27.897L67.1697 31.5691V0.364746L58.3057 4.03673Z" fill="#0CBAD2"/>
</svg>
