<svg width="219" height="37" viewBox="0 0 219 37" fill="none" xmlns="http://www.w3.org/2000/svg">
<path d="M28.1825 4.34035V32.5437L38.3724 36.8841V0L28.1825 4.34035Z" fill="#0CBAD2"/>
<path d="M13.9397 4.57278V25.8799L24.1296 30.2204V0.232422L13.9397 4.57278Z" fill="#7175DC"/>
<path d="M0 4.34035V32.5437L10.1899 36.8841V0L0 4.34035Z" fill="#0CBAD2"/>
<path d="M72.5628 21.824C72.5628 19.4207 71.144 18.1025 68.9513 18.1025C66.7584 18.1025 65.3305 19.4207 65.3305 21.824V31.796H59.5813V21.824C59.5813 19.4207 58.1625 18.1025 55.9605 18.1025C53.7585 18.1025 52.3489 19.4207 52.3489 21.824V31.796H46.563V13.4302H52.3489V15.735C52.9987 14.9192 53.8395 14.2666 54.8011 13.8314C55.7627 13.3961 56.8173 13.1909 57.8769 13.233C59.1717 13.1705 60.4591 13.4573 61.5971 14.0618C62.7352 14.6663 63.6796 15.5649 64.3262 16.6587C65.0083 15.6169 65.9472 14.7579 67.0576 14.1597C68.1679 13.5613 69.4143 13.2427 70.6833 13.233C75.3453 13.233 78.358 16.1296 78.358 21.0708V31.832H72.6089L72.5628 21.824Z" fill="white"/>
<path d="M89.7371 32.0566C84.2091 32.0566 80.2014 28.4695 80.2014 22.6137C80.2014 16.7577 84.1171 13.1707 89.7371 13.1707C95.3572 13.1707 99.1347 16.7577 99.1347 22.3177C99.1319 22.8691 99.0981 23.4199 99.0333 23.9677H85.9505C86.1532 26.371 87.6734 27.483 89.5345 27.483C90.1638 27.5207 90.7897 27.3688 91.3272 27.0478C91.8645 26.7269 92.2873 26.2526 92.538 25.6895H98.6924C97.7804 29.2946 94.4359 32.0566 89.7371 32.0566ZM85.9781 20.8828H93.2198C93.2198 18.8741 91.5891 17.7262 89.6635 17.7262C88.7519 17.6971 87.8631 18.0075 87.1784 18.594C86.4936 19.1805 86.0644 19.999 85.9781 20.8828Z" fill="white"/>
<path d="M106.936 31.7946H101.16V13.4288H106.936V16.4957C107.558 15.509 108.427 14.6921 109.462 14.1212C110.496 13.5503 111.662 13.2442 112.851 13.2314V19.1949H111.267C108.503 19.1949 106.936 20.0917 106.936 23.2753V31.7946Z" fill="white"/>
<path d="M122.93 13.1707C127.657 13.1707 131.01 15.7085 131.987 20.0847H125.833C125.65 19.4549 125.254 18.9037 124.709 18.521C124.163 18.1383 123.501 17.9467 122.829 17.9773C120.765 17.9773 119.346 19.5556 119.346 22.6137C119.346 25.6716 120.765 27.2589 122.829 27.2589C123.502 27.2962 124.168 27.1071 124.715 26.7234C125.261 26.3397 125.656 25.7847 125.833 25.1515H131.987C131.01 29.3932 127.657 32.0566 122.93 32.0566C117.403 32.0566 113.459 28.4695 113.459 22.6137C113.459 16.7577 117.384 13.1707 122.93 13.1707Z" fill="white"/>
<path d="M134.054 7.43188H139.831V15.8883C140.506 15.0184 141.388 14.3196 142.399 13.8513C143.411 13.3831 144.524 13.159 145.644 13.1981C149.938 13.1981 152.812 16.0946 152.812 21.0359V31.797H147.063V21.825C147.063 19.323 145.644 17.9419 143.451 17.9419C141.259 17.9419 139.831 19.323 139.831 21.825V31.797H134.054V7.43188Z" fill="white"/>
<path d="M162.982 13.1689C164.123 13.1125 165.259 13.3467 166.279 13.8484C167.298 14.3501 168.166 15.1019 168.795 16.0296V13.4289H174.582V31.7947H168.795V29.1941C168.157 30.1202 167.284 30.87 166.262 31.3713C165.238 31.8724 164.099 32.1079 162.954 32.0548C158.348 32.0548 154.662 28.3691 154.662 22.5849C154.662 16.8008 158.357 13.1689 162.982 13.1689ZM164.677 18.0741C162.512 18.0741 160.55 19.6524 160.55 22.558C160.55 25.4635 162.512 27.1315 164.677 27.1315C166.842 27.1315 168.795 25.5173 168.795 22.5849C168.795 19.6524 166.87 18.0741 164.677 18.0741Z" fill="white"/>
<path d="M177.216 8.49849C177.149 7.82513 177.292 7.14789 177.629 6.55557C177.964 5.96336 178.476 5.48367 179.096 5.17964C179.717 4.87562 180.419 4.76138 181.107 4.85202C181.796 4.94254 182.441 5.23385 182.956 5.68736C183.472 6.14097 183.834 6.73566 183.997 7.39339C184.159 8.05124 184.112 8.74141 183.864 9.37328C183.616 10.0051 183.178 10.5492 182.606 10.934C182.034 11.3188 181.356 11.5265 180.661 11.5296C180.228 11.5626 179.793 11.5092 179.381 11.3728C178.969 11.2363 178.591 11.0196 178.269 10.7359C177.945 10.4522 177.686 10.1075 177.506 9.72278C177.325 9.33804 177.226 8.9215 177.216 8.49849ZM177.759 13.4307H183.537V31.7965H177.787L177.759 13.4307Z" fill="white"/>
<path d="M199.732 21.8222C199.732 19.3202 198.304 17.9391 196.112 17.9391C193.919 17.9391 192.491 19.3202 192.491 21.8222V31.7942H186.714V13.4284H192.527V15.8677C193.197 15.0192 194.064 14.3377 195.057 13.8793C196.05 13.4209 197.141 13.1988 198.239 13.2311C202.607 13.2311 205.509 16.1277 205.509 21.069V31.8301H199.77L199.732 21.8222Z" fill="white"/>
<path d="M209.4 18.1002H207.097V13.428H209.4V8.94409H215.176V13.428H218.963V18.1002H215.176V25.4716C215.176 26.5656 215.656 27.023 216.936 27.023H219V31.7937H216.061C212.136 31.7937 209.4 30.1795 209.4 25.4088V18.1002Z" fill="white"/>
</svg>
