<svg width="140" height="23" viewBox="0 0 140 23" fill="none" xmlns="http://www.w3.org/2000/svg">
<g clip-path="url(#clip0_789_56862)">
<path d="M41.2624 15.4187H30.2136C30.3322 18.0088 31.5871 19.3032 33.9783 19.3019C34.7433 19.315 35.4955 19.1041 36.1422 18.6952C36.7745 18.2894 37.1599 17.8283 37.2982 17.3119H41.0036C39.8771 20.7504 37.486 22.4697 33.83 22.4697C31.4389 22.4697 29.5371 21.724 28.1248 20.2326C26.7125 18.7413 26.0057 16.7994 26.0044 14.4069C26.0044 12.0776 26.729 10.1463 28.1782 8.61274C29.6274 7.07923 31.5094 6.31314 33.8241 6.31445C36.3141 6.31445 38.2211 7.20373 39.5451 8.98229C40.8692 10.7608 41.4416 12.9063 41.2624 15.4187ZM30.1959 12.7509H37.0433C36.8457 11.6442 36.4854 10.8241 35.9623 10.2905C35.4393 9.75695 34.6831 9.49346 33.6937 9.50004C32.4882 9.50004 31.6187 9.84127 31.0851 10.5237C30.5769 11.1614 30.2732 11.9376 30.2136 12.7509H30.1959Z" fill="white"/>
<path d="M43.7524 22.0585V6.74116H47.7542V9.58686H47.8135C48.2087 8.61968 48.8917 7.79735 49.7699 7.23125C50.635 6.64174 51.6576 6.32636 52.7045 6.32617C53.0163 6.33168 53.3257 6.38158 53.6234 6.47438V10.3872C53.1264 10.283 52.6195 10.2333 52.1116 10.239C49.345 10.239 47.9617 11.8792 47.9617 15.1597V22.0763L43.7524 22.0585Z" fill="white"/>
<path d="M69.3046 12.1283H65.1922C64.9155 10.3695 63.878 9.49013 62.0797 9.49013C60.8545 9.49013 59.9507 9.98944 59.3684 10.9881C58.769 12.049 58.4666 13.2518 58.4929 14.4701C58.4635 15.6573 58.7557 16.8305 59.3387 17.8652C59.9026 18.8243 60.7866 19.3032 61.9908 19.3018C63.9274 19.3018 65.044 18.2643 65.3404 16.1894H69.4014C69.1248 18.2051 68.3396 19.7563 67.0458 20.8432C65.7521 21.9301 64.077 22.4736 62.0204 22.4736C59.7281 22.4736 57.8658 21.7424 56.4338 20.28C55.0017 18.8177 54.285 16.9304 54.2837 14.6183C54.2837 12.1705 54.9806 10.1746 56.3745 8.6305C57.7683 7.08645 59.6787 6.31573 62.1054 6.31837C64.042 6.31837 65.6974 6.8223 67.0715 7.83014C68.4456 8.83799 69.19 10.2707 69.3046 12.1283Z" fill="white"/>
<path d="M71.7646 22.0584V0.893555H75.9739V8.86741H76.0608C76.5293 8.09759 77.186 7.45967 77.969 7.01368C78.7521 6.5677 79.6358 6.32833 80.5369 6.31814C82.6514 6.31814 84.1137 6.8517 84.924 7.91884C85.7342 8.98597 86.1393 10.557 86.1393 12.632V22.0584H81.9301V13.4027C81.9301 12.1182 81.7226 11.1716 81.3076 10.557C80.8926 9.94246 80.2009 9.63812 79.2326 9.63812C78.0864 9.63812 77.2564 9.98593 76.7426 10.6756C76.2288 11.3653 75.9719 12.4838 75.9719 14.0252V22.0584H71.7646Z" fill="white"/>
<path d="M93.3742 11.4466H89.1649C89.2835 9.65087 90.0246 8.34659 91.3881 7.53372C92.7517 6.72086 94.4117 6.31574 96.3681 6.31837C100.854 6.31837 103.094 7.77087 103.087 10.6758V18.6497C103.087 20.3505 103.265 21.4868 103.621 22.0586H99.3521C99.1886 21.5797 99.0889 21.0814 99.0557 20.5765C97.8502 21.8438 96.1309 22.4762 93.8979 22.4736C92.3564 22.4736 91.1049 22.0836 90.1431 21.3037C89.1814 20.5237 88.6972 19.3822 88.6906 17.879C88.6722 17.1989 88.8073 16.5235 89.0859 15.9028C89.3058 15.4015 89.6282 14.9519 90.0325 14.5827C90.4787 14.2234 90.9861 13.9476 91.5304 13.7686C92.0645 13.569 92.6145 13.4149 93.1746 13.3081C93.639 13.231 94.2378 13.15 94.9689 13.071C96.4708 12.9129 97.4984 12.7205 98.0518 12.4939C98.3117 12.3984 98.5333 12.2207 98.6831 11.9878C98.8329 11.755 98.9026 11.4796 98.8818 11.2035C98.8818 10.3932 98.6446 9.84519 98.1703 9.5593C97.6961 9.27341 97.0242 9.1298 96.1546 9.12848C94.4393 9.13244 93.5125 9.90514 93.3742 11.4466ZM98.8877 16.1301V14.5491C98.5517 14.8673 97.702 15.1123 96.3384 15.2902C95.7851 15.3692 95.3503 15.4437 95.0342 15.5135C94.6771 15.5965 94.3295 15.7157 93.9967 15.8692C93.6544 16.0092 93.3643 16.2523 93.1667 16.5648C92.9776 16.9093 92.8854 17.2986 92.8999 17.6913C92.8999 18.9955 93.7562 19.6477 95.4689 19.6477C97.7481 19.6543 98.8877 18.4817 98.8877 16.1301Z" fill="white"/>
<path d="M110.685 0.893555V4.36964H106.476V0.901443L110.685 0.893555ZM106.476 22.0584V6.74104H110.685V22.0663L106.476 22.0584Z" fill="white"/>
<path d="M114.003 22.0585V6.74116H118.005V8.87544H118.094C118.583 8.06831 119.285 7.4118 120.124 6.97829C120.943 6.55007 121.853 6.32634 122.778 6.32617C124.892 6.32617 126.354 6.85973 127.165 7.92687C127.975 8.994 128.38 10.5651 128.38 12.64V22.0664H124.171V13.4107C124.171 12.1262 123.963 11.1796 123.548 10.5651C123.133 9.95046 122.442 9.64613 121.473 9.64613C120.327 9.64613 119.497 9.99393 118.983 10.6836C118.47 11.3733 118.213 12.4918 118.213 14.0332V22.0664L114.003 22.0585Z" fill="white"/>
<path d="M136.927 2.13867V6.74119H140.012V9.55723H136.927V17.1457C136.927 17.8572 137.048 18.3314 137.285 18.5686C137.522 18.8057 137.996 18.9243 138.706 18.9243C139.144 18.9345 139.582 18.8947 140.012 18.8057V22.096C139.197 22.2093 138.374 22.2589 137.552 22.2442C136.925 22.2512 136.299 22.2016 135.682 22.096C135.151 21.9972 134.637 21.8173 134.16 21.5625C133.688 21.3188 133.308 20.9283 133.077 20.4499C132.811 19.8646 132.683 19.2253 132.706 18.5824V9.54143H130.161V6.74119H132.708V2.14658L136.927 2.13867Z" fill="white"/>
<path d="M23.4175 11.8022V22.0586H19.2082V13.3634C19.2082 12.8891 19.1984 12.4959 19.1786 12.1777C19.1544 11.8365 19.0948 11.4988 19.0007 11.1699C18.928 10.865 18.786 10.581 18.5857 10.3399C18.3728 10.1201 18.1154 9.94835 17.8308 9.83596C17.4472 9.69177 17.0389 9.62462 16.6293 9.63834C14.752 9.63834 13.8133 10.9327 13.8133 13.5215V12.7508C13.8133 10.7746 13.4754 9.50395 13.1177 8.7115C13.1434 8.76288 13.1671 8.81427 13.1908 8.86763C14.3567 7.17075 15.8981 6.32099 17.815 6.31836C19.5541 6.31836 20.9229 6.7584 21.9215 7.63845C22.9202 8.51851 23.4188 9.90643 23.4175 11.8022Z" fill="white"/>
<path d="M4.20925 8.80838V22.0586H0V6.7334H4.17961V8.80838H4.20925Z" fill="white"/>
<path d="M13.1178 8.71734C12.9097 8.27527 12.6247 7.87378 12.2759 7.53163C11.442 6.72931 10.2563 6.32749 8.7188 6.32617C6.76239 6.32617 5.40871 7.15616 4.24277 8.81615H4.21313V13.1637C4.1992 12.5516 4.30527 11.9427 4.52536 11.3713C4.68248 10.9334 4.96579 10.5517 5.33955 10.2746C5.62491 10.0746 5.93347 9.91008 6.25847 9.78447C6.51499 9.69033 6.78559 9.64022 7.05882 9.63626C7.11218 9.63626 7.16355 9.63626 7.21494 9.63626C7.58857 9.63915 7.9582 9.71361 8.30381 9.85561C8.60743 9.95869 8.87575 10.1455 9.07784 10.3944C9.27993 10.6433 9.40757 10.9443 9.44604 11.2626C9.52447 11.587 9.57407 11.9176 9.59425 12.2507C9.60479 12.5142 9.6094 12.9141 9.60808 13.4503V22.0466H13.8114V12.7388C13.8114 10.7765 13.4755 9.50781 13.1178 8.71734Z" fill="white"/>
</g>
<defs>
<clipPath id="clip0_789_56862">
<rect width="140" height="21.5798" fill="white" transform="translate(0 0.893555)"/>
</clipPath>
</defs>
</svg>
