<svg width="80" height="80" viewBox="0 0 80 80" fill="none" xmlns="http://www.w3.org/2000/svg">
<path d="M30.6521 19.8714L30.2514 16.4824L20.7137 18.7653L16.9782 23.8034L17.9046 27.3945L12.6934 31.2457L13.4881 40.968L17.9568 41.8596L23.893 42.412L29.4566 38.2739L30.6521 34.5277L33.4307 33.1243L33.792 24.3814L30.6521 19.8714Z" fill="#40C7DA"/>
<path d="M46.1483 40.9674C46.1506 40.9546 46.1499 40.9434 46.1465 40.9336C46.1441 40.9753 46.1445 40.9889 46.1483 40.9674Z" fill="#05BAD2"/>
<path d="M43.3479 27.2005L45.0751 22.0369L33.2198 17.791L30.6526 19.8711V34.5273L30.2593 38.9015L37.6896 43.2159L43.348 41.8593C43.3824 41.8007 46.0441 40.6351 46.1466 40.9341C46.1893 40.1991 47.16 30.1616 47.16 30.1616L43.3479 27.2005Z" fill="#05BAD2"/>
<path d="M30.6523 49.1888C30.5848 49.1888 30.5173 49.171 30.4574 49.1366L30.9826 44.9938L22.1914 40.978L17.9573 41.8594C17.9229 41.8008 17.905 41.7346 17.905 41.6645V27.3943C17.905 27.3255 17.9229 27.2592 17.9573 27.2006V27.1993V23.8394L7.32822 17.791L3.34801 18.765C3.31998 18.8135 3.30469 18.8683 3.30469 18.9256V50.1342C3.30469 50.2489 3.36585 50.3546 3.46397 50.4107L30.4918 66.0163C30.5415 66.0443 30.5963 66.0583 30.6523 66.0583L32.2092 63.1355L33.2844 52.3004L30.6523 49.1888Z" fill="#05BAD2"/>
<path d="M57.9565 18.7652L51.8808 16.9043L41.4645 24.3342L43.3996 27.3944V41.6646C43.3996 41.7347 43.3818 41.801 43.3474 41.8596L38.2079 41.9249L30.2588 46.6794L30.6521 49.189V66.0586C30.7082 66.0586 30.763 66.0446 30.8127 66.0165L57.8405 50.411C57.9386 50.3549 57.9998 50.2491 57.9998 50.1345V18.9259C57.9998 18.8684 57.9845 18.8136 57.9565 18.7652Z" fill="#B0E6ED"/>
<path d="M5.4292 19.9473C5.4292 19.888 5.44449 19.8316 5.47252 19.7815L8.9762 18.3708L6.21742 17.1885L3.34801 18.7648C3.31998 18.8133 3.30469 18.868 3.30469 18.9254V50.134C3.30469 50.2487 3.36585 50.3544 3.46397 50.4105L5.4292 51.5393V19.9473Z" fill="#019AAF"/>
<path d="M30.813 3.04301L57.8409 18.6473C57.8906 18.6753 57.9301 18.7161 57.9568 18.7645L43.3477 27.2C43.3146 27.1414 43.2661 27.0917 43.205 27.0573L30.8474 19.9228C30.7875 19.8884 30.72 19.8706 30.6525 19.8706C30.5849 19.8706 30.5174 19.8884 30.4575 19.9228L18.1 27.0573C18.0401 27.0917 17.9904 27.1414 17.9573 27.1987L3.34814 18.7645C3.3749 18.7161 3.4144 18.6753 3.4641 18.6473L30.4919 3.04301C30.5913 2.98566 30.7136 2.98566 30.813 3.04301Z" fill="#69D6E4"/>
<path opacity="0.4" d="M32.2288 3.86705L30.813 3.04301C30.7137 2.98566 30.5913 2.98566 30.4919 3.04301L3.4641 18.6473C3.4144 18.6753 3.3749 18.7161 3.34814 18.7645L5.42916 19.9468L32.2288 3.86705Z" fill="#019AAF"/>
<path d="M30.6518 49.1887C30.5842 49.1887 30.5167 49.1709 30.4568 49.1365L18.0993 42.002C18.0394 41.9663 17.9897 41.9179 17.9565 41.8593L30.6518 34.5273L43.347 41.8593C43.3139 41.9179 43.2642 41.9663 43.2043 42.002L30.8467 49.1365C30.7868 49.1709 30.7193 49.1887 30.6518 49.1887Z" fill="#8EDDE8"/>
<path d="M59.0486 55.2618C59.0186 54.6316 58.7468 54.0182 58.2996 53.5746L51.4905 46.7538C50.4871 45.7487 48.8606 45.7487 47.8572 46.7538C46.8538 47.759 46.8538 49.3882 47.8572 50.3934L50.2802 52.8205H36.5695C35.1499 52.8205 34 53.9723 34 55.3944C34 56.8165 35.1499 57.9683 36.5695 57.9683H50.2802L47.8572 60.3956C46.8538 61.4007 46.8538 63.03 47.8572 64.0351C48.8592 65.0408 50.4885 65.0408 51.4905 64.0351L58.2996 57.2142C58.8107 56.7086 59.0891 55.9804 59.0486 55.2618Z" fill="#7175DC"/>
<path d="M50.2745 52.8154H51.9689C52.3891 52.8154 52.5989 52.303 52.301 52.0046L49.9414 49.6403C48.9572 48.6544 48.8121 47.1455 49.5072 46.0059C48.9063 46.0448 48.3167 46.2943 47.8571 46.7546C46.8541 47.7595 46.8541 49.3889 47.8571 50.3938L50.2745 52.8154ZM47.857 60.3957C46.854 61.4007 46.854 63.03 47.857 64.035C48.3157 64.4952 48.9062 64.7448 49.5071 64.7837C48.812 63.643 48.9571 62.1352 49.9413 61.1492L52.1954 58.7708C52.4816 58.4688 52.2692 57.9686 51.8549 57.9686H50.2802L47.857 60.3957ZM37.8426 52.8212H36.5693C35.15 52.8212 34 53.9723 34 55.3948C34 56.8172 35.15 57.9683 36.5693 57.9683H37.8426C36.9517 57.4578 36.3517 56.4965 36.3517 55.3948C36.3517 54.293 36.9517 53.3318 37.8426 52.8212Z" fill="#4E4BC9"/>
<path d="M52.0041 68.2618C52.0341 67.6316 52.3059 67.0182 52.7532 66.5746L59.5623 59.7538C60.5657 58.7487 62.1921 58.7487 63.1955 59.7538C64.1989 60.759 64.1989 62.3882 63.1955 63.3934L60.7725 65.8205H74.4833C75.9029 65.8205 77.0527 66.9723 77.0527 68.3944C77.0527 69.8165 75.9029 70.9683 74.4833 70.9683H60.7725L63.1955 73.3956C64.1989 74.4007 64.1989 76.03 63.1955 77.0351C62.1935 78.0408 60.5643 78.0408 59.5623 77.0351L52.7532 70.2142C52.242 69.7086 51.9636 68.9804 52.0041 68.2618Z" fill="#05BAD2"/>
<path d="M60.7782 65.8154H59.0838C58.6637 65.8154 58.4538 65.303 58.7517 65.0046L61.1114 62.6403C62.0956 61.6544 62.2406 60.1455 61.5455 59.0059C62.1464 59.0448 62.736 59.2943 63.1956 59.7546C64.1987 60.7595 64.1987 62.3889 63.1956 63.3938L60.7782 65.8154ZM63.1957 73.3957C64.1988 74.4007 64.1988 76.03 63.1957 77.035C62.737 77.4952 62.1465 77.7448 61.5456 77.7837C62.2407 76.643 62.0957 75.1352 61.1115 74.1492L58.8573 71.7708C58.5712 71.4688 58.7836 70.9686 59.1979 70.9686H60.7725L63.1957 73.3957ZM73.2101 65.8212H74.4834C75.9028 65.8212 77.0527 66.9723 77.0527 68.3948C77.0527 69.8172 75.9028 70.9683 74.4834 70.9683H73.2101C74.1011 70.4578 74.701 69.4965 74.701 68.3948C74.701 67.293 74.1011 66.3318 73.2101 65.8212Z" fill="#019AAF"/>
</svg>
