<svg width="16" height="16" viewBox="0 0 16 16" fill="none" xmlns="http://www.w3.org/2000/svg">
<path d="M8 3.4375C8.94924 3.4375 9.71875 2.66799 9.71875 1.71875C9.71875 0.769511 8.94924 0 8 0C7.05076 0 6.28125 0.769511 6.28125 1.71875C6.28125 2.66799 7.05076 3.4375 8 3.4375Z" fill="currentColor"/>
<path d="M4.90916 12.9675C4.424 13.4869 3.73388 13.8125 2.96875 13.8125C2.20362 13.8125 1.5135 13.4869 1.02834 12.9675C0.408156 13.3896 0 14.1011 0 14.9062V15.5312C0 15.7901 0.209875 16 0.46875 16H5.46875C5.72762 16 5.9375 15.7901 5.9375 15.5312V14.9062C5.9375 14.1011 5.52934 13.3896 4.90916 12.9675Z" fill="currentColor"/>
<path d="M14.9717 12.9675C14.4865 13.4869 13.7964 13.8125 13.0312 13.8125C12.2661 13.8125 11.576 13.4869 11.0908 12.9675C10.4707 13.3896 10.0625 14.1011 10.0625 14.9062V15.5312C10.0625 15.7901 10.2724 16 10.5312 16H15.5312C15.7901 16 16 15.7901 16 15.5312V14.9062C16 14.1011 15.5918 13.3896 14.9717 12.9675Z" fill="currentColor"/>
<path d="M11.3351 11.4328C11.4677 12.2495 12.1777 12.875 13.0312 12.875C13.979 12.875 14.75 12.104 14.75 11.1562C14.75 10.2085 13.979 9.4375 13.0312 9.4375C12.3211 9.4375 11.7101 9.8705 11.4485 10.4864L9.40487 9.85172C9.38234 9.26434 8.998 8.76834 8.46875 8.58062V6.5625H10.5C10.7589 6.5625 10.9688 6.35262 10.9688 6.09375V5.46875C10.9688 4.66362 10.5606 3.95212 9.94041 3.53003C9.45525 4.0494 8.76512 4.375 8 4.375C7.23488 4.375 6.54475 4.0494 6.05959 3.53003C5.43941 3.95212 5.03125 4.66362 5.03125 5.46875V6.09375C5.03125 6.35262 5.24113 6.5625 5.5 6.5625H7.53125V8.58062C7.002 8.76834 6.61769 9.26431 6.59513 9.85172L4.55153 10.4864C4.28991 9.8705 3.67894 9.4375 2.96875 9.4375C2.02103 9.4375 1.25 10.2085 1.25 11.1562C1.25 12.104 2.02103 12.875 2.96875 12.875C3.82231 12.875 4.53225 12.2495 4.66494 11.4328L6.87337 10.747C7.13003 11.09 7.53953 11.3125 8 11.3125C8.46047 11.3125 8.86997 11.09 9.12663 10.7469L11.3351 11.4328Z" fill="currentColor"/>
</svg>
