<svg width="25" height="24" viewBox="0 0 25 24" fill="none" xmlns="http://www.w3.org/2000/svg">
<path fill-rule="evenodd" clip-rule="evenodd" d="M10.0235 2.07004C8.2767 2.40892 6.72352 3.39746 5.70913 4.82788C4.69381 6.25964 4.30157 8.01817 4.63103 9.71642C5.24538 12.8831 4.92032 15.0017 4.48037 16.2973C4.25955 16.9475 4.00677 17.3995 3.81915 17.6799C3.72519 17.8202 3.6472 17.9181 3.5972 17.9767C3.57219 18.0059 3.55417 18.0254 3.54465 18.0353L3.53731 18.0429C3.3001 18.2725 3.24075 18.6307 3.39204 18.9248C3.54455 19.2213 3.8745 19.3815 4.20182 19.318L21.8724 15.8899C22.1997 15.8264 22.4458 15.5544 22.4764 15.2224C22.5067 14.893 22.3177 14.5831 22.0119 14.4588L22.0022 14.4545C21.9897 14.4488 21.9657 14.4375 21.9315 14.4197C21.8633 14.3841 21.7544 14.3225 21.6147 14.2275C21.3359 14.0376 20.9324 13.7129 20.4845 13.1924C19.592 12.1553 18.4983 10.312 17.8839 7.14531C17.5545 5.44707 16.5331 3.96277 15.0561 3.01455C13.5804 2.06721 11.7702 1.73117 10.0235 2.07004ZM19.3475 14.1708C19.534 14.3875 19.7162 14.5785 19.8907 14.7464L5.61213 17.5165C5.71115 17.2955 5.80879 17.0503 5.90071 16.7796C6.43317 15.2116 6.76227 12.826 6.10358 9.43074C5.85424 8.14554 6.14805 6.80204 6.9327 5.69557C7.71829 4.58778 8.93156 3.80984 10.3091 3.54259C11.6867 3.27533 13.1029 3.54316 14.2457 4.27683C15.3872 5.00962 16.1621 6.14579 16.4114 7.43099C17.0701 10.8263 18.2673 12.9157 19.3475 14.1708ZM11.25 19.0001C11.25 18.5859 10.9142 18.2501 10.5 18.2501C10.0857 18.2501 9.74996 18.5859 9.74996 19.0001C9.74996 19.9099 10.0524 20.8442 10.6894 21.5609C11.3387 22.2913 12.2964 22.7501 13.5 22.7501C14.7035 22.7501 15.6612 22.2913 16.3105 21.5609C16.9475 20.8442 17.25 19.9099 17.25 19.0001C17.25 18.5859 16.9142 18.2501 16.5 18.2501C16.0857 18.2501 15.75 18.5859 15.75 19.0001C15.75 19.5903 15.5524 20.156 15.1894 20.5643C14.8387 20.9589 14.2964 21.2501 13.5 21.2501C12.7035 21.2501 12.1612 20.9589 11.8105 20.5643C11.4475 20.156 11.25 19.5903 11.25 19.0001Z" fill="#8491A1"/>
</svg>
