<svg width="18" height="18" viewBox="0 0 18 18" fill="none" xmlns="http://www.w3.org/2000/svg">
  <path d="M10.125 4.875C10.125 5.49632 9.62132 6 9 6C8.37868 6 7.875 5.49632 7.875 4.875C7.875 4.25368 8.37868 3.75 9 3.75C9.62132 3.75 10.125 4.25368 10.125 4.875Z" fill="currentcolor" />
  <path d="M10.125 9C10.125 9.62132 9.62132 10.125 9 10.125C8.37868 10.125 7.875 9.62132 7.875 9C7.875 8.37868 8.37868 7.875 9 7.875C9.62132 7.875 10.125 8.37868 10.125 9Z" fill="currentcolor" />
  <path d="M9 14.25C9.62132 14.25 10.125 13.7463 10.125 13.125C10.125 12.5037 9.62132 12 9 12C8.37868 12 7.875 12.5037 7.875 13.125C7.875 13.7463 8.37868 14.25 9 14.25Z" fill="currentcolor" />
</svg>