<svg width="16" height="16" viewBox="0 0 16 16" fill="none" xmlns="http://www.w3.org/2000/svg">
<path fill-rule="evenodd" clip-rule="evenodd" d="M8 15C11.866 15 15 11.866 15 8C15 4.13401 11.866 1 8 1C4.13401 1 1 4.13401 1 8C1 11.866 4.13401 15 8 15ZM9.6636 5.0636C10.0151 4.71213 10.5849 4.71213 10.9364 5.0636C11.2586 5.38579 11.2854 5.89147 11.0169 6.24423L10.9364 6.3364L9.27279 8L10.9364 9.6636C11.2879 10.0151 11.2879 10.5849 10.9364 10.9364C10.6142 11.2586 10.1085 11.2854 9.75577 11.0169L9.6636 10.9364L8 9.27279L6.3364 10.9364C5.98492 11.2879 5.41508 11.2879 5.0636 10.9364C4.74142 10.6142 4.71457 10.1085 4.98306 9.75577L5.0636 9.6636L6.72721 8L5.0636 6.3364C4.71213 5.98492 4.71213 5.41508 5.0636 5.0636C5.38579 4.74142 5.89147 4.71457 6.24423 4.98306L6.3364 5.0636L8 6.72721L9.6636 5.0636Z" fill="#E73F33"/>
</svg>
