<svg width="99" height="79" viewBox="0 0 99 79" fill="none" xmlns="http://www.w3.org/2000/svg">
<path d="M42.9999 27.2998C42.9999 9.2998 32.4999 0.299806 20.1999 0.299805C7.5999 0.299804 0.399903 9.59981 0.399902 20.0998C0.399901 31.7998 9.0999 39.2998 18.6999 39.2998C19.5999 39.2998 20.1999 39.2998 21.9999 38.9998C22.2999 38.9998 22.5999 38.9998 22.8999 38.9998C23.7999 38.9998 24.3999 39.2998 24.3999 40.4998C24.3999 40.7998 24.3999 41.0998 24.3999 41.0998C24.0999 45.5998 21.6999 50.0998 18.9999 53.0998C15.3999 56.9998 10.5999 60.8998 5.79989 63.8998C3.69989 65.3998 2.79989 67.7998 2.79989 70.1998C2.79989 71.9998 3.39989 73.4998 3.9999 74.9998C5.49989 77.0998 8.1999 78.5998 10.8999 78.5998C12.3999 78.5998 13.5999 78.2998 14.7999 77.3998C22.2999 72.2998 30.3999 65.6998 35.4999 56.6998C39.9999 49.1998 42.9999 38.6998 42.9999 27.2998ZM98.1999 27.2998C98.1999 9.2998 87.6999 0.299811 75.3999 0.29981C62.7999 0.299808 55.5999 9.59981 55.5999 20.0998C55.5999 31.7998 64.2999 39.2998 73.8999 39.2998C74.7999 39.2998 75.3999 39.2998 77.1999 38.9998C77.4999 38.9998 77.7999 38.9998 78.0999 38.9998C78.9999 38.9998 79.5999 39.2998 79.5999 40.4998C79.5999 40.7998 79.5999 41.0998 79.5999 41.0998C79.2999 45.5998 76.8999 50.0998 74.1999 53.0998C70.5999 56.9998 65.7999 60.8998 60.9999 63.8998C58.8999 65.3998 57.9999 67.7998 57.9999 70.1998C57.9999 71.9998 58.5999 73.4998 59.1999 74.9998C60.6999 77.0998 63.3999 78.5998 66.0999 78.5998C67.5999 78.5998 68.7999 78.2998 69.9999 77.3998C77.4999 72.2998 85.5999 65.6998 90.6999 56.6998C95.1999 49.1998 98.1999 38.6998 98.1999 27.2998Z" fill="white" fill-opacity="0.1"/>
</svg>
