<svg width="32" height="32" viewBox="0 0 32 32" fill="none" xmlns="http://www.w3.org/2000/svg">
<path fill-rule="evenodd" clip-rule="evenodd" d="M16 30C23.732 30 30 23.732 30 16C30 8.26801 23.732 2 16 2C8.26801 2 2 8.26801 2 16C2 23.732 8.26801 30 16 30ZM23.2613 10.7158C22.552 10.0192 21.4124 10.0295 20.7158 10.7387L13.748 17.83L11.55 15.592L11.4775 15.4716C11.1522 15.0052 10.6118 14.7 10 14.7C9.00589 14.7 8.2 15.5059 8.2 16.5V16.5818L8.21525 16.8157C8.26578 17.2013 8.44031 17.5626 8.71579 17.8431L12.4658 21.6613L12.6511 21.8259C13.361 22.3746 14.3875 22.3197 15.0342 21.6613L23.2842 13.2613L23.4436 13.0755C23.9742 12.3652 23.9114 11.3543 23.2613 10.7158Z" fill="white"/>
</svg>
