<svg width="20" height="20" viewBox="0 0 20 20" fill="none" xmlns="http://www.w3.org/2000/svg">
<g clip-path="url(#clip0_972_63304)">
<path d="M10 20C15.5229 20 20 15.5229 20 10C20 4.47716 15.5229 0 10 0C4.47716 0 0 4.47716 0 10C0 15.5229 4.47716 20 10 20Z" fill="#DADFEA"/>
<path d="M20 9.99996C20 15.5 15.5 20 10 20C6.81252 20 4.00002 18.5625 2.1875 16.25C3.875 17.625 6.06251 18.4375 8.43749 18.4375C13.9375 18.4375 18.4375 13.9375 18.4375 8.43749C18.4375 6.06251 17.625 3.875 16.25 2.1875C18.5625 3.99993 20 6.81243 20 9.99996Z" fill="#C8CEDA"/>
<path d="M15.4375 7.12496L8.93747 14.25C8.49995 14.75 7.74998 14.75 7.31246 14.25L4.56245 11.1875C4.18747 10.75 4.18747 10.0625 4.62494 9.62497C5.06246 9.24998 5.74994 9.24998 6.18746 9.68746L8.12496 11.875L13.8124 5.68747C14.25 5.24995 14.9374 5.18746 15.375 5.62498C15.8124 5.99996 15.8124 6.74998 15.4375 7.12496Z" fill="white"/>
</g>
<defs>
<clipPath id="clip0_972_63304">
<rect width="20" height="20" fill="white"/>
</clipPath>
</defs>
</svg>
