<svg width="16" height="16" viewBox="0 0 16 16" fill="none" xmlns="http://www.w3.org/2000/svg">
<path d="M10.685 1.83074C8.24418 -0.610083 4.27156 -0.610083 1.83074 1.83074C-0.609554 4.27209 -0.609554 8.24418 1.83074 10.6855C4.00435 12.8586 7.38965 13.0914 9.82889 11.3945C9.88021 11.6374 9.99768 11.8692 10.1866 12.0581L13.7412 15.6127C14.2592 16.1296 15.0963 16.1296 15.6116 15.6127C16.1291 15.0952 16.1291 14.2581 15.6116 13.7422L12.057 10.1866C11.8692 9.99926 11.6369 9.88127 11.394 9.82994C13.092 7.39018 12.8591 4.00541 10.685 1.83074ZM9.56274 9.56327C7.74046 11.3856 4.77475 11.3856 2.953 9.56327C1.13177 7.74099 1.13177 4.77581 2.953 2.95353C4.77475 1.13177 7.74046 1.13177 9.56274 2.95353C11.385 4.77581 11.385 7.74099 9.56274 9.56327Z" fill="#8491A1"/>
</svg>
