<svg width="18" height="18" viewBox="0 0 18 18" fill="none" xmlns="http://www.w3.org/2000/svg">
<g clip-path="url(#clip0_1864_13000)">
<path d="M17.9003 0.146144C17.7639 0.0106448 17.5623 -0.0353151 17.3806 0.0280399L0.380619 6.02809C0.1803 6.09859 0.0464485 6.28792 0.0468147 6.50014C0.0469978 6.71236 0.181032 6.90133 0.381351 6.97164L7.77686 9.56261L11.1678 6.17128C11.3639 5.98103 11.6763 5.98341 11.8695 6.17659C12.0627 6.36977 12.065 6.68215 11.8748 6.87826L8.48402 10.2696L11.075 17.6656C11.1451 17.8656 11.3337 17.9994 11.5456 18H11.5465C11.7585 18.0002 11.9475 17.8665 12.0182 17.6666L18.0182 0.666351C18.0818 0.484709 18.036 0.282742 17.9003 0.146144Z" fill="white"/>
</g>
<defs>
<clipPath id="clip0_1864_13000">
<rect width="18" height="18" fill="white"/>
</clipPath>
</defs>
</svg>
