<svg width="16" height="16" viewBox="0 0 16 16" fill="none" xmlns="http://www.w3.org/2000/svg">
<path d="M14.605 5.92C14.3132 5.87762 14.0348 5.76996 13.7904 5.60506C13.546 5.44015 13.342 5.22223 13.1935 4.96754C13.045 4.71285 12.9559 4.42794 12.9328 4.13402C12.9097 3.84011 12.9532 3.54477 13.06 3.26999C13.1279 3.09036 13.1379 2.89397 13.0886 2.70836C13.0393 2.52275 12.9331 2.35722 12.785 2.23499C12.131 1.68583 11.3866 1.25442 10.585 0.959994C10.4025 0.892186 10.2032 0.883713 10.0156 0.935785C9.82791 0.987856 9.6615 1.09781 9.54001 1.24999C9.35715 1.48382 9.12344 1.67294 8.85662 1.803C8.58979 1.93306 8.29685 2.00066 8.00001 2.00066C7.70317 2.00066 7.41023 1.93306 7.1434 1.803C6.87658 1.67294 6.64287 1.48382 6.46001 1.24999C6.33852 1.09781 6.1721 0.987856 5.98447 0.935785C5.79683 0.883713 5.59755 0.892186 5.41501 0.959994C4.67484 1.23182 3.98281 1.62003 3.36501 2.10999C3.20928 2.23328 3.09711 2.40318 3.04493 2.59482C2.99275 2.78646 3.00329 2.98978 3.07501 3.17499C3.19039 3.45704 3.23806 3.7622 3.2142 4.06599C3.19034 4.36979 3.09561 4.66377 2.93761 4.92434C2.77961 5.18491 2.56275 5.40483 2.30441 5.56645C2.04607 5.72807 1.75344 5.82689 1.45001 5.855C1.25301 5.87606 1.06799 5.95981 0.922166 6.09393C0.776347 6.22805 0.677441 6.40544 0.640011 6.6C0.54691 7.06085 0.500011 7.52984 0.500011 8C0.499327 8.39361 0.531101 8.78661 0.595011 9.175C0.626818 9.37578 0.723884 9.5605 0.871201 9.70058C1.01852 9.84067 1.20788 9.92832 1.41001 9.95C1.72011 9.9791 2.01872 10.0821 2.28086 10.2502C2.543 10.4184 2.76104 10.647 2.91673 10.9167C3.07241 11.1865 3.16122 11.4896 3.17571 11.8007C3.1902 12.1119 3.12995 12.4219 3.00001 12.705C2.91497 12.8891 2.89388 13.0964 2.94008 13.2938C2.98628 13.4913 3.09712 13.6677 3.25501 13.795C3.90507 14.3342 4.6423 14.7586 5.43501 15.05C5.53638 15.0851 5.64274 15.1037 5.75001 15.105C5.89709 15.1047 6.04196 15.0691 6.17246 15.0012C6.30295 14.9334 6.41528 14.8352 6.50001 14.715C6.67822 14.4554 6.9171 14.2431 7.19593 14.0967C7.47475 13.9504 7.78509 13.8742 8.10001 13.875C8.40514 13.8754 8.70596 13.947 8.97852 14.0842C9.25109 14.2213 9.48787 14.4202 9.67001 14.665C9.79116 14.8279 9.96278 14.9461 10.1581 15.0012C10.3535 15.0564 10.5616 15.0454 10.75 14.97C11.4749 14.6783 12.1497 14.2751 12.75 13.775C12.9008 13.6503 13.0082 13.481 13.0567 13.2914C13.1052 13.1019 13.0924 12.9018 13.02 12.72C12.9024 12.4416 12.8511 12.1397 12.8702 11.838C12.8893 11.5364 12.9783 11.2433 13.13 10.982C13.2818 10.7206 13.4922 10.4981 13.7448 10.332C13.9973 10.166 14.2849 10.0608 14.585 10.025C14.7796 9.99809 14.9606 9.90993 15.1017 9.77328C15.2428 9.63664 15.3368 9.45862 15.37 9.265C15.4503 8.84795 15.4938 8.42466 15.5 8C15.5001 7.55207 15.4583 7.10512 15.375 6.665C15.3412 6.47565 15.2487 6.30175 15.1105 6.16801C14.9722 6.03427 14.7954 5.94749 14.605 5.92ZM10.5 8C10.5 8.49445 10.3534 8.9778 10.0787 9.38892C9.80398 9.80005 9.41353 10.1205 8.95672 10.3097C8.4999 10.4989 7.99724 10.5484 7.51228 10.452C7.02733 10.3555 6.58187 10.1174 6.23224 9.76776C5.88261 9.41813 5.64451 8.97268 5.54805 8.48772C5.45158 8.00277 5.50109 7.5001 5.69031 7.04329C5.87953 6.58647 6.19996 6.19603 6.61108 5.92132C7.02221 5.64662 7.50556 5.5 8.00001 5.5C8.66305 5.5 9.29893 5.76339 9.76778 6.23223C10.2366 6.70107 10.5 7.33695 10.5 8Z" fill="currentcolor"/>
</svg>
