<svg width="81" height="80" viewBox="0 0 81 80" fill="none" xmlns="http://www.w3.org/2000/svg">
<path d="M49.1014 54.0436C49.1014 56.9266 46.6731 59.2636 43.6776 59.2636H6.38866C3.39314 59.2636 0.964844 56.9266 0.964844 54.0436V6.0189C0.964844 3.13589 3.39314 0.798828 6.38866 0.798828H29.6022C30.6826 0.798828 31.7186 1.21243 32.4817 1.94848L47.9131 16.8318C48.6741 17.5658 49.1014 18.5604 49.1014 19.5972V54.0436Z" fill="#C8CEDA"/>
<path d="M49.9242 53.2673C49.9242 56.0575 47.5141 58.3193 44.5411 58.3193H7.5316C4.55854 58.3193 2.14844 56.0575 2.14844 53.2673V6.78927C2.14844 3.9991 4.55854 1.7373 7.5316 1.7373H30.5712C31.6435 1.7373 32.6717 2.13759 33.4291 2.84993L48.7448 17.254C49.5001 17.9643 49.9242 18.9268 49.9242 19.9303V53.2673Z" fill="#EBEEF5"/>
<path d="M49.6001 19.4371H35.0375C32.8977 19.4371 31.1626 17.7714 31.1626 15.7159V1.84766C31.628 1.95835 32.2702 2.12192 32.6376 2.4746L48.73 17.493C49.0974 17.8457 49.39 18.2541 49.6001 19.4371Z" fill="#C8CEDA"/>
<path d="M49.5619 18.3636H35.8849C33.8752 18.3636 32.2456 16.8312 32.2456 14.9402V2.08008C32.6827 2.26565 33.0834 2.52522 33.4284 2.84968L48.7447 17.2536C49.0898 17.5781 49.3646 17.9538 49.5619 18.3636Z" fill="#69D6E4"/>
<path d="M60.0783 61.7316C60.0783 64.641 57.6277 66.9994 54.6047 66.9994H16.9736C13.9506 66.9994 11.5 64.641 11.5 61.7316V13.2678C11.5 10.3584 13.9506 8 16.9736 8H40.4002C41.4905 8 42.536 8.41739 43.3061 9.16016L58.8791 24.1796C59.6471 24.9203 60.0783 25.924 60.0783 26.9703V61.7316Z" fill="#C8CEDA"/>
<path d="M60.9086 60.9472C60.9086 63.763 58.4763 66.0455 55.476 66.0455H18.1269C15.1266 66.0455 12.6943 63.763 12.6943 60.9472V14.0427C12.6943 11.2269 15.1266 8.94434 18.1269 8.94434H41.3779C42.46 8.94434 43.4977 9.3483 44.262 10.0672L59.7183 24.6034C60.4806 25.3202 60.9086 26.2916 60.9086 27.3043V60.9472Z" fill="#EBEEF5"/>
<path d="M60.5818 26.8065H45.8856C43.7261 26.8065 41.9751 25.1256 41.9751 23.0512V9.05566C42.4447 9.16738 43.0929 9.33244 43.4636 9.68836L59.7037 24.8446C60.0744 25.2005 60.3697 25.6127 60.5818 26.8065Z" fill="#C8CEDA"/>
<path d="M60.5431 25.723H46.7406C44.7124 25.723 43.0679 24.1766 43.0679 22.2682V9.29004C43.5089 9.47731 43.9133 9.73927 44.2616 10.0667L59.7184 24.6028C60.0666 24.9303 60.344 25.3094 60.5431 25.723Z" fill="#40C7DA"/>
<path d="M70.6366 69.1472C70.6366 72.0791 68.2083 74.4557 65.2128 74.4557H27.9238C24.9283 74.4557 22.5 72.0791 22.5 69.1472V20.3085C22.5 17.3767 24.9283 15 27.9238 15H51.1374C52.2178 15 53.2538 15.4206 54.0169 16.1691L69.4482 31.3047C70.2093 32.0511 70.6366 33.0626 70.6366 34.117V69.1472Z" fill="#C8CEDA"/>
<g filter="url(#filter0_d_780_57274)">
<path d="M71.4594 68.3575C71.4594 71.195 69.0493 73.4951 66.0762 73.4951H29.0668C26.0937 73.4951 23.6836 71.195 23.6836 68.3575V21.0917C23.6836 18.2542 26.0937 15.9541 29.0668 15.9541H52.1063C53.1786 15.9541 54.2069 16.3612 54.9643 17.0856L70.28 31.7338C71.0353 32.4561 71.4594 33.435 71.4594 34.4554V68.3575Z" fill="#EBEEF5"/>
</g>
<path d="M71.1353 33.955H56.5727C54.4328 33.955 52.6978 32.261 52.6978 30.1707V16.0674C53.1631 16.18 53.8054 16.3463 54.1728 16.705L70.2651 31.9779C70.6325 32.3366 70.9251 32.7519 71.1353 33.955Z" fill="#C8CEDA"/>
<path d="M71.0971 32.8623H57.4201C55.4103 32.8623 53.7808 31.3039 53.7808 29.3809V16.3027C54.2178 16.4915 54.6186 16.7554 54.9636 17.0854L70.2799 31.7334C70.6249 32.0634 70.8998 32.4455 71.0971 32.8623Z" fill="#05BAD2"/>
<path d="M46.6746 45.9551H34.4598C34.0508 45.9551 33.7192 45.4514 33.7192 44.8301C33.7192 44.2088 34.0508 43.7051 34.4598 43.7051H46.6746C47.0836 43.7051 47.4151 44.2088 47.4151 44.8301C47.4151 45.4514 47.0836 45.9551 46.6746 45.9551Z" fill="#B0B7C6"/>
<path d="M46.6746 60.667H34.4598C34.0508 60.667 33.7192 60.1633 33.7192 59.542C33.7192 58.9207 34.0508 58.417 34.4598 58.417H46.6746C47.0836 58.417 47.4151 58.9207 47.4151 59.542C47.4151 60.1633 47.0836 60.667 46.6746 60.667Z" fill="#B0B7C6"/>
<path d="M56.3819 50.8594H34.263C33.854 50.8594 33.5225 50.3557 33.5225 49.7344C33.5225 49.1131 33.854 48.6094 34.263 48.6094H56.3819C56.7909 48.6094 57.1225 49.1131 57.1225 49.7344C57.1225 50.3557 56.7909 50.8594 56.3819 50.8594Z" fill="#B0B7C6"/>
<path d="M56.3819 55.7627H34.263C33.854 55.7627 33.5225 55.259 33.5225 54.6377C33.5225 54.0164 33.854 53.5127 34.263 53.5127H56.3819C56.7909 53.5127 57.1225 54.0164 57.1225 54.6377C57.1225 55.259 56.7909 55.7627 56.3819 55.7627Z" fill="#B0B7C6"/>
<path d="M80.5002 64.9697C80.5002 68.7209 79.1249 72.1498 76.8527 74.7767C74.1169 77.9394 70.0809 79.375 65.5791 79.375C57.3384 79.375 51.1255 73.2373 51.1255 64.9697C51.1255 60.4541 52.651 56.4054 55.8026 53.6607C58.4211 51.3802 61.8394 50 65.5791 50C73.8198 50 80.5002 56.7022 80.5002 64.9697Z" fill="#05BAD2"/>
<path d="M66.9476 78.5047C58.6896 78.5047 51.9952 71.8098 51.9952 63.5514C51.9952 59.8027 53.3766 56.3745 55.6554 53.75C52.4979 56.4916 50.5 60.5365 50.5 65.0467C50.5 73.3052 57.1944 80 65.4524 80C69.9622 80 74.0083 78.0004 76.7497 74.8429C74.1254 77.1216 70.696 78.5047 66.9476 78.5047Z" fill="#019AAF"/>
<path d="M64.914 71.4968C64.3314 71.4968 63.7488 71.2708 63.3045 70.8186L58.5242 65.9572C57.6352 65.0532 57.6352 63.5875 58.5242 62.6834C59.413 61.7794 60.8544 61.7794 61.7434 62.6834L64.9142 65.9079L70.2855 60.4456C71.1743 59.5416 72.6157 59.5416 73.5047 60.4456C74.3937 61.3497 74.3937 62.8154 73.5047 63.7194L66.5239 70.8186C66.0792 71.2708 65.4966 71.4968 64.914 71.4968Z" fill="#F9F8F9"/>
<defs>
<filter id="filter0_d_780_57274" x="23.6836" y="15.9541" width="48.7759" height="58.541" filterUnits="userSpaceOnUse" color-interpolation-filters="sRGB">
<feFlood flood-opacity="0" result="BackgroundImageFix"/>
<feColorMatrix in="SourceAlpha" type="matrix" values="0 0 0 0 0 0 0 0 0 0 0 0 0 0 0 0 0 0 127 0" result="hardAlpha"/>
<feOffset dx="1" dy="1"/>
<feComposite in2="hardAlpha" operator="out"/>
<feColorMatrix type="matrix" values="0 0 0 0 0.784314 0 0 0 0 0.807843 0 0 0 0 0.854902 0 0 0 1 0"/>
<feBlend mode="normal" in2="BackgroundImageFix" result="effect1_dropShadow_780_57274"/>
<feBlend mode="normal" in="SourceGraphic" in2="effect1_dropShadow_780_57274" result="shape"/>
</filter>
</defs>
</svg>
