<svg width="62" height="62" fill="none" xmlns="http://www.w3.org/2000/svg"><path d="M52.313 1.938v3.875H9.687v11.625H5.813v-15.5h46.5Z" fill="#FFE07D"/><path d="M9.688 5.813v11.625h31l1.404-2.8a1.938 1.938 0 0 1 1.734-1.075h12.361v-7.75h-46.5Z" fill="#E6E9ED"/><path d="M1.938 21.313V46.5c0 1.066.871 1.938 1.937 1.938h54.25a1.943 1.943 0 0 0 1.938-1.938V21.312H1.937Z" fill="#EEF2F9"/><path d="M60.063 15.5v5.813H1.937v-1.938c0-1.066.872-1.938 1.938-1.938h36.813l1.404-2.8a1.938 1.938 0 0 1 1.734-1.075H58.125c1.066 0 1.938.872 1.938 1.938Z" fill="#DEE7F7"/><path d="M47.469 42.625c-.02 0-.039.01-.058.01a8.712 8.712 0 0 0-8.661-7.76c-.765 0-1.511.107-2.218.29-1.948-2.528-5-4.165-8.438-4.165-4.922 0-9.058 3.342-10.279 7.886a6.776 6.776 0 0 0-8.128 6.646 6.63 6.63 0 0 0 .66 2.906 6.753 6.753 0 0 0 6.122 3.874h31a4.844 4.844 0 1 0 0-9.687Z" fill="#E6E9ED"/><path d="m32.414 37.549 5.154 8.593a1.517 1.517 0 0 1-1.308 2.296h-2.354V61.032h-5.812V48.437H25.74a1.517 1.517 0 0 1-1.308-2.296l5.154-8.593a1.54 1.54 0 0 1 1.307-.736h.214c.532 0 1.026.28 1.307.736Z" fill="#24AFC2"/><path d="M58.125 12.594h-.969v-7.75h-3.875V.969H4.844v15.5h-.969a2.91 2.91 0 0 0-2.906 2.906V46.5a2.91 2.91 0 0 0 2.906 2.906h5.892c1.343 2.313 3.84 3.875 6.702 3.875h10.656v7.75h1.938V47.47h-3.327a.55.55 0 0 1-.47-.83l5.155-8.591a.548.548 0 0 1 .47-.267h.22a.55.55 0 0 1 .47.267l5.154 8.59a.55.55 0 0 1-.47.831h-3.328V61.03h1.938v-7.75h12.594c2.525 0 4.673-1.62 5.473-3.875h5.183a2.91 2.91 0 0 0 2.906-2.906v-31a2.91 2.91 0 0 0-2.906-2.906ZM55.219 6.78v5.813H43.822a2.892 2.892 0 0 0-2.599 1.606l-1.134 2.269H10.656V6.78H55.22ZM6.78 2.906h44.563v1.938H8.719v11.625H6.78V2.906ZM47.47 51.344H34.875v-1.938h1.39a2.488 2.488 0 0 0 2.13-3.764l-5.153-8.59a2.497 2.497 0 0 0-2.132-1.208h-.22c-.868 0-1.686.463-2.132 1.207l-5.154 8.59a2.488 2.488 0 0 0 2.132 3.765h1.389v1.938H16.469a5.819 5.819 0 0 1-5.813-5.813 5.818 5.818 0 0 1 6.969-5.697l.889.178.236-.876a9.694 9.694 0 0 1 9.344-7.167c3.022 0 5.819 1.382 7.673 3.791l.393.51.622-.164c4.758-1.245 9.165 2.063 9.668 6.63l.095.864h.868l.117-.005a3.878 3.878 0 0 1 3.814 3.874 3.879 3.879 0 0 1-3.875 3.875ZM59.094 46.5a.97.97 0 0 1-.969.969h-4.844a5.823 5.823 0 0 0-5.03-5.76 9.67 9.67 0 0 0-9.501-7.803c-.606 0-1.224.062-1.843.184a11.536 11.536 0 0 0-8.813-4.059c-4.952 0-9.342 3.158-10.96 7.778a8.043 8.043 0 0 0-.665-.028c-4.273 0-7.75 3.477-7.75 7.75 0 .67.094 1.317.255 1.938H3.875a.97.97 0 0 1-.969-.969V22.281h56.188V46.5Zm0-26.156H2.906v-.969a.97.97 0 0 1 .969-.969h37.411l1.67-3.339a.963.963 0 0 1 .866-.536h14.303a.97.97 0 0 1 .969.969v4.844Z" fill="#2A2424"/><path d="M55.219 16.469h1.937v1.937H55.22V16.47ZM47.469 16.469h1.937v1.937H47.47V16.47ZM43.594 16.469h1.937v1.937h-1.937V16.47ZM51.344 16.469h1.937v1.937h-1.937V16.47ZM51.344 8.719h1.937v1.937h-1.937V8.72ZM12.594 8.719h36.812v1.937H12.594V8.72ZM12.594 12.594h1.937v1.937h-1.937v-1.937ZM16.469 12.594h23.25v1.937h-23.25v-1.937Z" fill="#2A2424"/></svg>