<svg width="60" height="60" viewBox="0 0 60 60" fill="none" xmlns="http://www.w3.org/2000/svg">
<path d="M50.625 1.875V5.625H9.375V9.375V16.875H5.625V1.875H50.625Z" fill="#FFE07D"/>
<path d="M9.375 5.625V16.875H39.375L40.7344 14.1656C41.0531 13.5281 41.7 13.125 42.4125 13.125H54.375V5.625H9.375Z" fill="#E6E9ED"/>
<path d="M1.875 20.625V45C1.875 46.0312 2.71875 46.875 3.75 46.875H56.25C57.2812 46.875 58.125 46.0312 58.125 45V20.625H1.875Z" fill="#EEF2F9"/>
<path d="M58.125 15V20.625H1.875V18.75C1.875 17.7188 2.71875 16.875 3.75 16.875H5.625H9.375H39.375L40.7344 14.1656C41.0531 13.5281 41.7 13.125 42.4125 13.125H54.375H56.25C57.2812 13.125 58.125 13.9688 58.125 15Z" fill="#DEE7F7"/>
<path d="M45.9375 41.25C45.9188 41.25 45.9 41.2594 45.8812 41.2594C45.4219 37.0312 41.8406 33.75 37.5 33.75C36.7594 33.75 36.0375 33.8531 35.3531 34.0312C33.4688 31.5844 30.5156 30 27.1875 30C22.425 30 18.4219 33.2344 17.2406 37.6312C16.8187 37.5469 16.3875 37.5 15.9375 37.5C12.3094 37.5 9.375 40.4344 9.375 44.0625C9.375 45.075 9.6 46.0219 10.0125 46.875C11.0625 49.0969 13.3125 50.625 15.9375 50.625H45.9375C48.2062 50.625 50.1 49.0125 50.5312 46.875C50.5969 46.575 50.625 46.2563 50.625 45.9375C50.625 43.35 48.525 41.25 45.9375 41.25Z" fill="#E6E9ED"/>
<path d="M31.3687 36.3375L36.3562 44.6531C36.4875 44.8781 36.5625 45.1406 36.5625 45.4031C36.5625 46.2188 35.9062 46.875 35.0906 46.875H32.8125V50.625V59.0625H27.1875V50.625V46.875H24.9094C24.0937 46.875 23.4375 46.2188 23.4375 45.4031C23.4375 45.1406 23.5125 44.8781 23.6437 44.6531L28.6313 36.3375C28.9031 35.8969 29.3812 35.625 29.8969 35.625H30.1031C30.6188 35.625 31.0969 35.8969 31.3687 36.3375Z" fill="#24AFC2"/>
<path d="M56.25 12.1875H55.3125V4.6875H51.5625V0.9375H4.6875V15.9375H3.75C2.19937 15.9375 0.9375 17.1994 0.9375 18.75V45C0.9375 46.5506 2.19937 47.8125 3.75 47.8125H9.45187C10.7513 50.0503 13.1681 51.5625 15.9375 51.5625H26.25V59.0625H28.125V45.9375H24.9056C24.6131 45.9375 24.375 45.6994 24.375 45.4069C24.375 45.3103 24.4012 45.2166 24.4509 45.1341L29.4394 36.8203C29.5341 36.6609 29.7084 36.5625 29.8941 36.5625H30.1069C30.2925 36.5625 30.4659 36.6609 30.5616 36.8203L35.55 45.1331C35.5987 45.2156 35.625 45.3103 35.625 45.4069C35.625 45.6994 35.3869 45.9375 35.0944 45.9375H31.875V59.0625H33.75V51.5625H45.9375C48.3816 51.5625 50.46 49.9941 51.2344 47.8125H56.25C57.8006 47.8125 59.0625 46.5506 59.0625 45V15C59.0625 13.4494 57.8006 12.1875 56.25 12.1875ZM53.4375 6.5625V12.1875H42.4087C41.3363 12.1875 40.3734 12.7837 39.8934 13.7419L38.7956 15.9375H10.3125V6.5625H53.4375ZM6.5625 2.8125H49.6875V4.6875H8.4375V15.9375H6.5625V2.8125ZM45.9375 49.6875H33.75V47.8125H35.0944C36.4209 47.8125 37.5 46.7334 37.5 45.4069C37.5 44.9709 37.3819 44.5425 37.1569 44.1694L32.1694 35.8575C31.7372 35.1356 30.9469 34.6875 30.1059 34.6875H29.8931C29.0531 34.6875 28.2619 35.1356 27.8306 35.8556L22.8422 44.1684C22.6181 44.5425 22.5 44.9709 22.5 45.4069C22.5 46.7334 23.5791 47.8125 24.9056 47.8125H26.25V49.6875H15.9375C12.8353 49.6875 10.3125 47.1647 10.3125 44.0625C10.3125 40.9603 12.8353 38.4375 15.9375 38.4375C16.3088 38.4375 16.6847 38.475 17.0559 38.5491L17.9166 38.7216L18.1453 37.8741C19.2441 33.7894 22.9631 30.9375 27.1875 30.9375C30.1125 30.9375 32.8191 32.2753 34.6134 34.6069L34.9931 35.1L35.595 34.9416C40.2 33.7359 44.4647 36.9375 44.9513 41.3578L45.0431 42.1931H45.8831L45.9966 42.1884C48.0375 42.2194 49.6875 43.8891 49.6875 45.9375C49.6875 48.0056 48.0056 49.6875 45.9375 49.6875ZM57.1875 45C57.1875 45.5175 56.7666 45.9375 56.25 45.9375H51.5625C51.5625 43.0931 49.4391 40.7344 46.695 40.3631C45.84 36.0066 42.0187 32.8125 37.5 32.8125C36.9131 32.8125 36.315 32.8725 35.7159 32.9906C33.5709 30.4875 30.4959 29.0625 27.1875 29.0625C22.3959 29.0625 18.1472 32.1187 16.5806 36.5897C16.3659 36.5719 16.1512 36.5625 15.9375 36.5625C11.8022 36.5625 8.4375 39.9272 8.4375 44.0625C8.4375 44.7113 8.52844 45.3366 8.68406 45.9375H3.75C3.23344 45.9375 2.8125 45.5175 2.8125 45V21.5625H57.1875V45ZM57.1875 19.6875H2.8125V18.75C2.8125 18.2325 3.23344 17.8125 3.75 17.8125H39.9544L41.5706 14.5809C41.73 14.2613 42.0516 14.0625 42.4087 14.0625H56.25C56.7666 14.0625 57.1875 14.4825 57.1875 15V19.6875Z" fill="#2A2424"/>
<path d="M53.4375 15.9375H55.3125V17.8125H53.4375V15.9375Z" fill="#2A2424"/>
<path d="M45.9375 15.9375H47.8125V17.8125H45.9375V15.9375Z" fill="#2A2424"/>
<path d="M42.1875 15.9375H44.0625V17.8125H42.1875V15.9375Z" fill="#2A2424"/>
<path d="M49.6875 15.9375H51.5625V17.8125H49.6875V15.9375Z" fill="#2A2424"/>
<path d="M49.6875 8.4375H51.5625V10.3125H49.6875V8.4375Z" fill="#2A2424"/>
<path d="M12.1875 8.4375H47.8125V10.3125H12.1875V8.4375Z" fill="#2A2424"/>
<path d="M12.1875 12.1875H14.0625V14.0625H12.1875V12.1875Z" fill="#2A2424"/>
<path d="M15.9375 12.1875H38.4375V14.0625H15.9375V12.1875Z" fill="#2A2424"/>
</svg>
