<svg width="18" height="18" viewBox="0 0 18 18" fill="none" xmlns="http://www.w3.org/2000/svg">
<path fill-rule="evenodd" clip-rule="evenodd" d="M9.39775 2.60225L9.33466 2.54779C9.11445 2.3844 8.80195 2.40255 8.60225 2.60225L4.85225 6.35225L4.79779 6.41534C4.6344 6.63555 4.65255 6.94805 4.85225 7.14775L4.91534 7.20221C5.13555 7.3656 5.44805 7.34745 5.64775 7.14775L8.4375 4.35825V11.625L8.44263 11.7013C8.47988 11.9759 8.71523 12.1875 9 12.1875C9.31066 12.1875 9.5625 11.9357 9.5625 11.625V4.35825L12.3523 7.14775L12.4153 7.20221C12.6355 7.3656 12.948 7.34745 13.1477 7.14775C13.3674 6.92808 13.3674 6.57192 13.1477 6.35225L9.39775 2.60225ZM16.3074 10.4237C16.2701 10.1491 16.0348 9.9375 15.75 9.9375C15.4393 9.9375 15.1875 10.1893 15.1875 10.5V13.5L15.1827 13.5959C15.1347 14.0686 14.7354 14.4375 14.25 14.4375H3.75L3.65471 14.4326C3.18442 14.3842 2.8125 13.9822 2.8125 13.5V10.5L2.80736 10.4237C2.77012 10.1491 2.53477 9.9375 2.25 9.9375C1.93934 9.9375 1.6875 10.1893 1.6875 10.5V13.5L1.69128 13.6253C1.75644 14.703 2.6564 15.5625 3.75 15.5625H14.25L14.3756 15.5587C15.4562 15.4938 16.3125 14.5969 16.3125 13.5V10.5L16.3074 10.4237Z" fill="currentcolor"/>
</svg>
