<svg width="25" height="24" viewBox="0 0 25 24" fill="none" xmlns="http://www.w3.org/2000/svg">
<path fill-rule="evenodd" clip-rule="evenodd" d="M12.5 1.25C6.56294 1.25 1.75 6.06294 1.75 12C1.75 17.9371 6.56294 22.75 12.5 22.75C18.4371 22.75 23.25 17.9371 23.25 12C23.25 6.06294 18.4371 1.25 12.5 1.25ZM12.5 2.75C17.6086 2.75 21.75 6.89137 21.75 12C21.75 14.2316 20.9598 16.2786 19.6439 17.8765C19.3537 16.1513 18.2979 15.0202 15.991 14.2052L15.779 14.132L15.8446 14.0699C16.8333 13.0706 17.25 11.8962 17.25 10C17.25 7.37665 15.1234 5.25 12.5 5.25C9.87665 5.25 7.75 7.37665 7.75 10L7.75315 10.2745C7.79519 12.0721 8.26057 13.232 9.26379 14.1935L9.31 14.236L9.00439 14.3513C6.75297 15.2247 5.68369 16.3275 5.37103 17.8945C4.0462 16.294 3.25 14.24 3.25 12C3.25 6.89137 7.39137 2.75 12.5 2.75ZM6.73318 19.2328C8.31455 20.4953 10.3191 21.25 12.5 21.25C14.6809 21.25 16.6854 20.4953 18.2668 19.2328C18.2429 19.1595 18.23 19.0813 18.23 19C18.23 16.937 17.4025 16.0102 13.9953 15.1842C13.3609 15.0304 13.2122 14.1957 13.7545 13.8323C15.2636 12.8208 15.75 12.0238 15.75 10C15.75 8.20507 14.2949 6.75 12.5 6.75C10.7051 6.75 9.25 8.20507 9.25 10C9.25 12.0596 9.78116 12.9126 11.3182 13.879C11.8694 14.2256 11.7474 15.0618 11.1201 15.2365L10.5517 15.4018C7.56053 16.3126 6.77 17.2664 6.77 19C6.77 19.0812 6.75708 19.1595 6.73318 19.2328Z" fill="#8491A1"/>
</svg>
